<svg width="64" height="50" viewBox="0 0 64 50" fill="none" xmlns="http://www.w3.org/2000/svg">
<path d="M14.4219 49.8859C14.4359 49.8953 14.4546 49.8906 14.4687 49.9C14.5792 49.9615 14.7028 49.9958 14.8293 50C14.8989 49.9999 14.9682 49.9904 15.0353 49.9719L32 45.3375L48.9647 49.9719C49.0318 49.9904 49.1011 49.9999 49.1707 50C49.2969 49.9962 49.4202 49.9613 49.5298 49.8984C49.5454 49.8906 49.5625 49.8938 49.5766 49.8844L63.6254 41.2906C63.7705 41.2014 63.8825 41.0672 63.9445 40.9085C64.0065 40.7497 64.015 40.575 63.9688 40.4109L56.1889 13.0672C56.157 12.9533 56.0997 12.8482 56.0213 12.7597C55.9429 12.6713 55.8454 12.6019 55.7362 12.5567C55.627 12.5115 55.509 12.4918 55.3911 12.4991C55.2732 12.5063 55.1585 12.5403 55.0556 12.5984L47.31 16.9484C47.1404 17.0556 47.0184 17.224 46.9693 17.4187C46.9202 17.6133 46.9477 17.8195 47.0461 17.9945C47.1445 18.1694 47.3063 18.2998 47.4981 18.3587C47.6899 18.4177 47.897 18.4005 48.0765 18.3109L54.9588 14.4438L62.3063 40.2656L49.7951 47.9203L46.823 24.1219C46.7974 23.9161 46.6911 23.729 46.5276 23.6017C46.3641 23.4744 46.1568 23.4173 45.9512 23.443C45.7457 23.4687 45.5587 23.575 45.4315 23.7387C45.3043 23.9023 45.2473 24.1099 45.273 24.3156L48.2498 48.1578L32.7805 43.9313V39.6656C32.7805 39.4584 32.6983 39.2597 32.5519 39.1132C32.4055 38.9667 32.207 38.8844 32 38.8844C31.793 38.8844 31.5945 38.9667 31.4481 39.1132C31.3017 39.2597 31.2195 39.4584 31.2195 39.6656V43.9313L15.7487 48.1578L18.7255 24.3156C18.7382 24.2138 18.7307 24.1104 18.7035 24.0114C18.6763 23.9124 18.6299 23.8197 18.5669 23.7387C18.5039 23.6577 18.4256 23.5898 18.3364 23.5391C18.2473 23.4884 18.149 23.4557 18.0472 23.443C17.9454 23.4303 17.8422 23.4377 17.7433 23.465C17.6444 23.4922 17.5518 23.5387 17.4708 23.6017C17.3899 23.6647 17.3221 23.7431 17.2714 23.8324C17.2208 23.9216 17.1881 24.02 17.1754 24.1219L14.2049 47.9203L1.69365 40.2672L9.04117 14.4469L15.9235 18.3141C16.103 18.4037 16.3101 18.4208 16.5019 18.3619C16.6936 18.303 16.8555 18.1726 16.9539 17.9976C17.0523 17.8226 17.0798 17.6165 17.0307 17.4218C16.9816 17.2271 16.8596 17.0588 16.6899 16.9516L8.94283 12.6C8.84021 12.5412 8.7255 12.5067 8.6075 12.4991C8.4895 12.4916 8.37134 12.5112 8.26208 12.5564C8.15282 12.6017 8.05536 12.6714 7.97719 12.7602C7.89902 12.849 7.84221 12.9546 7.81112 13.0688L0.0312144 40.4125C-0.0158403 40.5765 -0.0077149 40.7515 0.0543393 40.9105C0.116393 41.0694 0.228934 41.2035 0.374629 41.2922L14.4219 49.8859Z" fill="#A4A4A4"/>
<path d="M31.4708 36.5125C31.6141 36.6449 31.8017 36.7188 31.9967 36.7197C32.1918 36.7205 32.38 36.6483 32.5245 36.5172C33.0443 36.0438 45.2683 24.8156 45.2683 13.2812C45.2683 5.83281 39.4412 0 32 0C24.5588 0 18.7317 5.83281 18.7317 13.2812C18.7317 24.6156 30.951 36.0312 31.4708 36.5125ZM32 1.5625C38.6732 1.5625 43.7073 6.6 43.7073 13.2812C43.7073 22.8078 34.3524 32.5578 32.0047 34.8547C29.6617 32.5312 20.2927 22.6531 20.2927 13.2812C20.2927 6.6 25.3268 1.5625 32 1.5625Z" fill="#A4A4A4"/>
<path d="M39.0244 13.2812C39.0244 9.40469 35.8728 6.25 32 6.25C28.1272 6.25 24.9756 9.40469 24.9756 13.2812C24.9756 17.1578 28.1272 20.3125 32 20.3125C35.8728 20.3125 39.0244 17.1578 39.0244 13.2812ZM32 18.75C28.9873 18.75 26.5366 16.2969 26.5366 13.2812C26.5366 10.2656 28.9873 7.8125 32 7.8125C35.0127 7.8125 37.4634 10.2656 37.4634 13.2812C37.4634 16.2969 35.0127 18.75 32 18.75Z" fill="#A4A4A4"/>
</svg>
