<svg width="52" height="52" viewBox="0 0 52 52" fill="none" xmlns="http://www.w3.org/2000/svg">
<path d="M22.867 13.5199L15.5372 5.05907C14.6922 4.08407 13.143 4.0884 12.1615 5.07207L6.13384 11.1106C4.33984 12.9067 3.82634 15.5739 4.86418 17.7124C11.0644 30.5498 21.4176 40.9176 34.2463 47.1357C36.3827 48.1736 39.0477 47.6601 40.8417 45.8639L46.9257 39.7691C47.9115 38.7832 47.9137 37.2254 46.93 36.3804L38.4367 29.0896C37.5483 28.3269 36.1682 28.4266 35.2777 29.3192L32.3223 32.2789C32.171 32.4375 31.9719 32.542 31.7554 32.5764C31.539 32.6109 31.3172 32.5733 31.1242 32.4696C26.2935 29.6878 22.2863 25.6754 19.5108 20.8411C19.4069 20.6477 19.3693 20.4256 19.4037 20.2087C19.4381 19.9919 19.5428 19.7924 19.7015 19.6407L22.6482 16.6919C23.5408 15.7949 23.6383 14.4082 22.867 13.5177V13.5199Z" stroke="#A4A4A4" stroke-width="2" stroke-linecap="round" stroke-linejoin="round"/>
</svg>
