<svg width="57" height="57" viewBox="0 0 57 57" fill="none" xmlns="http://www.w3.org/2000/svg">
<g filter="url(#filter0_d_4_679)">
<path d="M17.1 5.70001C15.5883 5.70001 14.1384 6.30055 13.0695 7.3695C12.0005 8.43846 11.4 9.88828 11.4 11.4V45.6C11.4 47.1117 12.0005 48.5616 13.0695 49.6305C14.1384 50.6995 15.5883 51.3 17.1 51.3H44.175C44.5529 51.3 44.9154 51.1499 45.1826 50.8826C45.4499 50.6154 45.6 50.2529 45.6 49.875C45.6 49.4971 45.4499 49.1346 45.1826 48.8674C44.9154 48.6001 44.5529 48.45 44.175 48.45H17.1C16.3441 48.45 15.6192 48.1497 15.0847 47.6153C14.5503 47.0808 14.25 46.3559 14.25 45.6H42.75C43.5059 45.6 44.2308 45.2997 44.7652 44.7653C45.2997 44.2308 45.6 43.5059 45.6 42.75V11.4C45.6 9.88828 44.9995 8.43846 43.9305 7.3695C42.8615 6.30055 41.4117 5.70001 39.9 5.70001H17.1ZM33.0201 28.1552L36.6339 31.7661C36.9015 32.0337 37.0518 32.3966 37.0518 32.775C37.0518 33.1534 36.9015 33.5163 36.6339 33.7839C36.3663 34.0515 36.0034 34.2018 35.625 34.2018C35.2466 34.2018 34.8837 34.0515 34.6161 33.7839L31.0051 30.1701C29.5321 31.1438 27.7501 31.5358 26.0045 31.2702C24.2589 31.0046 22.6741 30.1003 21.5573 28.7326C20.4406 27.3649 19.8714 25.6313 19.9603 23.8678C20.0491 22.1043 20.7896 20.4367 22.0381 19.1881C23.2866 17.9396 24.9543 17.1991 26.7178 17.1103C28.4812 17.0215 30.2149 17.5906 31.5826 18.7073C32.9503 19.8241 33.8546 21.4089 34.1202 23.1545C34.3858 24.9001 33.9937 26.6822 33.0201 28.1552ZM22.8 24.225C22.8 23.0912 23.2504 22.0038 24.0521 21.2021C24.8538 20.4004 25.9412 19.95 27.075 19.95C28.2088 19.95 29.2962 20.4004 30.0979 21.2021C30.8996 22.0038 31.35 23.0912 31.35 24.225C31.35 25.3588 30.8996 26.4462 30.0979 27.2479C29.2962 28.0496 28.2088 28.5 27.075 28.5C25.9412 28.5 24.8538 28.0496 24.0521 27.2479C23.2504 26.4462 22.8 25.3588 22.8 24.225Z" fill="#B721FF"/>
</g>
<defs>
<filter id="filter0_d_4_679" x="7.39999" y="1.70001" width="42.2" height="53.6" filterUnits="userSpaceOnUse" color-interpolation-filters="sRGB">
<feFlood flood-opacity="0" result="BackgroundImageFix"/>
<feColorMatrix in="SourceAlpha" type="matrix" values="0 0 0 0 0 0 0 0 0 0 0 0 0 0 0 0 0 0 127 0" result="hardAlpha"/>
<feOffset/>
<feGaussianBlur stdDeviation="2"/>
<feComposite in2="hardAlpha" operator="out"/>
<feColorMatrix type="matrix" values="0 0 0 0 0.717647 0 0 0 0 0.129412 0 0 0 0 1 0 0 0 1 0"/>
<feBlend mode="normal" in2="BackgroundImageFix" result="effect1_dropShadow_4_679"/>
<feBlend mode="normal" in="SourceGraphic" in2="effect1_dropShadow_4_679" result="shape"/>
</filter>
</defs>
</svg>
