<svg width="54" height="54" viewBox="0 0 54 54" fill="none" xmlns="http://www.w3.org/2000/svg">
<g filter="url(#filter0_d_4_677)">
<path d="M36.54 25.8975L40.0725 22.365L31.635 13.9275L28.1025 17.46L18.7875 8.16751C17.0325 6.41251 14.175 6.41251 12.42 8.16751L8.145 12.4425C6.39 14.1975 6.39 17.055 8.145 18.81L17.4375 28.1025L6.75 38.8125V47.25H15.1875L25.8975 36.54L35.19 45.8325C37.3275 47.97 40.2075 47.1825 41.5575 45.8325L45.8325 41.5575C47.5875 39.8025 47.5875 36.945 45.8325 35.19L36.54 25.8975ZM20.655 24.9075L11.34 15.615L15.5925 11.34L18.45 14.1975L15.795 16.875L18.9675 20.0475L21.645 17.37L24.9075 20.6325L20.655 24.9075ZM38.385 42.66L29.0925 33.3675L33.3675 29.0925L36.63 32.355L33.9525 35.0325L37.125 38.205L39.8025 35.5275L42.66 38.385L38.385 42.66ZM46.5975 15.84C46.8061 15.6319 46.9716 15.3846 47.0845 15.1124C47.1974 14.8402 47.2555 14.5484 47.2555 14.2538C47.2555 13.9591 47.1974 13.6673 47.0845 13.3951C46.9716 13.1229 46.8061 12.8757 46.5975 12.6675L41.3325 7.40251C40.275 6.34501 38.8125 6.75001 38.16 7.40251L34.0425 11.52L42.48 19.9575L46.5975 15.84Z" fill="#B721FF"/>
</g>
<defs>
<filter id="filter0_d_4_677" x="2.75" y="2.7525" width="48.5055" height="48.4975" filterUnits="userSpaceOnUse" color-interpolation-filters="sRGB">
<feFlood flood-opacity="0" result="BackgroundImageFix"/>
<feColorMatrix in="SourceAlpha" type="matrix" values="0 0 0 0 0 0 0 0 0 0 0 0 0 0 0 0 0 0 127 0" result="hardAlpha"/>
<feOffset/>
<feGaussianBlur stdDeviation="2"/>
<feComposite in2="hardAlpha" operator="out"/>
<feColorMatrix type="matrix" values="0 0 0 0 0.717647 0 0 0 0 0.129412 0 0 0 0 1 0 0 0 1 0"/>
<feBlend mode="normal" in2="BackgroundImageFix" result="effect1_dropShadow_4_677"/>
<feBlend mode="normal" in="SourceGraphic" in2="effect1_dropShadow_4_677" result="shape"/>
</filter>
</defs>
</svg>
