<svg xmlns="http://www.w3.org/2000/svg" width="35pt" zoomAndPan="magnify" viewBox="0 0 37.5 37.499999" height="35pt" preserveAspectRatio="xMidYMid meet" version="1.2">
    <defs>
        <clipPath xml:id="clip1" id="clip1">
            <path d="M 6.484375 3.023438 L 31.234375 3.023438 L 31.234375 34.523438 L 6.484375 34.523438 Z M 6.484375 3.023438 " />
        </clipPath>
        <linearGradient id="gradient1" x1="0%" x2="50%" y1="85.457%" y2="14.543%">
            <stop offset="0%" stop-color="#7284ff" />
            <stop offset="51.945%" stop-color="#854edb" />
            <stop offset="100%" stop-color="#5A77FF" />
        </linearGradient>
    </defs>
    <g xml:id="surface1" id="surface1">
        <g clip-rule="nonzero" clip-path="url(#clip1)">
            <path style=" stroke:none;fill-rule:nonzero;fill:url(#gradient1);fill-opacity:1;" d="M 18.875 3.023438 C 12.105469 3.023438 6.546875 8.476562 6.515625 15.195312 C 6.546875 17.714844 7.308594 20.175781 8.800781 22.257812 C 8.835938 22.320312 8.867188 22.382812 8.929688 22.445312 L 17.632812 33.921875 L 17.664062 33.953125 C 17.984375 34.332031 18.429688 34.523438 18.875 34.523438 C 19.316406 34.523438 19.761719 34.300781 20.082031 33.953125 L 20.113281 33.921875 L 28.785156 22.445312 C 28.882812 22.351562 28.945312 22.289062 29.007812 22.160156 C 30.4375 20.113281 31.199219 17.683594 31.199219 15.195312 C 31.199219 8.507812 25.671875 3.023438 18.875 3.023438 Z M 18.875 4.914062 C 24.625 4.914062 29.292969 9.550781 29.292969 15.226562 C 29.292969 17.335938 28.660156 19.355469 27.417969 21.121094 C 27.386719 21.152344 27.355469 21.183594 27.355469 21.214844 L 18.875 32.441406 L 10.421875 21.246094 L 10.390625 21.214844 C 10.390625 21.183594 10.359375 21.183594 10.328125 21.152344 C 9.089844 19.386719 8.421875 17.335938 8.421875 15.226562 C 8.453125 9.519531 13.15625 4.914062 18.875 4.914062 Z M 18.875 9.046875 C 15.570312 9.046875 12.867188 11.628906 12.867188 14.816406 C 12.867188 18 15.570312 20.617188 18.875 20.617188 C 22.175781 20.617188 24.878906 18.03125 24.878906 14.847656 C 24.878906 11.664062 22.175781 9.046875 18.875 9.046875 Z M 18.875 10.9375 C 21.128906 10.9375 22.972656 12.671875 22.972656 14.816406 C 22.972656 16.960938 21.128906 18.726562 18.875 18.726562 C 16.617188 18.726562 14.773438 16.992188 14.773438 14.847656 C 14.773438 12.703125 16.617188 10.9375 18.875 10.9375 Z M 18.875 10.9375 " />
        </g>
    </g>
</svg>