<svg xmlns="http://www.w3.org/2000/svg" width="30pt" zoomAndPan="magnify" viewBox="0 0 37.5 37.499999" height="30pt">
    <defs>
        <clipPath xml:id="clip1" id="clip1">
            <path d="M 1.035156 6.550781 L 36.285156 6.550781 L 36.285156 31.300781 L 1.035156 31.300781 Z M 1.035156 6.550781 " />
        </clipPath>
        <linearGradient id="gradient1" x1="0%" x2="50%" y1="85.457%" y2="14.543%">
            <stop offset="0%" stop-color="#7284ff" />
            <stop offset="51.945%" stop-color="#854edb" />
            <stop offset="100%" stop-color="#5A77FF" />
        </linearGradient>

    </defs>
    <g xml:id="surface1" id="surface1">
        <g clip-rule="nonzero" clip-path="url(#clip1)">
            <path style=" stroke:none;fill-rule:nonzero;fill:url(#gradient1);fill-opacity:1;" d="M 35.378906 8.003906 C 35.359375 7.980469 35.34375 7.957031 35.320312 7.933594 C 34.597656 7.089844 33.535156 6.554688 32.355469 6.554688 L 4.96875 6.554688 C 3.785156 6.554688 2.722656 7.089844 2.003906 7.933594 C 1.980469 7.957031 1.960938 7.980469 1.945312 8.003906 C 1.378906 8.695312 1.035156 9.589844 1.035156 10.5625 L 1.035156 27.296875 C 1.035156 29.507812 2.800781 31.304688 4.96875 31.304688 L 32.355469 31.304688 C 34.523438 31.304688 36.285156 29.507812 36.285156 27.296875 L 36.285156 10.5625 C 36.285156 9.589844 35.945312 8.699219 35.378906 8.003906 Z M 34.925781 10.5625 L 34.925781 27.296875 C 34.925781 27.609375 34.871094 27.910156 34.773438 28.191406 L 25.515625 18.910156 L 34.71875 9.527344 C 34.851562 9.84375 34.925781 10.195312 34.925781 10.5625 Z M 4.96875 29.917969 C 4.355469 29.917969 3.789062 29.699219 3.347656 29.332031 L 12.769531 19.890625 L 16.390625 23.582031 C 16.996094 24.199219 17.804688 24.539062 18.660156 24.539062 C 19.519531 24.539062 20.328125 24.199219 20.933594 23.582031 L 24.554688 19.890625 L 33.972656 29.332031 C 33.53125 29.699219 32.96875 29.917969 32.355469 29.917969 Z M 2.394531 27.296875 L 2.394531 10.5625 C 2.394531 10.195312 2.46875 9.84375 2.605469 9.527344 L 11.808594 18.910156 L 2.550781 28.191406 C 2.449219 27.910156 2.394531 27.609375 2.394531 27.296875 Z M 32.355469 7.941406 C 32.917969 7.941406 33.4375 8.125 33.863281 8.441406 L 19.972656 22.601562 C 19.621094 22.957031 19.15625 23.15625 18.660156 23.15625 C 18.164062 23.15625 17.699219 22.957031 17.351562 22.601562 L 3.460938 8.441406 C 3.882812 8.125 4.40625 7.941406 4.96875 7.941406 Z M 32.355469 7.941406 " />
        </g>
    </g>
</svg>