<svg xmlns="http://www.w3.org/2000/svg" width="33pt" zoomAndPan="magnify" viewBox="0 0 37.5 37.499999" height="33pt" preserveAspectRatio="xMidYMid meet">
    <defs>
        <clipPath xml:id="clip1" id="clip1">
            <path d="M 1 2 L 37 2 L 37 36.914062 L 1 36.914062 Z M 1 2 " />
        </clipPath>
        <linearGradient id="gradient1" x1="0%" x2="50%" y1="85.457%" y2="14.543%">
            <stop offset="0%" stop-color="#7284ff" />
            <stop offset="51.945%" stop-color="#854edb" />
            <stop offset="100%" stop-color="#5A77FF" />
        </linearGradient>

    </defs>
    <g xml:id="surface1" id="surface1">
        <g clip-rule="nonzero" clip-path="url(#clip1)">
            <path style=" stroke:none;fill-rule:nonzero;fill:url(#gradient1);fill-opacity:1;" d="M 17.25 2.160156 C 9.125 3.050781 2.589844 9.648438 1.707031 17.667969 C 0.648438 26.578125 6.125 34.242188 13.894531 36.734375 L 13.894531 32.636719 C 13.894531 32.636719 13.1875 32.816406 12.304688 32.816406 C 9.832031 32.816406 8.773438 30.675781 8.597656 29.429688 C 8.417969 28.714844 8.066406 28.179688 7.535156 27.648438 C 7.007812 27.46875 6.828125 27.46875 6.828125 27.289062 C 6.828125 26.933594 7.359375 26.933594 7.535156 26.933594 C 8.597656 26.933594 9.480469 28.179688 9.832031 28.714844 C 10.714844 30.140625 11.773438 30.5 12.304688 30.5 C 13.011719 30.5 13.539062 30.320312 13.894531 30.140625 C 14.070312 28.894531 14.601562 27.648438 15.660156 26.933594 C 11.597656 26.042969 8.597656 23.726562 8.597656 19.804688 C 8.597656 17.84375 9.480469 15.882812 10.714844 14.457031 C 10.539062 14.101562 10.363281 13.210938 10.363281 11.964844 C 10.363281 11.25 10.363281 10.179688 10.890625 9.113281 C 10.890625 9.113281 13.363281 9.113281 15.835938 11.429688 C 16.71875 11.074219 17.957031 10.894531 19.191406 10.894531 C 20.425781 10.894531 21.664062 11.074219 22.722656 11.429688 C 25.019531 9.113281 27.667969 9.113281 27.667969 9.113281 C 28.019531 10.179688 28.019531 11.25 28.019531 11.964844 C 28.019531 13.390625 27.84375 14.101562 27.667969 14.457031 C 28.902344 15.882812 29.785156 17.667969 29.785156 19.804688 C 29.785156 23.726562 26.785156 26.042969 22.722656 26.933594 C 23.78125 27.824219 24.488281 29.429688 24.488281 31.03125 L 24.488281 36.914062 C 31.730469 34.597656 36.851562 27.824219 36.851562 19.984375 C 36.851562 9.289062 27.84375 0.914062 17.25 2.160156 Z M 17.25 2.160156 " />
        </g>
    </g>
</svg>