<svg xmlns="http://www.w3.org/2000/svg" width="30pt" zoomAndPan="magnify" viewBox="0 0 37.5 37.499999" height="30pt" preserveAspectRatio="xMidYMid meet">
    <defs>
        <clipPath xml:id="clip1" id="clip1">
            <path d="M 2.042969 2.042969 L 35.792969 2.042969 L 35.792969 35.792969 L 2.042969 35.792969 Z M 2.042969 2.042969 " />
        </clipPath>
        <linearGradient id="gradient1" x1="0%" x2="50%" y1="85.457%" y2="14.543%">
            <stop offset="0%" stop-color="#7284ff" />
            <stop offset="51.945%" stop-color="#854edb" />
            <stop offset="100%" stop-color="#5A77FF" />
        </linearGradient>

    </defs>
    <g xml:id="surface1" id="surface1">
        <g clip-rule="nonzero" clip-path="url(#clip1)">
            <path style=" stroke:none;fill-rule:nonzero;fill:url(#gradient1);fill-opacity:1;" d="M 18.917969 33.117188 C 11.085938 33.117188 4.71875 26.75 4.71875 18.917969 C 4.71875 11.085938 11.085938 4.71875 18.917969 4.71875 C 26.75 4.71875 33.117188 11.085938 33.117188 18.917969 C 33.117188 26.75 26.75 33.117188 18.917969 33.117188 Z M 18.917969 2.042969 C 9.613281 2.042969 2.042969 9.613281 2.042969 18.917969 C 2.042969 28.222656 9.613281 35.792969 18.917969 35.792969 C 28.222656 35.792969 35.792969 28.222656 35.792969 18.917969 C 35.792969 9.613281 28.222656 2.042969 18.917969 2.042969 " />
        </g>
        <path style=" stroke:none;fill-rule:nonzero;fill:url(#gradient1);fill-opacity:1;" d="M 20.242188 20.527344 L 20.242188 8.753906 C 20.242188 8.136719 19.746094 7.636719 19.128906 7.636719 C 18.511719 7.636719 18.015625 8.136719 18.015625 8.753906 L 18.015625 17.664062 L 14.796875 9.347656 C 14.710938 9.117188 14.449219 9.003906 14.222656 9.089844 C 13.992188 9.179688 13.878906 9.4375 13.964844 9.667969 L 18.015625 20.136719 L 18.015625 21.046875 C 18.015625 21.378906 18.160156 21.691406 18.414062 21.902344 L 24.992188 27.402344 C 25.199219 27.578125 25.453125 27.664062 25.707031 27.664062 C 26.027344 27.664062 26.34375 27.527344 26.5625 27.265625 C 26.957031 26.792969 26.894531 26.089844 26.421875 25.691406 L 20.242188 20.527344 " />
    </g>
</svg>