<svg xmlns="http://www.w3.org/2000/svg" xmlns:xlink="http://www.w3.org/1999/xlink" width="30pt" zoomAndPan="magnify" viewBox="0 0 37.5 37.499999" height="30pt" preserveAspectRatio="xMidYMid meet">
    <defs>
        <clipPath xml:id="clip1" id="clip1">
            <path d="M 5.421875 4.007812 L 33.921875 4.007812 L 33.921875 34.007812 L 5.421875 34.007812 Z M 5.421875 4.007812 " />
        </clipPath>
        <linearGradient id="gradient1" x1="0%" x2="50%" y1="85.457%" y2="14.543%">
            <stop offset="0%" stop-color="#7284ff" />
            <stop offset="51.945%" stop-color="#854edb" />
            <stop offset="100%" stop-color="#5A77FF" />
        </linearGradient>

    </defs>
    <g xml:id="surface1" id="surface1">
        <g clip-rule="nonzero" clip-path="url(#clip1)">
            <path style=" stroke:none;fill-rule:nonzero;fill:url(#gradient1);fill-opacity:1;" d="M 15.6875 4.007812 L 15.6875 5.410156 L 8.699219 5.410156 C 7.15625 5.410156 5.902344 6.667969 5.902344 8.214844 L 5.902344 29.242188 C 5.902344 30.789062 7.15625 32.046875 8.699219 32.046875 L 19.542969 32.046875 L 16.746094 29.242188 L 8.699219 29.242188 L 8.699219 8.214844 L 15.6875 8.214844 L 15.6875 9.617188 L 18.484375 9.617188 L 18.484375 8.214844 L 25.472656 8.214844 L 25.472656 26.097656 L 28.269531 23.296875 L 28.269531 8.214844 C 28.269531 6.667969 27.015625 5.410156 25.472656 5.410156 L 18.484375 5.410156 L 18.484375 4.007812 Z M 17.085938 13.820312 C 16.714844 13.820312 16.359375 13.890625 16.015625 14.035156 C 15.671875 14.175781 15.371094 14.378906 15.109375 14.644531 C 14.847656 14.90625 14.644531 15.207031 14.5 15.550781 C 14.359375 15.894531 14.289062 16.253906 14.289062 16.625 C 14.289062 16.996094 14.359375 17.355469 14.5 17.699219 C 14.644531 18.042969 14.847656 18.34375 15.109375 18.609375 C 15.371094 18.871094 15.671875 19.074219 16.015625 19.214844 C 16.359375 19.359375 16.714844 19.429688 17.085938 19.429688 C 17.457031 19.429688 17.8125 19.359375 18.15625 19.214844 C 18.496094 19.074219 18.800781 18.871094 19.0625 18.609375 C 19.324219 18.34375 19.527344 18.042969 19.667969 17.699219 C 19.808594 17.355469 19.878906 16.996094 19.878906 16.625 C 19.878906 16.253906 19.808594 15.894531 19.667969 15.550781 C 19.527344 15.207031 19.324219 14.90625 19.0625 14.644531 C 18.800781 14.378906 18.496094 14.175781 18.15625 14.035156 C 17.8125 13.890625 17.457031 13.820312 17.085938 13.820312 Z M 17.085938 20.832031 C 14.03125 20.832031 11.492188 22.105469 11.492188 23.9375 L 11.492188 25.035156 L 22.675781 25.035156 L 22.675781 23.9375 C 22.675781 22.105469 20.140625 20.832031 17.085938 20.832031 Z M 31.472656 24.046875 L 25.472656 30.0625 L 22.265625 26.847656 L 20.289062 28.832031 L 25.472656 34.027344 L 33.449219 26.027344 Z M 31.472656 24.046875 " />
        </g>
    </g>
</svg>