<?xml version="1.0" encoding="UTF-8"?><svg xmlns="http://www.w3.org/2000/svg" xmlns:xlink="http://www.w3.org/1999/xlink" width="37.5pt" zoomAndPan="magnify" viewBox="0 0 37.5 37.499999" height="37.499999pt" preserveAspectRatio="xMidYMid meet" version="1.2"><defs><clipPath xml:id="clip1" id="clip1"><path d="M 1.070312 1.070312 L 36.320312 1.070312 L 36.320312 36.320312 L 1.070312 36.320312 Z M 1.070312 1.070312 "/></clipPath></defs><g xml:id="surface1" id="surface1"><g clip-rule="nonzero" clip-path="url(#clip1)"><path style="fill:none;stroke-width:2;stroke-linecap:round;stroke-linejoin:round;stroke:rgb(0%,0%,0%);stroke-opacity:1;stroke-miterlimit:10;" d="M 40.001113 0.999558 L 9.997784 0.999558 C 5 0.999558 0.999556 5.000002 0.999556 9.997786 L 0.999556 40.001114 C 0.999556 44.998899 5 48.999342 9.997784 48.999342 L 40.001113 48.999342 C 44.998897 48.999342 48.999341 44.998899 48.999341 40.001114 L 48.999341 9.997786 C 48.999341 5.000002 44.998897 0.999558 40.001113 0.999558 Z M 40.001113 0.999558 " transform="matrix(0.705,0,0,0.705,1.06875,1.068749)"/></g><path style="fill:none;stroke-width:2;stroke-linecap:round;stroke-linejoin:round;stroke:rgb(0%,0%,0%);stroke-opacity:1;stroke-miterlimit:10;" d="M 7.997563 19.001555 L 15.99845 19.001555 L 15.99845 42.001336 L 7.997563 42.001336 Z M 7.997563 19.001555 " transform="matrix(0.705,0,0,0.705,1.06875,1.068749)"/><path style="fill:none;stroke-width:1.976;stroke-linecap:round;stroke-linejoin:round;stroke:rgb(0%,0%,0%);stroke-opacity:1;stroke-miterlimit:10;" d="M 11.998006 16.502663 C 9.598848 16.502663 7.997563 14.801643 7.997563 12.701687 C 7.997563 10.601731 9.598848 9.000446 11.998006 9.000446 C 14.402705 9.000446 15.898716 10.601731 15.99845 12.701687 C 15.99845 14.801643 14.502439 16.502663 11.998006 16.502663 Z M 11.998006 16.502663 " transform="matrix(0.705,0,0,0.705,1.06875,1.068749)"/><path style="fill:none;stroke-width:2;stroke-linecap:round;stroke-linejoin:round;stroke:rgb(0%,0%,0%);stroke-opacity:1;stroke-miterlimit:10;" d="M 42.001334 42.001336 L 34.000447 42.001336 C 34.000447 42.001336 34.000447 29.900271 34.000447 29.002664 C 34.000447 28.099517 33.900713 25.002221 30.498673 25.002221 C 27.501111 25.002221 27.002441 27.900049 27.002441 29.002664 C 27.002441 30.099739 27.002441 42.001336 27.002441 42.001336 L 19.001553 42.001336 L 19.001553 19.001555 L 27.002441 19.001555 L 27.002441 22.098851 C 27.002441 22.098851 28.598186 19.001555 33.302309 19.001555 C 38.100625 19.001555 42.001334 22.29832 42.001334 29.002664 Z M 42.001334 42.001336 " transform="matrix(0.705,0,0,0.705,1.06875,1.068749)"/></g></svg>