<svg xmlns="http://www.w3.org/2000/svg" width="30pt" zoomAndPan="magnify" viewBox="0 0 37.5 37.499999" height="30pt" preserveAspectRatio="xMidYMid meet">
    <defs>
        <linearGradient id="gradient1" x1="0%" x2="50%" y1="85.457%" y2="14.543%">
            <stop offset="0%" stop-color="#7284ff" />
            <stop offset="51.945%" stop-color="#854edb" />
            <stop offset="100%" stop-color="#5A77FF" />
        </linearGradient>
        <clipPath xml:id="clip1" id="clip1">
            <path d="M 1.136719 1.425781 L 36 1.425781 L 36 35.925781 L 1.136719 35.925781 Z M 1.136719 1.425781 " />
        </clipPath>
    </defs>
    <g xml:id="surface1" id="surface1">
        <g clip-rule="nonzero" clip-path="url(#clip1)">
            <path style=" stroke:none;fill-rule:nonzero;fill:url(#gradient1);fill-opacity:1;" d="M 35.222656 28 C 34.367188 27.023438 30.316406 22.988281 29.941406 22.617188 C 29.757812 22.402344 28.882812 21.496094 27.660156 21.496094 C 27.109375 21.496094 26.585938 21.679688 26.105469 22.035156 C 25.210938 22.699219 23.796875 23.972656 23.003906 24.699219 C 22.03125 24.160156 19.890625 22.925781 18.507812 21.792969 C 16.480469 20.136719 14.671875 17.980469 12.996094 15.242188 L 12.53125 14.363281 C 13.398438 13.425781 14.632812 12.0625 15.28125 11.199219 C 16.484375 9.59375 15.441406 8.015625 14.695312 7.378906 C 14.308594 6.992188 10.269531 2.976562 9.285156 2.125 C 8.742188 1.652344 8.078125 1.40625 7.359375 1.40625 C 6.777344 1.40625 6.355469 1.570312 6.273438 1.601562 L 5.910156 1.820312 C 3.839844 3.144531 1.492188 4.644531 1.359375 10.535156 C 1.351562 16.480469 6.058594 22.28125 9.972656 26.070312 C 14.078125 30.550781 20.324219 35.890625 26.757812 35.890625 L 26.789062 35.890625 C 32.695312 35.753906 34.203125 33.417969 35.53125 31.359375 L 35.683594 31.125 L 35.75 30.996094 C 36.003906 30.398438 36.179688 29.089844 35.222656 28 Z M 34.25 30.316406 L 34.148438 30.476562 C 32.878906 32.441406 31.785156 34.140625 26.769531 34.253906 L 26.757812 35.070312 L 26.757812 34.253906 C 20.617188 34.253906 14.367188 28.4375 11.15625 24.933594 C 7.433594 21.332031 2.996094 15.910156 3 10.554688 C 3.117188 5.550781 4.824219 4.460938 6.800781 3.195312 L 6.957031 3.097656 C 7.03125 3.074219 7.179688 3.039062 7.363281 3.039062 C 7.683594 3.039062 7.960938 3.144531 8.207031 3.359375 C 9.175781 4.195312 13.515625 8.511719 13.558594 8.554688 L 13.613281 8.605469 C 13.710938 8.6875 14.558594 9.429688 13.964844 10.21875 C 13.453125 10.90625 12.355469 12.15625 10.929688 13.675781 L 10.53125 14.101562 L 11.570312 16.046875 C 13.363281 18.988281 15.292969 21.277344 17.464844 23.054688 C 19.417969 24.652344 22.605469 26.347656 22.742188 26.421875 L 23.257812 26.695312 L 23.6875 26.296875 C 24.070312 25.945312 26.027344 24.132812 27.089844 23.347656 C 27.28125 23.203125 27.46875 23.132812 27.660156 23.132812 C 28.121094 23.132812 28.578125 23.542969 28.710938 23.695312 L 28.761719 23.75 C 28.804688 23.792969 33.144531 28.113281 33.984375 29.074219 C 34.425781 29.582031 34.304688 30.144531 34.25 30.316406 Z M 34.25 30.316406 " />
        </g>
    </g>
</svg>