<svg width="62" height="63" viewBox="0 0 62 63" fill="none" xmlns="http://www.w3.org/2000/svg">
<path d="M54.25 11.8125H7.75C6.72229 11.8125 5.73666 12.2273 5.00996 12.9658C4.28326 13.7042 3.875 14.7057 3.875 15.75V47.25C3.875 48.2943 4.28326 49.2958 5.00996 50.0342C5.73666 50.7727 6.72229 51.1875 7.75 51.1875H54.25C55.2777 51.1875 56.2633 50.7727 56.99 50.0342C57.7167 49.2958 58.125 48.2943 58.125 47.25V15.75C58.125 14.7057 57.7167 13.7042 56.99 12.9658C56.2633 12.2273 55.2777 11.8125 54.25 11.8125ZM49.9875 15.75L31 29.0981L12.0125 15.75H49.9875ZM7.75 47.25V17.5416L29.8956 33.1144C30.22 33.343 30.6053 33.4655 31 33.4655C31.3947 33.4655 31.78 33.343 32.1044 33.1144L54.25 17.5416V47.25H7.75Z" fill="#A4A4A4"/>
</svg>
