<svg width="57" height="57" viewBox="0 0 57 57" fill="none" xmlns="http://www.w3.org/2000/svg">
<path d="M42.75 0H23.1562C22.1543 0 21.3101 0.343262 20.6235 1.02979C19.937 1.71631 19.5938 2.56055 19.5938 3.5625H39.1875V17.8125H53.4375V46.3125H40.9688V49.875H53.4375C54.4395 49.875 55.2837 49.5317 55.9702 48.8452C56.6567 48.1587 57 47.3145 57 46.3125V14.25L42.75 0ZM42.75 14.25V5.00977L51.9346 14.25H42.75ZM3.5625 7.125C2.56055 7.125 1.71631 7.46826 1.02979 8.15479C0.343262 8.84131 0 9.68555 0 10.6875V53.4375C0 54.4395 0.343262 55.2837 1.02979 55.9702C1.71631 56.6567 2.56055 57 3.5625 57H33.8438C34.8457 57 35.6899 56.6567 36.3765 55.9702C37.063 55.2837 37.4062 54.4395 37.4062 53.4375V21.375L23.1562 7.125H3.5625ZM33.8438 53.4375H3.5625V10.6875H19.5938V24.9375H33.8438V53.4375ZM23.1562 21.375V12.1348L32.3408 21.375H23.1562Z" fill="#A4A4A4"/>
</svg>
