<?xml version="1.0" encoding="UTF-8"?>
<svg xmlns="http://www.w3.org/2000/svg" xmlns:xlink="http://www.w3.org/1999/xlink" width="226.5" zoomAndPan="magnify" viewBox="0 0 226.5 184.499994" height="184.499994" preserveAspectRatio="xMidYMid meet" version="1.0">
    <defs>
        <clipPath id="clip-0">
            <path d="M 29.953125 2 L 121 2 L 121 93 L 29.953125 93 Z M 29.953125 2 " clip-rule="nonzero" />
        </clipPath>
        <clipPath id="clip-1">
            <path d="M 92 64 L 197.117188 64 L 197.117188 170 L 92 170 Z M 92 64 " clip-rule="nonzero" />
        </clipPath>
        <linearGradient id="gradient1" x1="0%" x2="50%" y1="85.457%" y2="14.543%">
            <stop offset="0%" stop-color="#7284ff" />
            <stop offset="51.945%" stop-color="#854edb" />
            <stop offset="100%" stop-color="#5A77FF" />
        </linearGradient>

    </defs>
    <path fill="url(#gradient1)" d="M 104.808594 58.835938 C 142.246094 58.835938 195.578125 89.785156 195.578125 122.675781 C 195.578125 155.566406 118.089844 181.78125 101.8125 139.804688 C 94.28125 120.382812 55.605469 58.835938 104.808594 58.835938 Z M 104.808594 58.835938 " fill-opacity="1" fill-rule="nonzero" />
    <g clip-path="url(#clip-0)">
        <path fill="white" d="M 66.136719 92.785156 C 63.203125 92.785156 60.535156 90.949219 59.5 88.214844 L 30.433594 12.039062 C 30.132812 11.378906 29.953125 10.46875 29.953125 9.488281 C 29.953125 5.574219 33.140625 2.386719 37.0625 2.386719 C 38.046875 2.386719 38.949219 2.570312 39.78125 2.929688 L 115.929688 31.890625 C 118.660156 32.929688 120.5 35.585938 120.5 38.511719 C 120.5 41.59375 118.527344 44.304688 115.589844 45.269531 L 83.4375 55.785156 L 72.90625 87.882812 C 71.9375 90.816406 69.230469 92.785156 66.136719 92.785156 Z M 37.140625 9.363281 L 66.011719 85.746094 L 77.363281 51.945312 C 77.710938 50.894531 78.542969 50.0625 79.59375 49.722656 L 113.535156 38.511719 C 113.535156 38.414062 113.457031 38.386719 113.457031 38.386719 Z M 37.140625 9.363281 " fill-opacity="1" fill-rule="nonzero" />
    </g>
    <g clip-path="url(#clip-1)">
        <path fill="white" d="M 144.878906 169.273438 C 116.070312 169.273438 92.640625 145.878906 92.640625 117.121094 C 92.640625 88.359375 116.070312 64.96875 144.878906 64.96875 C 173.6875 64.96875 197.117188 88.359375 197.117188 117.121094 C 197.117188 145.878906 173.6875 169.273438 144.878906 169.273438 Z M 144.878906 71.921875 C 119.914062 71.921875 99.605469 92.199219 99.605469 117.121094 C 99.605469 142.042969 119.914062 162.320312 144.878906 162.320312 C 169.84375 162.320312 190.152344 142.042969 190.152344 117.121094 C 190.152344 92.199219 169.84375 71.921875 144.878906 71.921875 Z M 144.878906 71.921875 " fill-opacity="1" fill-rule="nonzero" />
    </g>
    <path fill="#29282e" d="M 144.878906 141.457031 C 142.957031 141.457031 141.394531 139.902344 141.394531 137.980469 L 141.394531 110.167969 C 141.394531 108.25 142.957031 106.691406 144.878906 106.691406 C 146.800781 106.691406 148.359375 108.25 148.359375 110.167969 L 148.359375 137.980469 C 148.359375 139.902344 146.800781 141.457031 144.878906 141.457031 Z M 144.878906 141.457031 " fill-opacity="1" fill-rule="nonzero" />
    <path fill="#29282e" d="M 158.808594 141.457031 L 130.949219 141.457031 C 129.027344 141.457031 127.464844 139.902344 127.464844 137.980469 C 127.464844 136.0625 129.027344 134.503906 130.949219 134.503906 L 158.808594 134.503906 C 160.730469 134.503906 162.292969 136.0625 162.292969 137.980469 C 162.292969 139.902344 160.730469 141.457031 158.808594 141.457031 Z M 158.808594 141.457031 " fill-opacity="1" fill-rule="nonzero" />
    <path fill="#29282e" d="M 144.878906 113.644531 L 130.949219 113.644531 C 129.027344 113.644531 127.464844 112.085938 127.464844 110.167969 C 127.464844 108.25 129.027344 106.691406 130.949219 106.691406 L 144.878906 106.691406 C 146.800781 106.691406 148.359375 108.25 148.359375 110.167969 C 148.359375 112.085938 146.800781 113.644531 144.878906 113.644531 Z M 144.878906 113.644531 " fill-opacity="1" fill-rule="nonzero" />
    <path fill="#29282e" d="M 144.878906 99.738281 C 141.035156 99.738281 137.914062 96.621094 137.914062 92.785156 C 137.914062 88.945312 141.035156 85.832031 144.878906 85.832031 C 148.722656 85.832031 151.84375 88.945312 151.84375 92.785156 C 151.84375 96.621094 148.722656 99.738281 144.878906 99.738281 Z M 144.878906 92.777344 L 148.359375 92.785156 Z M 144.878906 92.777344 " fill-opacity="1" fill-rule="nonzero" />
</svg>