<?xml version="1.0" encoding="UTF-8"?><svg xmlns="http://www.w3.org/2000/svg" xmlns:xlink="http://www.w3.org/1999/xlink" width="75" zoomAndPan="magnify" viewBox="0 0 75 74.999997" height="74.999997" preserveAspectRatio="xMidYMid meet" version="1.0"><defs><clipPath id="clip-0"><path d="M 30 1.648438 L 45 1.648438 L 45 16 L 30 16 Z M 30 1.648438 " clip-rule="nonzero"/></clipPath><clipPath id="clip-1"><path d="M 16 17 L 58.695312 17 L 58.695312 73.648438 L 16 73.648438 Z M 16 17 " clip-rule="nonzero"/></clipPath></defs><g clip-path="url(#clip-0)"><path fill="rgb(0%, 0%, 0%)" d="M 37.328125 15.289062 C 41.050781 15.289062 44.066406 12.234375 44.066406 8.46875 C 44.066406 4.699219 41.050781 1.648438 37.328125 1.648438 C 33.609375 1.648438 30.589844 4.699219 30.589844 8.46875 C 30.589844 12.234375 33.609375 15.289062 37.328125 15.289062 Z M 41.53125 10.738281 C 40.660156 12.167969 39.105469 13.125 37.328125 13.125 C 35.554688 13.125 33.996094 12.167969 33.125 10.738281 Z M 41.53125 10.738281 " fill-opacity="1" fill-rule="nonzero"/></g><g clip-path="url(#clip-1)"><path fill="rgb(0%, 0%, 0%)" d="M 17.269531 36.167969 C 17.886719 36.277344 19.171875 36.46875 20.625 36.46875 C 22.382812 36.46875 24.386719 36.1875 25.746094 35.140625 C 26.707031 34.402344 27.273438 33.382812 27.382812 32.195312 C 27.75 28.339844 28.472656 25.851562 29.230469 24.28125 L 29.230469 37.734375 L 26.675781 69.441406 C 26.511719 71.503906 28.027344 73.3125 30.066406 73.480469 C 32.101562 73.648438 33.890625 72.113281 34.054688 70.050781 L 36.28125 42.4375 L 38.375 42.4375 L 40.601562 70.050781 C 40.765625 72.113281 42.554688 73.648438 44.589844 73.480469 C 46.628906 73.3125 48.144531 71.503906 47.980469 69.441406 L 45.425781 37.730469 L 45.425781 24.28125 C 46.183594 25.851562 46.90625 28.339844 47.273438 32.195312 C 47.386719 33.382812 47.953125 34.402344 48.910156 35.140625 C 50.269531 36.1875 52.273438 36.46875 54.035156 36.46875 C 55.484375 36.46875 56.773438 36.277344 57.386719 36.167969 C 58.691406 35.933594 57.859375 31.160156 56.558594 31.390625 C 56.132812 31.464844 55.6875 31.519531 55.246094 31.554688 L 55.535156 30.015625 C 55.542969 29.640625 55.246094 29.328125 54.875 29.320312 C 54.503906 29.3125 54.195312 29.613281 54.1875 29.988281 L 53.890625 31.550781 L 53.898438 31.605469 C 53.085938 31.601562 52.390625 31.523438 52.007812 31.378906 C 51.359375 25.019531 49.660156 20.683594 46.957031 18.484375 C 45.09375 16.964844 43.363281 16.972656 42.847656 17.015625 L 31.808594 17.015625 C 31.292969 16.972656 29.5625 16.964844 27.699219 18.484375 C 24.996094 20.683594 23.296875 25.019531 22.652344 31.378906 C 22.265625 31.523438 21.570312 31.601562 20.757812 31.605469 L 20.765625 31.550781 L 20.472656 29.988281 C 20.460938 29.613281 20.152344 29.3125 19.78125 29.320312 C 19.414062 29.328125 19.117188 29.640625 19.125 30.015625 L 19.410156 31.554688 C 18.96875 31.519531 18.523438 31.464844 18.101562 31.390625 C 16.796875 31.160156 15.964844 35.933594 17.269531 36.167969 Z M 41.273438 23.832031 C 42.464844 22.609375 43.871094 21.363281 45.507812 20.253906 C 45.507812 20.253906 46.285156 19.84375 45.535156 20.546875 C 44.835938 21.203125 43.4375 22.640625 41.949219 24.421875 C 43.164062 25.628906 43.914062 27.3125 43.914062 29.171875 C 43.914062 32.855469 40.964844 35.84375 37.328125 35.84375 C 33.691406 35.84375 30.742188 32.855469 30.742188 29.171875 C 30.742188 25.488281 33.691406 22.503906 37.328125 22.503906 C 38.808594 22.503906 40.175781 22.996094 41.273438 23.832031 Z M 41.273438 23.832031 " fill-opacity="1" fill-rule="nonzero"/></g><path fill="rgb(0%, 0%, 0%)" d="M 36.09375 29.980469 C 35.839844 29.238281 34.65625 27.089844 34.207031 27.117188 C 33.753906 27.144531 32.515625 28.144531 32.515625 28.144531 C 32.515625 28.144531 33.933594 27.945312 35.117188 32.648438 C 35.316406 33.433594 36.433594 34.054688 36.867188 32.628906 C 37.660156 30 39.890625 26.882812 41.949219 24.421875 C 41.738281 24.210938 41.511719 24.011719 41.273438 23.832031 C 37.917969 27.28125 36.28125 30.53125 36.09375 29.980469 Z M 36.09375 29.980469 " fill-opacity="1" fill-rule="nonzero"/></svg>