<?xml version="1.0" encoding="UTF-8"?><svg xmlns="http://www.w3.org/2000/svg" xmlns:xlink="http://www.w3.org/1999/xlink" width="75" zoomAndPan="magnify" viewBox="0 0 75 74.999997" height="74.999997" preserveAspectRatio="xMidYMid meet" version="1.0"><defs><clipPath id="clip-0"><path d="M 29 1.566406 L 43 1.566406 L 43 10 L 29 10 Z M 29 1.566406 " clip-rule="nonzero"/></clipPath><clipPath id="clip-1"><path d="M 21.328125 16 L 53.578125 16 L 53.578125 73.566406 L 21.328125 73.566406 Z M 21.328125 16 " clip-rule="nonzero"/></clipPath></defs><path fill="rgb(0%, 0%, 0%)" d="M 50.386719 26.195312 L 49.984375 26.761719 L 46.890625 23.832031 C 45.929688 22.921875 44.417969 22.964844 43.511719 23.929688 C 42.605469 24.894531 42.648438 26.414062 43.609375 27.324219 L 47.179688 30.707031 L 48.464844 31.925781 C 48.480469 31.9375 48.492188 31.949219 48.507812 31.960938 C 48.542969 31.996094 48.582031 32.027344 48.621094 32.058594 C 48.644531 32.078125 48.671875 32.097656 48.699219 32.117188 C 48.730469 32.140625 48.761719 32.160156 48.792969 32.183594 C 48.824219 32.203125 48.855469 32.222656 48.886719 32.242188 C 48.914062 32.257812 48.945312 32.273438 48.972656 32.289062 C 49.007812 32.308594 49.042969 32.328125 49.078125 32.34375 C 49.105469 32.359375 49.136719 32.371094 49.164062 32.382812 C 49.199219 32.398438 49.234375 32.414062 49.269531 32.425781 C 49.304688 32.441406 49.339844 32.449219 49.375 32.460938 C 49.40625 32.472656 49.4375 32.484375 49.46875 32.492188 C 49.515625 32.503906 49.5625 32.515625 49.609375 32.523438 C 49.628906 32.53125 49.652344 32.535156 49.675781 32.539062 C 49.742188 32.550781 49.8125 32.5625 49.878906 32.570312 C 49.882812 32.570312 49.882812 32.570312 49.886719 32.570312 C 49.957031 32.574219 50.03125 32.578125 50.101562 32.578125 C 50.179688 32.578125 50.257812 32.574219 50.335938 32.566406 C 50.375 32.5625 50.410156 32.558594 50.445312 32.550781 C 50.484375 32.546875 50.523438 32.542969 50.5625 32.535156 C 50.5625 32.535156 50.566406 32.535156 50.566406 32.535156 C 50.625 32.523438 50.683594 32.507812 50.742188 32.492188 C 50.761719 32.484375 50.78125 32.480469 50.804688 32.476562 C 50.851562 32.460938 50.894531 32.441406 50.941406 32.425781 C 50.96875 32.414062 51 32.40625 51.03125 32.394531 C 51.0625 32.378906 51.09375 32.363281 51.125 32.347656 C 51.164062 32.328125 51.207031 32.308594 51.246094 32.289062 C 51.273438 32.273438 51.292969 32.257812 51.320312 32.246094 C 51.363281 32.21875 51.410156 32.191406 51.453125 32.160156 C 51.476562 32.148438 51.496094 32.128906 51.515625 32.113281 C 51.558594 32.082031 51.605469 32.050781 51.644531 32.011719 C 51.667969 31.996094 51.683594 31.976562 51.703125 31.960938 C 51.746094 31.921875 51.785156 31.886719 51.824219 31.847656 C 51.832031 31.839844 51.835938 31.832031 51.84375 31.828125 C 51.859375 31.808594 51.871094 31.792969 51.886719 31.777344 C 51.917969 31.742188 51.949219 31.707031 51.976562 31.667969 C 52 31.640625 52.023438 31.609375 52.042969 31.582031 C 52.066406 31.546875 52.089844 31.515625 52.109375 31.484375 C 52.132812 31.449219 52.152344 31.414062 52.175781 31.375 C 52.191406 31.34375 52.210938 31.316406 52.226562 31.28125 C 52.246094 31.246094 52.265625 31.207031 52.28125 31.167969 C 52.296875 31.136719 52.308594 31.101562 52.324219 31.070312 C 52.339844 31.03125 52.351562 30.996094 52.363281 30.957031 C 52.378906 30.921875 52.390625 30.882812 52.402344 30.84375 C 52.410156 30.808594 52.417969 30.777344 52.429688 30.742188 C 52.4375 30.699219 52.445312 30.65625 52.453125 30.613281 C 52.460938 30.582031 52.464844 30.550781 52.46875 30.515625 C 52.476562 30.472656 52.480469 30.425781 52.484375 30.378906 C 52.488281 30.347656 52.488281 30.316406 52.492188 30.285156 C 52.492188 30.238281 52.496094 30.195312 52.496094 30.148438 C 52.492188 30.113281 52.492188 30.078125 52.488281 30.042969 C 52.488281 30.003906 52.484375 29.960938 52.480469 29.917969 C 52.476562 29.878906 52.46875 29.839844 52.464844 29.796875 C 52.460938 29.773438 52.457031 29.746094 52.453125 29.722656 C 52.40625 29.476562 51.804688 26.5 50.199219 23.429688 L 49.109375 24.984375 Z M 50.386719 26.195312 " fill-opacity="1" fill-rule="nonzero"/><path fill="rgb(0%, 0%, 0%)" d="M 40.820312 11.597656 C 39.546875 11.710938 38.421875 10.765625 38.308594 9.488281 C 38.308594 9.460938 38.308594 9.4375 38.304688 9.414062 L 37.332031 9.5 C 37.335938 9.523438 37.339844 9.546875 37.34375 9.574219 C 37.457031 10.851562 36.515625 11.984375 35.242188 12.097656 C 33.96875 12.210938 32.84375 11.265625 32.730469 9.984375 C 32.726562 9.960938 32.726562 9.9375 32.726562 9.910156 L 29.664062 10.183594 C 30.46875 13.007812 33.054688 15.070312 36.125 15.070312 C 38.96875 15.070312 41.398438 13.292969 42.382812 10.785156 C 42 11.234375 41.453125 11.542969 40.820312 11.597656 Z M 40.820312 11.597656 " fill-opacity="1" fill-rule="nonzero"/><g clip-path="url(#clip-0)"><path fill="rgb(0%, 0%, 0%)" d="M 34.832031 7.464844 C 35.828125 7.375 36.734375 7.9375 37.132812 8.800781 L 38.378906 8.691406 C 38.621094 7.769531 39.410156 7.054688 40.410156 6.964844 C 41.410156 6.875 42.316406 7.4375 42.714844 8.300781 L 42.84375 8.289062 C 42.832031 4.574219 39.828125 1.566406 36.125 1.566406 C 32.410156 1.566406 29.402344 4.589844 29.402344 8.316406 C 29.402344 8.714844 29.4375 9.105469 29.503906 9.484375 L 32.796875 9.1875 C 33.039062 8.269531 33.832031 7.550781 34.832031 7.464844 Z M 34.832031 7.464844 " fill-opacity="1" fill-rule="nonzero"/></g><path fill="rgb(0%, 0%, 0%)" d="M 40.773438 11.039062 C 41.738281 10.953125 42.449219 10.09375 42.363281 9.125 C 42.277344 8.15625 41.425781 7.4375 40.460938 7.523438 C 39.496094 7.613281 38.78125 8.46875 38.867188 9.4375 C 38.953125 10.40625 39.804688 11.125 40.773438 11.039062 Z M 40.773438 11.039062 " fill-opacity="1" fill-rule="nonzero"/><path fill="rgb(0%, 0%, 0%)" d="M 35.191406 11.535156 C 36.15625 11.449219 36.871094 10.59375 36.785156 9.625 C 36.699219 8.652344 35.847656 7.9375 34.878906 8.023438 C 33.914062 8.109375 33.203125 8.964844 33.289062 9.9375 C 33.375 10.90625 34.226562 11.621094 35.191406 11.535156 Z M 35.191406 11.535156 " fill-opacity="1" fill-rule="nonzero"/><g clip-path="url(#clip-1)"><path fill="rgb(0%, 0%, 0%)" d="M 24.308594 36.25 C 24.949219 36.988281 25.566406 37.707031 26.035156 38.480469 L 29.765625 35.4375 C 29.160156 34.542969 28.5 33.773438 27.921875 33.101562 C 27.261719 32.335938 26.355469 31.289062 26.402344 30.871094 C 26.886719 26.496094 27.851562 24.015625 28.753906 22.679688 L 29.363281 23.003906 C 28.828125 23.789062 28.210938 25.109375 27.714844 27.203125 L 27.714844 31.785156 C 27.976562 32.113281 28.265625 32.445312 28.441406 32.648438 C 29.023438 33.328125 29.691406 34.097656 30.304688 35 L 30.785156 34.605469 C 30.785156 34.605469 30.957031 34.816406 31.210938 35.152344 L 24.90625 40.292969 C 24.90625 40.292969 25.71875 44.242188 27.714844 46.34375 L 27.714844 69.863281 C 27.714844 71.910156 29.367188 73.574219 31.410156 73.574219 C 33.449219 73.574219 35.101562 71.910156 35.101562 69.863281 L 35.101562 41.695312 L 36.445312 41.695312 L 38.433594 46.339844 L 40.832031 51.945312 L 35.789062 58.40625 L 35.789062 69.863281 C 35.789062 71.375 35.023438 72.714844 33.859375 73.507812 C 33.863281 73.507812 33.863281 73.507812 33.863281 73.507812 C 35.882812 73.507812 37.523438 71.859375 37.523438 69.828125 L 37.523438 68.097656 L 47.933594 54.765625 C 48.761719 53.707031 48.945312 52.28125 48.417969 51.042969 L 44.402344 41.667969 L 43.746094 40.136719 C 43.828125 39.898438 43.875 39.640625 43.875 39.375 L 43.875 29.628906 L 35.734375 28.21875 L 36.929688 26.945312 L 37.070312 26.761719 L 36.367188 25.867188 L 43.28125 17.039062 C 43.710938 16.972656 45.546875 16.855469 48.96875 18.703125 L 49.445312 18.957031 L 49.496094 18.417969 C 49.523438 18.136719 50.136719 17.515625 50.738281 17.054688 C 50.976562 17.144531 51.417969 17.320312 51.808594 17.53125 L 50.101562 19.832031 L 44.285156 18.503906 L 37.347656 27.582031 L 44.125 28.757812 L 43.136719 27.824219 C 42.539062 27.257812 42.199219 26.492188 42.175781 25.667969 C 42.148438 24.839844 42.449219 24.054688 43.011719 23.457031 C 43.589844 22.839844 44.40625 22.484375 45.25 22.484375 C 46.039062 22.484375 46.789062 22.785156 47.363281 23.328125 L 48.449219 24.359375 L 53.519531 17.148438 L 52.804688 16.875 L 52.539062 16.773438 L 52.363281 17.015625 C 51.695312 16.621094 50.835938 16.324219 50.796875 16.308594 L 50.621094 16.25 L 50.472656 16.355469 C 50.253906 16.511719 49.332031 17.195312 48.949219 17.875 C 44.945312 15.804688 43.054688 16.339844 42.972656 16.367188 L 42.867188 16.398438 L 42.617188 16.714844 C 42.515625 16.691406 42.40625 16.671875 42.300781 16.652344 C 42.070312 16.574219 41.824219 16.53125 41.566406 16.53125 L 31.042969 16.53125 C 30.980469 16.515625 30.914062 16.503906 30.851562 16.496094 C 30.503906 16.453125 28.679688 16.324219 26.695312 17.902344 C 25.878906 18.550781 25.15625 19.394531 24.523438 20.425781 C 23.085938 22.769531 22.121094 26.085938 21.652344 30.34375 C 21.375 32.847656 22.933594 34.652344 24.308594 36.25 Z M 24.308594 36.25 " fill-opacity="1" fill-rule="nonzero"/></g></svg>