<?xml version="1.0" encoding="UTF-8"?><svg xmlns="http://www.w3.org/2000/svg" xmlns:xlink="http://www.w3.org/1999/xlink" width="75" zoomAndPan="magnify" viewBox="0 0 75 74.999997" height="74.999997" preserveAspectRatio="xMidYMid meet" version="1.0"><defs><clipPath id="clip-0"><path d="M 18.191406 19 L 48 19 L 48 74.398438 L 18.191406 74.398438 Z M 18.191406 19 " clip-rule="nonzero"/></clipPath><clipPath id="clip-1"><path d="M 31 0.898438 L 38 0.898438 L 38 8 L 31 8 Z M 31 0.898438 " clip-rule="nonzero"/></clipPath><clipPath id="clip-2"><path d="M 48 14 L 56.441406 14 L 56.441406 24 L 48 24 Z M 48 14 " clip-rule="nonzero"/></clipPath></defs><g clip-path="url(#clip-0)"><path fill="rgb(0%, 0%, 0%)" d="M 43.957031 33.90625 C 40.742188 30.570312 39.171875 29.828125 38.082031 29.691406 C 37.972656 29.671875 37.863281 29.703125 37.75 29.703125 L 28.609375 29.703125 C 28.542969 29.703125 28.480469 29.664062 28.417969 29.667969 C 28.289062 29.664062 28.15625 29.652344 28.023438 29.679688 L 23.589844 30.5 L 26.707031 24.160156 C 26.996094 23.570312 25.792969 22.679688 24.730469 22.324219 L 25.175781 21.480469 L 27.402344 20.914062 C 27.722656 20.832031 27.914062 20.507812 27.835938 20.1875 C 27.753906 19.863281 27.433594 19.667969 27.117188 19.75 L 24.632812 20.378906 C 24.472656 20.421875 24.332031 20.53125 24.253906 20.679688 L 23.363281 22.378906 C 23.347656 22.398438 23.332031 22.417969 23.320312 22.441406 L 23.210938 22.664062 L 23.125 22.828125 C 23.113281 22.851562 23.105469 22.871094 23.097656 22.894531 L 18.511719 32.222656 C 18.191406 32.875 18.261719 33.652344 18.691406 34.234375 C 19.054688 34.71875 19.617188 35 20.203125 35 C 20.316406 35 20.433594 34.988281 20.550781 34.964844 L 26.785156 33.792969 L 26.785156 46 L 24.765625 71.078125 C 24.632812 72.710938 25.832031 74.140625 27.441406 74.273438 C 29.050781 74.40625 30.460938 73.136719 30.59375 71.503906 L 32.351562 49.605469 L 34.007812 49.605469 L 35.765625 71.503906 C 35.894531 73.136719 37.308594 74.378906 38.917969 74.246094 C 40.527344 74.113281 41.726562 72.695312 41.59375 71.066406 L 39.820312 49.011719 C 40.335938 48.972656 40.832031 48.726562 41.175781 48.277344 L 47.40625 40.125 C 47.949219 39.417969 47.929688 38.417969 47.363281 37.726562 C 47.300781 37.648438 45.777344 35.792969 43.957031 33.90625 Z M 39.558594 44.109375 L 39.558594 34.953125 C 40.742188 35.984375 42.089844 37.441406 43.453125 39.011719 Z M 39.558594 44.109375 " fill-opacity="1" fill-rule="nonzero"/></g><path fill="rgb(0%, 0%, 0%)" d="M 50.394531 20.90625 C 49.871094 20.90625 49.445312 21.335938 49.445312 21.867188 C 49.445312 22.058594 49.503906 22.234375 49.601562 22.386719 C 49.019531 22.929688 48.050781 23.617188 46.820312 23.664062 C 45.320312 23.71875 43.796875 22.820312 42.296875 20.992188 C 40.875 19.265625 39.402344 18.457031 37.925781 18.617188 C 36.140625 18.8125 34.808594 20.351562 34.128906 21.3125 L 34.722656 21.3125 C 35.398438 20.351562 36.542969 19.25 37.976562 19.09375 C 39.285156 18.953125 40.621094 19.699219 41.933594 21.292969 C 43.484375 23.183594 45.085938 24.140625 46.691406 24.140625 C 46.742188 24.140625 46.792969 24.140625 46.84375 24.140625 C 48.25 24.085938 49.328125 23.3125 49.957031 22.710938 C 50.085938 22.78125 50.234375 22.824219 50.394531 22.824219 C 50.914062 22.824219 51.339844 22.394531 51.339844 21.867188 C 51.339844 21.335938 50.914062 20.90625 50.394531 20.90625 Z M 50.394531 22.34375 C 50.132812 22.34375 49.917969 22.128906 49.917969 21.867188 C 49.917969 21.601562 50.132812 21.386719 50.394531 21.386719 C 50.652344 21.386719 50.867188 21.601562 50.867188 21.867188 C 50.867188 22.128906 50.652344 22.34375 50.394531 22.34375 Z M 50.394531 22.34375 " fill-opacity="1" fill-rule="nonzero"/><path fill="rgb(0%, 0%, 0%)" d="M 36.070312 15.457031 C 37.34375 15.308594 38.769531 15.464844 40.144531 15.609375 C 42.222656 15.832031 44.183594 16.042969 45.199219 15.097656 C 45.496094 14.820312 45.695312 14.46875 45.804688 14.027344 C 46.265625 13.964844 46.625 13.566406 46.625 13.082031 C 46.625 12.554688 46.199219 12.121094 45.679688 12.121094 C 45.15625 12.121094 44.734375 12.554688 44.734375 13.082031 C 44.734375 13.484375 44.980469 13.828125 45.328125 13.972656 C 45.238281 14.289062 45.089844 14.550781 44.878906 14.746094 C 44.019531 15.542969 42.160156 15.347656 40.191406 15.140625 C 38.792969 14.992188 37.339844 14.828125 36.015625 14.980469 C 32.542969 15.386719 32.28125 19.632812 32.308594 21.3125 L 32.78125 21.3125 C 32.75 19.871094 32.96875 15.820312 36.070312 15.457031 Z M 45.207031 13.082031 C 45.207031 12.816406 45.417969 12.601562 45.679688 12.601562 C 45.941406 12.601562 46.152344 12.816406 46.152344 13.082031 C 46.152344 13.347656 45.941406 13.5625 45.679688 13.5625 C 45.417969 13.5625 45.207031 13.347656 45.207031 13.082031 Z M 45.207031 13.082031 " fill-opacity="1" fill-rule="nonzero"/><path fill="rgb(0%, 0%, 0%)" d="M 42.988281 6.042969 C 42.988281 6.890625 43.359375 7.609375 43.945312 8.121094 C 44.3125 8.632812 44.742188 9.320312 44.742188 10.042969 C 44.742188 11.242188 46.734375 11.242188 46.734375 10.042969 C 46.734375 9.320312 47.164062 8.632812 47.53125 8.121094 C 48.117188 7.609375 48.488281 6.871094 48.488281 6.027344 C 48.488281 4.484375 47.257812 3.246094 45.738281 3.246094 C 44.21875 3.246094 42.988281 4.503906 42.988281 6.042969 Z M 45.738281 3.832031 C 46.941406 3.832031 47.921875 4.824219 47.921875 6.042969 C 47.921875 6.6875 47.640625 7.296875 47.160156 7.722656 L 47.109375 7.765625 L 47.070312 7.792969 C 46.863281 8.082031 46.695312 8.363281 46.558594 8.601562 L 44.917969 8.601562 C 44.78125 8.363281 44.613281 8.078125 44.40625 7.792969 L 44.367188 7.75 L 44.316406 7.714844 C 43.832031 7.292969 43.554688 6.683594 43.554688 6.042969 C 43.554688 4.820312 44.535156 3.832031 45.738281 3.832031 Z M 45.738281 3.832031 " fill-opacity="1" fill-rule="nonzero"/><path fill="rgb(0%, 0%, 0%)" d="M 44.34375 6.171875 C 44.429688 6.171875 44.496094 6.101562 44.496094 6.015625 C 44.496094 5.300781 45.070312 4.714844 45.777344 4.714844 C 45.863281 4.714844 45.929688 4.648438 45.929688 4.5625 C 45.929688 4.476562 45.863281 4.40625 45.777344 4.40625 C 44.902344 4.40625 44.191406 5.128906 44.191406 6.015625 C 44.191406 6.101562 44.261719 6.171875 44.34375 6.171875 Z M 44.34375 6.171875 " fill-opacity="1" fill-rule="nonzero"/><path fill="rgb(0%, 0%, 0%)" d="M 30.835938 14.222656 C 31.503906 13.097656 32.613281 12.414062 34.144531 12.1875 C 37.960938 11.613281 40.042969 10.652344 40.332031 9.332031 C 40.5 8.574219 40.050781 7.886719 39.609375 7.417969 C 39.671875 7.289062 39.707031 7.148438 39.707031 6.996094 C 39.707031 6.46875 39.285156 6.039062 38.761719 6.039062 C 38.242188 6.039062 37.816406 6.46875 37.816406 7 C 37.816406 7.527344 38.242188 7.957031 38.761719 7.957031 C 38.960938 7.957031 39.148438 7.894531 39.300781 7.785156 C 39.652344 8.167969 39.988281 8.695312 39.871094 9.230469 C 39.703125 9.992188 38.5625 11.042969 34.074219 11.71875 C 32.398438 11.96875 31.171875 12.722656 30.429688 13.976562 C 29.042969 16.332031 29.71875 19.871094 30.144531 21.3125 L 30.640625 21.3125 C 30.242188 19.871094 29.515625 16.464844 30.835938 14.222656 Z M 38.289062 7 C 38.289062 6.734375 38.5 6.519531 38.761719 6.519531 C 39.023438 6.519531 39.234375 6.734375 39.234375 7 C 39.234375 7.261719 39.023438 7.476562 38.761719 7.476562 C 38.5 7.476562 38.289062 7.261719 38.289062 7 Z M 38.289062 7 " fill-opacity="1" fill-rule="nonzero"/><g clip-path="url(#clip-1)"><path fill="rgb(0%, 0%, 0%)" d="M 37.902344 4.285156 L 37.902344 3.808594 L 37.375 3.808594 C 37.367188 3.808594 37.355469 3.652344 37.34375 3.578125 L 37.824219 3.449219 L 37.703125 2.988281 L 37.222656 3.117188 C 37.195312 3.046875 37.167969 2.976562 37.136719 2.90625 L 37.566406 2.652344 L 37.332031 2.242188 L 36.902344 2.492188 C 36.859375 2.429688 36.8125 2.371094 36.765625 2.3125 L 37.117188 1.957031 L 36.785156 1.617188 L 36.433594 1.972656 C 36.375 1.925781 36.316406 1.878906 36.253906 1.835938 L 36.503906 1.398438 L 36.09375 1.160156 L 35.847656 1.597656 C 35.777344 1.566406 35.710938 1.539062 35.640625 1.511719 L 35.769531 1.023438 L 35.3125 0.902344 L 35.234375 1.386719 C 35.164062 1.375 35.0625 1.363281 35.0625 1.359375 L 35.0625 0.929688 L 34.589844 0.929688 L 34.589844 1.359375 C 34.355469 1.363281 34.390625 1.375 34.320312 1.386719 L 34.164062 0.902344 L 33.699219 1.023438 L 33.820312 1.511719 C 33.75 1.539062 33.679688 1.566406 33.609375 1.597656 L 33.359375 1.160156 L 32.953125 1.398438 L 33.199219 1.835938 C 33.140625 1.878906 33.078125 1.925781 33.023438 1.972656 L 32.671875 1.617188 L 32.339844 1.957031 L 32.6875 2.3125 C 32.640625 2.371094 32.597656 2.429688 32.554688 2.492188 L 32.121094 2.242188 L 31.886719 2.65625 L 32.316406 2.90625 C 32.285156 2.976562 32.257812 3.046875 32.230469 3.117188 L 31.75 2.984375 L 31.628906 3.445312 L 32.109375 3.578125 C 32.097656 3.652344 32.085938 3.808594 32.078125 3.808594 L 31.515625 3.808594 L 31.515625 4.285156 L 32.078125 4.285156 C 32.085938 4.285156 32.097656 4.433594 32.109375 4.507812 L 31.628906 4.636719 L 31.75 5.097656 L 32.230469 4.964844 C 32.257812 5.039062 32.285156 5.109375 32.316406 5.175781 L 31.886719 5.429688 L 32.121094 5.839844 L 32.550781 5.589844 C 32.59375 5.652344 32.640625 5.710938 32.6875 5.769531 L 32.335938 6.125 L 32.671875 6.464844 L 33.019531 6.109375 C 33.078125 6.15625 33.140625 6.203125 33.199219 6.246094 L 32.953125 6.683594 L 33.359375 6.921875 L 33.609375 6.484375 C 33.675781 6.515625 33.746094 6.542969 33.816406 6.570312 L 33.6875 7.058594 L 34.140625 7.183594 L 34.320312 6.695312 C 34.390625 6.707031 34.355469 6.71875 34.589844 6.726562 L 34.589844 7.164062 L 35.0625 7.164062 L 35.0625 6.726562 C 35.0625 6.71875 35.164062 6.707031 35.234375 6.695312 L 35.339844 7.183594 L 35.78125 7.058594 L 35.644531 6.570312 C 35.71875 6.542969 35.78125 6.515625 35.851562 6.484375 L 36.097656 6.921875 L 36.503906 6.683594 L 36.253906 6.246094 C 36.316406 6.203125 36.375 6.15625 36.433594 6.109375 L 36.785156 6.464844 L 37.117188 6.125 L 36.765625 5.769531 C 36.816406 5.710938 36.859375 5.652344 36.902344 5.589844 L 37.332031 5.839844 L 37.566406 5.429688 L 37.136719 5.175781 C 37.167969 5.105469 37.199219 5.039062 37.222656 4.964844 L 37.703125 5.097656 L 37.824219 4.636719 L 37.34375 4.507812 C 37.359375 4.433594 37.367188 4.285156 37.375 4.285156 Z M 34.726562 6.191406 C 33.558594 6.191406 32.609375 5.226562 32.609375 4.042969 C 32.609375 2.855469 33.558594 1.894531 34.726562 1.894531 C 35.898438 1.894531 36.847656 2.855469 36.847656 4.042969 C 36.847656 5.226562 35.898438 6.191406 34.726562 6.191406 Z M 34.726562 6.191406 " fill-opacity="1" fill-rule="nonzero"/></g><path fill="rgb(0%, 0%, 0%)" d="M 35.269531 2.988281 C 35.269531 3.140625 35.214844 3.269531 35.109375 3.375 C 35.003906 3.484375 34.875 3.535156 34.726562 3.535156 C 34.578125 3.535156 34.449219 3.484375 34.34375 3.375 C 34.238281 3.269531 34.1875 3.140625 34.1875 2.988281 C 34.1875 2.835938 34.238281 2.707031 34.34375 2.601562 C 34.449219 2.492188 34.578125 2.441406 34.726562 2.441406 C 34.875 2.441406 35.003906 2.492188 35.109375 2.601562 C 35.214844 2.707031 35.269531 2.835938 35.269531 2.988281 Z M 35.269531 2.988281 " fill-opacity="1" fill-rule="nonzero"/><path fill="rgb(0%, 0%, 0%)" d="M 35.269531 5.09375 C 35.269531 5.246094 35.214844 5.375 35.109375 5.480469 C 35.003906 5.589844 34.875 5.640625 34.726562 5.640625 C 34.578125 5.640625 34.449219 5.589844 34.34375 5.480469 C 34.238281 5.375 34.1875 5.246094 34.1875 5.09375 C 34.1875 4.941406 34.238281 4.8125 34.34375 4.707031 C 34.449219 4.601562 34.578125 4.546875 34.726562 4.546875 C 34.875 4.546875 35.003906 4.601562 35.109375 4.707031 C 35.214844 4.8125 35.269531 4.941406 35.269531 5.09375 Z M 35.269531 5.09375 " fill-opacity="1" fill-rule="nonzero"/><path fill="rgb(0%, 0%, 0%)" d="M 34.230469 4.042969 C 34.230469 4.191406 34.175781 4.320312 34.070312 4.429688 C 33.964844 4.535156 33.835938 4.589844 33.6875 4.589844 C 33.539062 4.589844 33.410156 4.535156 33.304688 4.429688 C 33.199219 4.320312 33.148438 4.191406 33.148438 4.042969 C 33.148438 3.890625 33.199219 3.761719 33.304688 3.652344 C 33.410156 3.546875 33.539062 3.492188 33.6875 3.492188 C 33.835938 3.492188 33.964844 3.546875 34.070312 3.652344 C 34.175781 3.761719 34.230469 3.890625 34.230469 4.042969 Z M 34.230469 4.042969 " fill-opacity="1" fill-rule="nonzero"/><path fill="rgb(0%, 0%, 0%)" d="M 36.304688 4.042969 C 36.304688 4.191406 36.253906 4.320312 36.148438 4.429688 C 36.042969 4.535156 35.914062 4.589844 35.765625 4.589844 C 35.617188 4.589844 35.488281 4.535156 35.382812 4.429688 C 35.277344 4.320312 35.226562 4.191406 35.226562 4.042969 C 35.226562 3.890625 35.277344 3.761719 35.382812 3.652344 C 35.488281 3.546875 35.617188 3.492188 35.765625 3.492188 C 35.914062 3.492188 36.042969 3.546875 36.148438 3.652344 C 36.253906 3.761719 36.304688 3.890625 36.304688 4.042969 Z M 36.304688 4.042969 " fill-opacity="1" fill-rule="nonzero"/><g clip-path="url(#clip-2)"><path fill="rgb(0%, 0%, 0%)" d="M 52.984375 17.746094 C 53.441406 16.984375 53.445312 15.988281 52.914062 15.207031 C 52.378906 14.425781 51.457031 14.078125 50.59375 14.25 L 51.40625 15.4375 C 51.695312 15.863281 51.59375 16.449219 51.171875 16.742188 C 50.75 17.039062 50.175781 16.933594 49.882812 16.507812 L 49.070312 15.316406 C 48.609375 16.082031 48.605469 17.074219 49.140625 17.855469 C 49.675781 18.636719 50.597656 18.984375 51.460938 18.8125 L 54.628906 23.445312 C 54.921875 23.871094 55.496094 23.976562 55.917969 23.679688 C 56.339844 23.386719 56.441406 22.800781 56.152344 22.375 Z M 52.984375 17.746094 " fill-opacity="1" fill-rule="nonzero"/></g><path fill="rgb(0%, 0%, 0%)" d="M 27.984375 22.03125 C 27.902344 22.511719 27.855469 22.808594 27.855469 23.210938 C 27.855469 26.191406 30.238281 28.613281 33.179688 28.613281 C 36.117188 28.613281 38.5 26.1875 38.5 23.207031 C 38.5 22.808594 38.457031 22.511719 38.375 22.03125 Z M 31.941406 25.699219 C 31.941406 25.699219 35.277344 25.867188 37.125 24.277344 C 37.125 24.277344 35.636719 28.96875 31.941406 25.699219 Z M 31.941406 25.699219 " fill-opacity="1" fill-rule="nonzero"/></svg>