<?xml version="1.0" encoding="UTF-8"?>
<svg xmlns="http://www.w3.org/2000/svg" xmlns:xlink="http://www.w3.org/1999/xlink" width="37.5pt" zoomAndPan="magnify" viewBox="0 0 37.5 37.499999" height="37.499999pt" preserveAspectRatio="xMidYMid meet" version="1.2">
    <defs>
        <clipPath xml:id="clip1" id="clip1">
            <path d="M 0.5625 0 L 11 0 L 11 10 L 0.5625 10 Z M 0.5625 0 " />
        </clipPath>
        <clipPath xml:id="clip2" id="clip2">
            <path d="M 0.5625 14 L 11 14 L 11 24 L 0.5625 24 Z M 0.5625 14 " />
        </clipPath>
        <clipPath xml:id="clip3" id="clip3">
            <path d="M 0.5625 28 L 11 28 L 11 37.007812 L 0.5625 37.007812 Z M 0.5625 28 " />
        </clipPath>
        <clipPath xml:id="clip4" id="clip4">
            <path d="M 14.972656 3 L 37.007812 3 L 37.007812 7 L 14.972656 7 Z M 14.972656 3 " />
        </clipPath>
        <clipPath xml:id="clip5" id="clip5">
            <path d="M 14.972656 17 L 37.007812 17 L 37.007812 21 L 14.972656 21 Z M 14.972656 17 " />
        </clipPath>
        <clipPath xml:id="clip6" id="clip6">
            <path d="M 14.972656 31.078125 L 37.007812 31.078125 L 37.007812 35.859375 L 14.972656 35.859375 Z M 14.972656 31.078125 " />
        </clipPath>
        <linearGradient id="gradient1" x1="0%" x2="50%" y1="85.457%" y2="14.543%">
            <stop offset="0%" stop-color="#7284ff" />
            <stop offset="51.945%" stop-color="#854edb" />
            <stop offset="100%" stop-color="#5A77FF" />
        </linearGradient>
    </defs>
    <g xml:id="surface1" id="surface1">
        <g clip-rule="nonzero" clip-path="url(#clip1)">
            <path style=" stroke:none;fill-rule:nonzero;fill:url(#gradient1);fill-opacity:1;" d="M 1.394531 0 L 9.609375 0 C 9.953125 0 10.238281 0.285156 10.238281 0.636719 L 10.238281 8.925781 C 10.238281 9.277344 9.953125 9.5625 9.609375 9.5625 L 1.394531 9.5625 C 1.046875 9.5625 0.765625 9.277344 0.765625 8.925781 L 0.765625 0.636719 C 0.765625 0.285156 1.046875 0 1.394531 0 " />
        </g>
        <g clip-rule="nonzero" clip-path="url(#clip2)">
            <path style=" stroke:none;fill-rule:nonzero;fill:url(#gradient1);fill-opacity:1;" d="M 1.394531 14.34375 L 9.609375 14.34375 C 9.953125 14.34375 10.238281 14.628906 10.238281 14.980469 L 10.238281 23.269531 C 10.238281 23.621094 9.953125 23.90625 9.609375 23.90625 L 1.394531 23.90625 C 1.046875 23.90625 0.765625 23.621094 0.765625 23.269531 L 0.765625 14.980469 C 0.765625 14.628906 1.046875 14.34375 1.394531 14.34375 " />
        </g>
        <g clip-rule="nonzero" clip-path="url(#clip3)">
            <path style=" stroke:none;fill-rule:nonzero;fill:url(#gradient1);fill-opacity:1;" d="M 1.394531 28.6875 L 9.609375 28.6875 C 9.953125 28.6875 10.238281 28.972656 10.238281 29.324219 L 10.238281 37.613281 C 10.238281 37.964844 9.953125 38.25 9.609375 38.25 L 1.394531 38.25 C 1.046875 38.25 0.765625 37.964844 0.765625 37.613281 L 0.765625 29.324219 C 0.765625 28.972656 1.046875 28.6875 1.394531 28.6875 " />
        </g>
        <g clip-rule="nonzero" clip-path="url(#clip4)">
            <path style=" stroke:none;fill-rule:nonzero;fill:url(#gradient1);fill-opacity:1;" d="M 16.234375 3.1875 L 35.804688 3.1875 C 36.507812 3.1875 37.066406 3.757812 37.066406 4.464844 L 37.066406 5.097656 C 37.066406 5.804688 36.507812 6.375 35.804688 6.375 L 16.234375 6.375 C 15.535156 6.375 14.972656 5.804688 14.972656 5.097656 L 14.972656 4.464844 C 14.972656 3.757812 15.535156 3.1875 16.234375 3.1875 " />
        </g>
        <g clip-rule="nonzero" clip-path="url(#clip5)">
            <path style=" stroke:none;fill-rule:nonzero;fill:url(#gradient1);fill-opacity:1;" d="M 16.234375 17.53125 L 35.804688 17.53125 C 36.507812 17.53125 37.066406 18.101562 37.066406 18.808594 L 37.066406 19.441406 C 37.066406 20.148438 36.507812 20.722656 35.804688 20.722656 L 16.234375 20.722656 C 15.535156 20.722656 14.972656 20.148438 14.972656 19.441406 L 14.972656 18.808594 C 14.972656 18.101562 15.535156 17.53125 16.234375 17.53125 " />
        </g>
        <g clip-rule="nonzero" clip-path="url(#clip6)">
            <path style=" stroke:none;fill-rule:nonzero;fill:url(#gradient1);fill-opacity:1;" d="M 16.234375 31.875 L 35.804688 31.875 C 36.507812 31.875 37.066406 32.445312 37.066406 33.152344 L 37.066406 33.785156 C 37.066406 34.492188 36.507812 35.0625 35.804688 35.0625 L 16.234375 35.0625 C 15.535156 35.0625 14.972656 34.492188 14.972656 33.785156 L 14.972656 33.152344 C 14.972656 32.445312 15.535156 31.875 16.234375 31.875 " />
        </g>
    </g>
</svg>