<?xml version="1.0" encoding="UTF-8"?><svg xmlns="http://www.w3.org/2000/svg" xmlns:xlink="http://www.w3.org/1999/xlink" width="810" zoomAndPan="magnify" viewBox="0 0 810 809.999993" height="809.999993" preserveAspectRatio="xMidYMid meet" version="1.0"><defs><clipPath id="clip-0"><path d="M 130.070312 172 L 767 172 L 767 769.386719 L 130.070312 769.386719 Z M 130.070312 172 " clip-rule="nonzero"/></clipPath><clipPath id="clip-1"><path d="M 1.125 311 L 711 311 L 711 756 L 1.125 756 Z M 1.125 311 " clip-rule="nonzero"/></clipPath><clipPath id="clip-2"><path d="M 1.316406 244 L 788.972656 244 L 788.972656 769.386719 L 1.316406 769.386719 Z M 1.316406 244 " clip-rule="nonzero"/></clipPath><clipPath id="clip-3"><path d="M 50 266 L 802 266 L 802 769.386719 L 50 769.386719 Z M 50 266 " clip-rule="nonzero"/></clipPath><clipPath id="clip-4"><path d="M 522 469 L 809.992188 469 L 809.992188 536 L 522 536 Z M 522 469 " clip-rule="nonzero"/></clipPath><clipPath id="clip-5"><path d="M 331 375.476562 L 741 375.476562 L 741 769.386719 L 331 769.386719 Z M 331 375.476562 " clip-rule="nonzero"/></clipPath></defs><path fill="rgb(11.759949%, 14.509583%, 29.40979%)" d="M 249.546875 244.019531 C 253.378906 242.777344 257.121094 241.449219 260.800781 240.058594 C 260.996094 241.359375 261.21875 242.691406 261.46875 244.019531 Z M 434.714844 227.179688 C 434.683594 227.355469 434.65625 227.550781 434.625 227.757812 C 434.597656 227.519531 434.550781 227.296875 434.523438 227.089844 Z M 417.480469 172.105469 C 415.574219 169.976562 412.984375 168.273438 409.730469 167.003906 C 395.425781 161.59375 380.648438 158.191406 365.414062 156.785156 L 365.222656 146.1875 C 365.414062 146.257812 365.605469 146.320312 365.796875 146.378906 C 383.460938 152.054688 395.839844 146.6875 402.910156 130.292969 C 403.917969 138.484375 405.871094 146.304688 408.785156 153.753906 C 409.40625 155.515625 410.351562 157.097656 411.625 158.488281 C 416.046875 162.863281 419.847656 167.476562 423.074219 172.296875 C 420.988281 172.015625 419.125 171.957031 417.480469 172.105469 Z M 332.75 156.59375 C 321.925781 157.363281 311.289062 159.003906 300.84375 161.519531 C 291.496094 166.617188 283.730469 172.519531 277.5625 179.203125 C 272.828125 180.53125 267.59375 182.277344 261.851562 184.40625 C 250.742188 188.574219 231.113281 196.398438 202.964844 207.886719 C 191.828125 212.097656 181.101562 215.855469 170.777344 219.136719 C 163.335938 202.265625 160.4375 182.542969 162.066406 159.996094 C 162.699219 151.035156 166.664062 145.992188 173.988281 144.855469 C 223.46875 138.542969 264.753906 117.917969 297.828125 82.976562 C 304.882812 74.519531 312.027344 66.121094 319.21875 57.800781 C 329.941406 45.4375 343.195312 40.515625 358.976562 43.042969 C 382.453125 47.582031 402.96875 57.664062 420.515625 73.324219 C 424.167969 76.855469 426.578125 81.261719 427.71875 86.570312 C 430.234375 99.183594 424.804688 105.613281 411.429688 105.867188 C 390.472656 103.351562 374.570312 92.808594 363.710938 74.269531 L 350.074219 95.28125 L 342.5 82.402344 L 331.714844 79.371094 C 326.289062 85.816406 325.785156 93.003906 330.191406 100.957031 C 332.191406 104.640625 333.640625 108.363281 334.554688 112.121094 C 333.03125 114.632812 332.277344 117.472656 332.277344 120.636719 L 332.75 156.59375 " fill-opacity="1" fill-rule="evenodd"/><path fill="rgb(96.078491%, 68.238831%, 55.288696%)" d="M 545.757812 486.085938 C 547.371094 486.707031 549.042969 487.402344 550.789062 488.15625 C 553.554688 489.425781 555.964844 490.683594 557.976562 491.941406 C 558.597656 492.191406 559.117188 492.515625 559.488281 492.886719 C 561.644531 494.261719 563.257812 495.609375 564.324219 496.96875 C 565.09375 497.972656 565.535156 498.980469 565.640625 499.984375 C 565.699219 500.207031 565.742188 500.425781 565.742188 500.648438 C 565.742188 503.429688 565.550781 505.011719 565.167969 505.378906 C 565.046875 505.378906 564.914062 505.441406 564.796875 505.574219 C 564.664062 508.351562 564.101562 510.421875 563.097656 511.8125 C 559.679688 515.980469 552.488281 518.066406 541.5 518.066406 C 535.613281 518.066406 529.398438 517.089844 522.859375 515.125 C 519.324219 514.058594 515.703125 512.699219 511.972656 511.058594 C 507.847656 509.226562 504.460938 507.332031 501.839844 505.378906 L 519.355469 505.378906 C 523.054688 505.378906 526.367188 505.011719 529.296875 504.242188 C 531.382812 502.777344 533.96875 501.609375 537.0625 500.753906 C 541.648438 497.558594 544.546875 492.664062 545.757812 486.085938 Z M 476.648438 505.378906 C 476.976562 506.074219 477.125 506.769531 477.125 507.464844 C 477.125 507.878906 477.125 508.292969 477.125 508.691406 C 477.078125 510.703125 476.886719 511.871094 476.5625 512.195312 C 476.441406 512.195312 476.308594 512.253906 476.175781 512.390625 C 476.058594 515.152344 475.496094 517.238281 474.476562 518.628906 C 471.074219 522.796875 463.871094 524.882812 452.894531 524.882812 C 450.46875 524.882812 447.96875 524.71875 445.410156 524.410156 C 439.019531 523.535156 432.273438 521.613281 425.160156 518.628906 C 424.550781 518.390625 423.945312 518.125 423.355469 517.875 C 411.742188 512.699219 405.945312 507.082031 405.945312 501.035156 C 405.945312 498.253906 406.445312 496.496094 407.453125 495.726562 C 407.851562 495.621094 408.238281 495.535156 408.589844 495.445312 C 409.640625 495.121094 410.589844 494.78125 411.429688 494.410156 C 412.6875 495.28125 415.589844 497.441406 420.144531 500.839844 C 424.523438 503.753906 428.78125 505.277344 432.925781 505.378906 L 433.398438 505.378906 C 435.054688 504.746094 436.636719 504.152344 438.132812 503.589844 C 440.898438 502.617188 443.425781 501.757812 445.707031 501.035156 C 440.144531 497.367188 437.363281 495.105469 437.363281 494.21875 C 437.363281 491.570312 437.863281 490.046875 438.886719 489.679688 L 440.394531 488.925781 C 445.707031 488.925781 452.953125 490.933594 462.167969 494.972656 C 464.949219 496.226562 467.347656 497.5 469.371094 498.757812 C 469.992188 499.007812 470.496094 499.332031 470.882812 499.703125 C 473.914062 501.625 475.835938 503.519531 476.648438 505.378906 Z M 735.574219 462.429688 L 735.574219 465.828125 C 735.574219 470.367188 734.003906 474.214844 730.839844 477.378906 C 727.6875 480.527344 723.84375 482.109375 719.300781 482.109375 C 715.796875 482.109375 712.6875 481.164062 710.011719 479.269531 C 709.226562 478.722656 708.457031 478.085938 707.75 477.378906 C 704.597656 474.214844 703.015625 470.367188 703.015625 465.828125 L 703.015625 447.183594 C 702.824219 447.140625 702.628906 447.113281 702.4375 447.097656 C 696.136719 446.34375 690.191406 444.507812 684.644531 441.613281 C 678.964844 438.449219 675.5625 433.597656 674.421875 427.03125 C 673.535156 421.355469 673.089844 415.679688 673.089844 410 C 673.222656 404.191406 673.59375 398.511719 674.230469 392.96875 C 677.144531 393.46875 679.984375 393.914062 682.75 394.296875 C 685.28125 400.980469 687.792969 405.578125 690.324219 408.109375 C 689.820312 405.964844 691.078125 403.878906 694.109375 401.867188 C 696.890625 399.976562 699.09375 399.03125 700.738281 399.03125 C 703.652344 399.03125 705.914062 400.035156 707.554688 402.046875 C 708.945312 403.6875 709.640625 405.578125 709.640625 407.722656 C 709.640625 410.636719 707.4375 413.222656 703.015625 415.484375 C 698.59375 417.628906 696.386719 418.902344 696.386719 419.269531 C 696.386719 424.828125 698.59375 429.042969 703.015625 431.957031 C 703.710938 432.445312 704.480469 432.875 705.277344 433.273438 C 706.757812 434.011719 708.339844 434.617188 710.011719 435.078125 C 712.925781 435.890625 716.152344 436.304688 719.671875 436.304688 C 725.734375 436.304688 731.03125 435.742188 735.574219 434.601562 C 736.902344 434.261719 738.175781 433.894531 739.359375 433.464844 C 738.738281 435.105469 738.234375 436.804688 737.851562 438.582031 C 737.347656 440.84375 736.902344 443.121094 736.519531 445.394531 C 736.207031 445.484375 735.898438 445.574219 735.574219 445.675781 Z M 585.996094 244.019531 C 587.5625 245.527344 588.953125 247.167969 590.164062 248.945312 C 593.699219 254.371094 594.957031 259.664062 593.953125 264.839844 C 596.230469 269.761719 598.433594 275.941406 600.578125 283.394531 C 604.011719 295.414062 605.90625 304.742188 606.257812 311.398438 C 606.246094 311.589844 606.246094 311.78125 606.257812 311.972656 C 606.039062 311.78125 605.816406 311.589844 605.59375 311.398438 C 600.59375 306.976562 595.003906 298.960938 588.835938 287.371094 C 588.078125 285.476562 587.207031 283.703125 586.1875 282.0625 C 584.796875 283.453125 583.347656 284.648438 581.835938 285.65625 C 576.660156 288.050781 571.351562 287.371094 565.9375 283.585938 C 560.375 279.667969 556.144531 273.988281 553.246094 266.554688 C 550.714844 259.085938 549.988281 251.574219 551.070312 244.019531 C 551.261719 242.898438 551.484375 241.757812 551.734375 240.621094 C 552.355469 238.476562 553.125 236.835938 554 235.695312 C 556.527344 233.300781 560.316406 232.605469 565.359375 233.609375 C 572.578125 235.296875 578.554688 237.988281 583.257812 241.65625 C 584.21875 242.410156 585.136719 243.191406 585.996094 244.019531 Z M 402.910156 130.292969 C 395.839844 146.6875 383.460938 152.054688 365.796875 146.378906 C 365.605469 146.320312 365.414062 146.257812 365.222656 146.1875 L 365.414062 156.785156 L 365.414062 159.804688 C 365.414062 164.355469 363.902344 168.261719 360.871094 171.542969 C 357.722656 174.691406 353.859375 176.273438 349.320312 176.273438 C 344.777344 176.390625 340.933594 174.882812 337.765625 171.734375 C 334.496094 168.570312 332.855469 164.726562 332.855469 160.1875 L 332.75 156.59375 L 332.277344 120.636719 C 332.277344 117.472656 333.03125 114.632812 334.554688 112.121094 C 333.640625 108.363281 332.191406 104.640625 330.191406 100.957031 C 325.785156 93.003906 326.289062 85.816406 331.714844 79.371094 L 342.5 82.402344 L 350.074219 95.28125 L 363.710938 74.269531 C 374.570312 92.808594 390.472656 103.351562 411.429688 105.867188 C 410.042969 111.292969 408.339844 116.71875 406.3125 122.144531 C 405.308594 124.925781 404.167969 127.628906 402.910156 130.292969 Z M 130.070312 229.828125 C 133.589844 230.167969 136.816406 231.054688 139.730469 232.488281 C 144.625 234.925781 148.101562 238.785156 150.140625 244.019531 L 88.695312 244.019531 C 95.632812 238.710938 103.488281 234.75 112.273438 232.101562 C 118.886719 230.152344 124.816406 229.382812 130.070312 229.828125 " fill-opacity="1" fill-rule="evenodd"/><g clip-path="url(#clip-0)"><path fill="rgb(93.728638%, 61.959839%, 6.269836%)" d="M 731.417969 729.171875 C 729.746094 730.101562 728.679688 731.492188 728.191406 733.339844 C 727.941406 734.167969 727.820312 735.085938 727.820312 736.078125 L 729.523438 741.191406 C 729.789062 741.828125 730.070312 742.464844 730.367188 743.085938 C 724.035156 739.742188 717.40625 736.785156 710.484375 734.183594 C 710.382812 734.152344 710.292969 734.125 710.203125 734.09375 C 711.328125 727.753906 718.382812 726.125 731.417969 729.171875 Z M 445.410156 524.410156 C 447.96875 524.71875 450.46875 524.882812 452.894531 524.882812 C 463.871094 524.882812 471.074219 522.796875 474.476562 518.628906 C 475.496094 517.238281 476.058594 515.152344 476.175781 512.390625 C 476.308594 512.253906 476.441406 512.195312 476.5625 512.195312 C 476.886719 511.871094 477.078125 510.703125 477.125 508.691406 C 488.957031 509.371094 504.207031 512.359375 522.859375 517.683594 C 526.484375 518.746094 530.242188 519.871094 534.117188 521.097656 C 568.199219 531.933594 587.519531 536.859375 592.058594 535.851562 C 592.414062 535.734375 600.046875 527.632812 614.972656 511.53125 C 616.183594 510.230469 617.441406 508.871094 618.757812 507.464844 C 623.449219 502.394531 627.664062 497.855469 631.4375 493.832031 C 642.382812 482.300781 649.453125 475.367188 652.648438 473.015625 C 656.894531 471.226562 660.902344 470.414062 664.675781 470.5625 C 670.945312 470.84375 676.523438 473.871094 681.433594 479.640625 C 686.730469 485.703125 690.324219 492.710938 692.21875 500.648438 L 693.164062 509.917969 C 693.636719 517.207031 693.355469 524.128906 692.320312 530.648438 C 692.203125 531.121094 692.113281 531.59375 692.023438 532.066406 C 687.867188 554.644531 675.488281 567.894531 654.925781 571.8125 C 652.738281 572.238281 648.683594 573.347656 642.796875 575.121094 C 641.894531 575.390625 640.945312 575.671875 639.957031 575.980469 C 637.351562 576.71875 634.511719 577.472656 631.4375 578.242188 C 622.488281 580.503906 611.570312 582.898438 598.6875 585.441406 C 590.742188 587.023438 579.691406 586.167969 565.550781 582.886719 C 560.863281 581.792969 555.847656 580.429688 550.492188 578.820312 C 544.503906 577 538.054688 574.855469 531.1875 572.371094 C 525.566406 570.332031 519.636719 568.070312 513.394531 565.570312 C 512.179688 565.070312 510.953125 564.566406 509.695312 564.046875 C 468.796875 547.148438 447.597656 535.410156 446.074219 528.84375 C 445.644531 527.292969 445.425781 525.8125 445.410156 524.410156 Z M 551.070312 244.019531 L 471.546875 244.019531 C 458.203125 239.214844 445.925781 233.609375 434.714844 227.179688 L 434.523438 227.089844 C 431.917969 209.777344 427.109375 192.832031 420.144531 176.273438 C 419.480469 174.734375 418.605469 173.347656 417.480469 172.105469 C 419.125 171.957031 420.988281 172.015625 423.074219 172.296875 C 430.558594 173.183594 440.882812 176.71875 454.03125 182.898438 C 464.371094 187.4375 482.625 196.144531 508.75 209.007812 C 533.984375 220.75 557.148438 229.574219 578.242188 235.503906 C 580.582031 237.839844 582.238281 239.894531 583.257812 241.65625 C 578.554688 237.988281 572.578125 235.296875 565.359375 233.609375 C 560.316406 232.605469 556.527344 233.300781 554 235.695312 C 553.125 236.835938 552.355469 238.476562 551.734375 240.621094 C 551.484375 241.757812 551.261719 242.898438 551.070312 244.019531 Z M 150.140625 244.019531 C 148.101562 238.785156 144.625 234.925781 139.730469 232.488281 C 136.816406 231.054688 133.589844 230.167969 130.070312 229.828125 C 142.851562 227.195312 156.429688 223.632812 170.777344 219.136719 C 181.101562 215.855469 191.828125 212.097656 202.964844 207.886719 C 231.113281 196.398438 250.742188 188.574219 261.851562 184.40625 C 267.59375 182.277344 272.828125 180.53125 277.5625 179.203125 C 287.929688 176.257812 295.875 175.222656 301.421875 176.082031 C 311.140625 177.605469 316.628906 185.101562 317.886719 198.601562 C 317.765625 197.84375 316.9375 200.875 315.429688 207.691406 C 311.777344 215.011719 306.910156 219.105469 300.84375 219.992188 C 288.773438 227.769531 275.433594 234.453125 260.800781 240.058594 C 257.121094 241.449219 253.378906 242.777344 249.546875 244.019531 Z M 711.433594 768.824219 C 710.277344 768.988281 709.050781 769.105469 707.75 769.195312 C 706.03125 769.328125 704.199219 769.386719 702.261719 769.386719 C 700.472656 769.386719 698.742188 769.328125 697.054688 769.195312 C 694.613281 769.019531 692.277344 768.707031 690.042969 768.25 C 679.050781 766.136719 670.175781 760.976562 663.445312 752.738281 C 660.664062 749.207031 658.386719 745.363281 656.628906 741.191406 L 654.925781 736.078125 C 654.925781 735.410156 654.984375 734.773438 655.101562 734.183594 C 656.183594 727.78125 663.253906 726.109375 676.316406 729.171875 C 674.480469 730.207031 673.34375 731.773438 672.914062 733.902344 C 672.929688 734.007812 672.929688 734.109375 672.914062 734.183594 C 672.867188 734.375 672.839844 734.566406 672.808594 734.761719 C 672.75 735.1875 672.722656 735.617188 672.722656 736.078125 L 674.421875 741.191406 C 676.195312 745.363281 678.460938 749.207031 681.242188 752.738281 C 683.355469 755.328125 685.695312 757.605469 688.238281 759.554688 C 694.644531 764.582031 702.363281 767.671875 711.433594 768.824219 Z M 738.414062 766.546875 C 738.902344 766.328125 739.375 766.105469 739.832031 765.882812 C 742.230469 764.582031 743.988281 762.925781 745.144531 760.976562 C 751.179688 765.160156 758.308594 767.777344 766.53125 768.824219 C 763.796875 769.195312 760.734375 769.386719 757.347656 769.386719 C 751.03125 769.386719 745.246094 768.605469 740.023438 767.023438 C 739.476562 766.890625 738.945312 766.726562 738.414062 766.546875 " fill-opacity="1" fill-rule="evenodd"/></g><path fill="rgb(98.429871%, 78.819275%, 2.749634%)" d="M 277.5625 179.203125 C 283.730469 172.519531 291.496094 166.617188 300.84375 161.519531 C 311.289062 159.003906 321.925781 157.363281 332.75 156.59375 L 332.855469 160.1875 C 332.855469 164.726562 334.496094 168.570312 337.765625 171.734375 C 340.933594 174.882812 344.777344 176.390625 349.320312 176.273438 C 353.859375 176.273438 357.722656 174.691406 360.871094 171.542969 C 363.902344 168.261719 365.414062 164.355469 365.414062 159.804688 L 365.414062 156.785156 C 380.648438 158.191406 395.425781 161.59375 409.730469 167.003906 C 412.984375 168.273438 415.574219 169.976562 417.480469 172.105469 C 418.605469 173.347656 419.480469 174.734375 420.144531 176.273438 C 427.109375 192.832031 431.917969 209.777344 434.523438 227.089844 C 434.550781 227.296875 434.597656 227.519531 434.625 227.757812 C 435.4375 233.136719 436.03125 238.5625 436.414062 244.019531 L 261.46875 244.019531 C 261.21875 242.691406 260.996094 241.359375 260.800781 240.058594 C 275.433594 234.453125 288.773438 227.769531 300.84375 219.992188 C 306.910156 219.105469 311.777344 215.011719 315.429688 207.691406 C 316.9375 200.875 317.765625 197.84375 317.886719 198.601562 C 316.628906 185.101562 311.140625 177.605469 301.421875 176.082031 C 295.875 175.222656 287.929688 176.257812 277.5625 179.203125 Z M 648.300781 654.992188 C 638.535156 628.691406 632.914062 603.113281 631.4375 578.242188 C 634.511719 577.472656 637.351562 576.71875 639.957031 575.980469 C 640.945312 575.671875 641.894531 575.390625 642.796875 575.121094 C 648.683594 573.347656 652.738281 572.238281 654.925781 571.8125 C 675.488281 567.894531 687.867188 554.644531 692.023438 532.066406 C 692.113281 531.59375 692.203125 531.121094 692.320312 530.648438 C 693.355469 524.128906 693.636719 517.207031 693.164062 509.917969 L 692.21875 500.648438 C 690.324219 492.710938 686.730469 485.703125 681.433594 479.640625 C 676.523438 473.871094 670.945312 470.84375 664.675781 470.5625 C 677.085938 466.421875 689.863281 463.730469 703.015625 462.519531 L 703.015625 465.828125 C 703.015625 470.367188 704.597656 474.214844 707.75 477.378906 C 708.457031 478.085938 709.226562 478.722656 710.011719 479.269531 C 712.6875 481.164062 715.796875 482.109375 719.300781 482.109375 C 723.84375 482.109375 727.6875 480.527344 730.839844 477.378906 C 734.003906 474.214844 735.574219 470.367188 735.574219 465.828125 L 735.574219 462.429688 C 746.328125 463.226562 756.859375 464.855469 767.199219 467.339844 C 769.03125 468.34375 770.808594 469.394531 772.496094 470.472656 C 794.164062 483.898438 805.96875 502.128906 807.90625 525.164062 C 809.148438 539.460938 806.5625 555.652344 800.140625 573.703125 C 790.421875 600.835938 782.96875 628.585938 777.804688 656.976562 L 649.054688 656.976562 C 648.800781 656.324219 648.550781 655.660156 648.300781 654.992188 " fill-opacity="1" fill-rule="evenodd"/><g clip-path="url(#clip-1)"><path fill="rgb(92.939758%, 97.648621%, 99.21875%)" d="M 58.121094 728.890625 C 59.894531 727.117188 60.769531 725.046875 60.769531 722.652344 C 60.769531 720.242188 59.894531 718.097656 58.121094 716.203125 C 56.34375 714.445312 54.273438 713.558594 51.863281 713.558594 C 49.347656 713.558594 47.203125 714.445312 45.429688 716.203125 C 43.667969 718.097656 42.78125 720.242188 42.78125 722.652344 C 42.78125 725.046875 43.667969 727.117188 45.429688 728.890625 C 47.203125 730.78125 49.347656 731.730469 51.863281 731.730469 C 54.273438 731.730469 56.34375 730.78125 58.121094 728.890625 Z M 161.503906 718.289062 L 78 718.289062 L 78 727.191406 L 161.503906 727.191406 Z M 78 683.664062 L 161.503906 683.664062 L 161.503906 674.761719 L 78 674.761719 Z M 45.429688 629.148438 C 43.667969 631.042969 42.78125 633.183594 42.78125 635.59375 C 42.78125 637.992188 43.667969 640.058594 45.429688 641.835938 C 47.203125 643.726562 49.347656 644.671875 51.863281 644.671875 C 54.273438 644.671875 56.34375 643.726562 58.121094 641.835938 C 59.894531 640.058594 60.769531 637.992188 60.769531 635.59375 C 60.769531 633.183594 59.894531 631.042969 58.121094 629.148438 C 56.34375 627.390625 54.273438 626.503906 51.863281 626.503906 C 49.347656 626.503906 47.203125 627.390625 45.429688 629.148438 Z M 58.121094 685.363281 C 59.894531 683.589844 60.769531 681.519531 60.769531 679.125 C 60.769531 676.714844 59.894531 674.570312 58.121094 672.675781 C 56.34375 670.917969 54.273438 670.03125 51.863281 670.03125 C 49.347656 670.03125 47.203125 670.917969 45.429688 672.675781 C 43.667969 674.570312 42.78125 676.714844 42.78125 679.125 C 42.78125 681.519531 43.667969 683.589844 45.429688 685.363281 C 47.203125 687.253906 49.347656 688.203125 51.863281 688.203125 C 54.273438 688.203125 56.34375 687.253906 58.121094 685.363281 Z M 78 640.132812 L 161.503906 640.132812 L 161.503906 631.234375 L 78 631.234375 Z M 60.769531 592.066406 C 60.769531 589.65625 59.894531 587.511719 58.121094 585.621094 C 56.34375 583.859375 54.273438 582.972656 51.863281 582.972656 C 49.347656 582.972656 47.203125 583.859375 45.429688 585.621094 C 43.667969 587.511719 42.78125 589.65625 42.78125 592.066406 C 42.78125 594.460938 43.667969 596.53125 45.429688 598.304688 C 47.203125 600.199219 49.347656 601.144531 51.863281 601.144531 C 54.273438 601.144531 56.34375 600.199219 58.121094 598.304688 C 59.894531 596.53125 60.769531 594.460938 60.769531 592.066406 Z M 161.503906 587.707031 L 78 587.707031 L 78 596.605469 L 161.503906 596.605469 Z M 61.523438 493.078125 L 150.320312 493.078125 L 150.320312 484.191406 L 61.523438 484.191406 Z M 61.523438 510.113281 L 150.320312 510.113281 L 150.320312 501.226562 L 61.523438 501.226562 Z M 61.523438 527.144531 L 150.320312 527.144531 L 150.320312 518.257812 L 61.523438 518.257812 Z M 135.363281 353.417969 L 75.160156 353.417969 C 59.378906 353.417969 51.492188 361.296875 51.492188 377.074219 L 51.492188 430.433594 C 51.492188 446.078125 59.378906 453.914062 75.160156 453.914062 L 135.363281 453.914062 C 151.148438 453.914062 159.03125 446.078125 159.03125 430.433594 L 159.03125 377.074219 C 159.03125 361.296875 151.148438 353.417969 135.363281 353.417969 Z M 631.4375 578.242188 C 632.914062 603.113281 638.535156 628.691406 648.300781 654.992188 C 646.359375 655.570312 644.410156 656.175781 642.425781 656.78125 C 638.816406 657.90625 635.164062 659.117188 631.4375 660.375 Z M 212.433594 330.898438 L 203.527344 330.898438 L 203.71875 728.507812 L 212.625 728.507812 Z M 1.316406 311.398438 L 605.59375 311.398438 C 605.816406 311.589844 606.039062 311.78125 606.257812 311.972656 C 606.246094 311.78125 606.246094 311.589844 606.257812 311.398438 L 710.011719 311.398438 L 710.011719 351.332031 C 694.167969 352.128906 681.980469 355.355469 673.476562 360.988281 C 663.625 367.417969 659.71875 374.042969 661.730469 380.859375 C 663.625 387.410156 667.796875 391.460938 674.230469 392.96875 C 673.59375 398.511719 673.222656 404.191406 673.089844 410 C 673.089844 415.679688 673.535156 421.355469 674.421875 427.03125 C 675.5625 433.597656 678.964844 438.449219 684.644531 441.613281 C 690.191406 444.507812 696.136719 446.34375 702.4375 447.097656 C 702.628906 447.113281 702.824219 447.140625 703.015625 447.183594 L 703.015625 462.519531 C 689.863281 463.730469 677.085938 466.421875 664.675781 470.5625 C 660.902344 470.414062 656.894531 471.226562 652.648438 473.015625 C 649.453125 475.367188 642.382812 482.300781 631.4375 493.832031 L 631.4375 484.753906 L 545.953125 484.753906 C 546.261719 482.757812 546.425781 480.613281 546.425781 478.324219 L 546.425781 451.25 L 631.066406 451.25 L 631.066406 321.613281 L 267.710938 321.613281 L 267.710938 451.25 L 404.421875 451.25 L 404.421875 478.324219 C 404.421875 480.601562 404.582031 482.757812 404.894531 484.753906 L 268.09375 484.753906 L 268.09375 746.871094 L 494.636719 746.871094 C 494.609375 749.78125 495.230469 752.621094 496.53125 755.386719 L 46.953125 755.386719 C 16.523438 755.386719 1.316406 740.113281 1.316406 709.582031 L 1.316406 311.398438 " fill-opacity="1" fill-rule="evenodd"/></g><g clip-path="url(#clip-2)"><path fill="rgb(34.118652%, 38.42926%, 71.759033%)" d="M 75.722656 278.855469 C 75.722656 275.4375 74.464844 272.40625 71.9375 269.761719 C 69.421875 267.367188 66.449219 266.167969 63.046875 266.167969 C 59.511719 266.167969 56.417969 267.367188 53.757812 269.761719 C 51.375 272.40625 50.160156 275.4375 50.160156 278.855469 C 50.160156 282.375 51.375 285.34375 53.757812 287.742188 C 56.417969 290.386719 59.511719 291.71875 63.046875 291.71875 C 66.449219 291.71875 69.421875 290.386719 71.9375 287.742188 C 74.464844 285.34375 75.722656 282.375 75.722656 278.855469 Z M 88.414062 287.742188 C 91.0625 290.386719 94.152344 291.71875 97.6875 291.71875 C 101.089844 291.71875 104.066406 290.386719 106.59375 287.742188 C 109.125 285.34375 110.382812 282.375 110.382812 278.855469 C 110.382812 275.4375 109.125 272.40625 106.59375 269.761719 C 104.066406 267.367188 101.089844 266.167969 97.6875 266.167969 C 94.152344 266.167969 91.0625 267.367188 88.414062 269.761719 C 86.019531 272.40625 84.820312 275.4375 84.820312 278.855469 C 84.820312 282.375 86.019531 285.34375 88.414062 287.742188 Z M 132.523438 291.71875 C 135.941406 291.71875 138.898438 290.386719 141.429688 287.742188 C 143.945312 285.34375 145.214844 282.375 145.214844 278.855469 C 145.214844 275.4375 143.945312 272.40625 141.429688 269.761719 C 138.898438 267.367188 135.941406 266.167969 132.523438 266.167969 C 129.003906 266.167969 125.898438 267.367188 123.25 269.761719 C 120.855469 272.40625 119.65625 275.4375 119.65625 278.855469 C 119.65625 282.375 120.855469 285.34375 123.25 287.742188 C 125.898438 290.386719 129.003906 291.71875 132.523438 291.71875 Z M 375.265625 559.894531 C 380.058594 559.894531 382.453125 562.289062 382.453125 567.078125 L 382.453125 603.421875 C 382.453125 608.210938 380.058594 610.609375 375.265625 610.609375 L 339.097656 610.609375 C 334.171875 610.609375 331.714844 608.210938 331.714844 603.421875 L 331.714844 567.078125 C 331.714844 562.289062 334.171875 559.894531 339.097656 559.894531 Z M 425.160156 518.628906 L 268.09375 518.628906 L 268.09375 484.753906 L 404.894531 484.753906 C 405.5 488.953125 406.726562 492.515625 408.589844 495.445312 C 408.238281 495.535156 407.851562 495.621094 407.453125 495.726562 C 406.445312 496.496094 405.945312 498.253906 405.945312 501.035156 C 405.945312 507.082031 411.742188 512.699219 423.355469 517.875 C 423.945312 518.125 424.550781 518.390625 425.160156 518.628906 Z M 631.066406 355.308594 L 267.710938 355.308594 L 267.710938 321.613281 L 631.066406 321.613281 Z M 545.953125 484.753906 L 631.4375 484.753906 L 631.4375 493.832031 C 627.664062 497.855469 623.449219 502.394531 618.757812 507.464844 C 617.441406 508.871094 616.183594 510.230469 614.972656 511.53125 C 612.132812 510.671875 609.351562 509.847656 606.644531 509.078125 C 606.910156 508.871094 607.148438 508.648438 607.398438 508.410156 C 608.773438 507.023438 609.484375 505.378906 609.484375 503.488281 C 609.484375 501.59375 608.773438 499.953125 607.398438 498.566406 C 606.007812 497.308594 604.367188 496.671875 602.472656 496.671875 C 600.578125 496.671875 598.9375 497.308594 597.546875 498.566406 C 596.15625 499.953125 595.460938 501.59375 595.460938 503.488281 C 595.460938 504.417969 595.625 505.308594 595.933594 506.132812 C 594.070312 505.648438 592.238281 505.171875 590.445312 504.714844 C 590.519531 504.332031 590.550781 503.917969 590.550781 503.488281 C 590.550781 501.59375 589.839844 499.953125 588.464844 498.566406 C 587.074219 497.308594 585.433594 496.671875 583.539062 496.671875 C 581.644531 496.671875 580.003906 497.308594 578.613281 498.566406 C 577.679688 499.511719 577.046875 500.546875 576.71875 501.699219 C 575.417969 501.460938 574.117188 501.253906 572.84375 501.035156 C 572.519531 500.148438 571.984375 499.320312 571.230469 498.566406 C 569.839844 497.308594 568.199219 496.671875 566.304688 496.671875 C 565.597656 496.671875 564.929688 496.777344 564.324219 496.96875 C 563.257812 495.609375 561.644531 494.261719 559.488281 492.886719 C 559.117188 492.515625 558.597656 492.191406 557.976562 491.941406 C 555.964844 490.683594 553.554688 489.425781 550.789062 488.15625 C 549.042969 487.402344 547.371094 486.707031 545.757812 486.085938 C 545.847656 485.640625 545.90625 485.199219 545.953125 484.753906 Z M 522.859375 517.683594 C 504.207031 512.359375 488.957031 509.371094 477.125 508.691406 C 477.125 508.292969 477.125 507.878906 477.125 507.464844 C 477.125 506.769531 476.976562 506.074219 476.648438 505.378906 L 501.839844 505.378906 C 504.460938 507.332031 507.847656 509.226562 511.972656 511.058594 C 515.703125 512.699219 519.324219 514.058594 522.859375 515.125 C 522.800781 515.9375 522.800781 516.792969 522.859375 517.683594 Z M 559.117188 334.859375 C 557.726562 336.25 557.03125 337.890625 557.03125 339.785156 C 557.03125 341.675781 557.726562 343.320312 559.117188 344.707031 C 560.492188 346.097656 562.148438 346.792969 564.042969 346.792969 C 565.9375 346.792969 567.5625 346.097656 568.953125 344.707031 C 570.34375 343.320312 571.039062 341.675781 571.039062 339.785156 C 571.039062 337.890625 570.34375 336.25 568.953125 334.859375 C 567.5625 333.605469 565.9375 332.96875 564.042969 332.96875 C 562.148438 332.96875 560.492188 333.605469 559.117188 334.859375 Z M 597.175781 334.859375 C 595.785156 336.25 595.089844 337.890625 595.089844 339.785156 C 595.089844 341.675781 595.785156 343.320312 597.175781 344.707031 C 598.566406 346.097656 600.195312 346.792969 602.089844 346.792969 C 603.980469 346.792969 605.625 346.097656 607.015625 344.707031 C 608.40625 343.320312 609.101562 341.675781 609.101562 339.785156 C 609.101562 337.890625 608.40625 336.25 607.015625 334.859375 C 605.625 333.605469 603.980469 332.96875 602.089844 332.96875 C 600.195312 332.96875 598.566406 333.605469 597.175781 334.859375 Z M 588.273438 334.859375 C 586.882812 333.605469 585.238281 332.96875 583.347656 332.96875 C 581.453125 332.96875 579.8125 333.605469 578.421875 334.859375 C 577.03125 336.25 576.351562 337.890625 576.351562 339.785156 C 576.351562 341.675781 577.03125 343.320312 578.421875 344.707031 C 579.8125 346.097656 581.453125 346.792969 583.347656 346.792969 C 585.238281 346.792969 586.882812 346.097656 588.273438 344.707031 C 589.664062 343.320312 590.359375 341.675781 590.359375 339.785156 C 590.359375 337.890625 589.664062 336.25 588.273438 334.859375 Z M 710.011719 311.398438 L 606.257812 311.398438 C 605.90625 304.742188 604.011719 295.414062 600.578125 283.394531 C 598.433594 275.941406 596.230469 269.761719 593.953125 264.839844 C 594.957031 259.664062 593.699219 254.371094 590.164062 248.945312 C 588.953125 247.167969 587.5625 245.527344 585.996094 244.019531 L 679.71875 244.019531 C 688.058594 244.019531 695.191406 246.992188 701.121094 252.921875 C 707.054688 258.851562 710.011719 265.976562 710.011719 274.300781 Z M 605.59375 311.398438 L 1.316406 311.398438 L 1.316406 274.300781 C 1.316406 265.976562 4.277344 258.851562 10.222656 252.921875 C 16.15625 246.992188 23.285156 244.019531 31.613281 244.019531 L 551.070312 244.019531 C 549.988281 251.574219 550.714844 259.085938 553.246094 266.554688 C 556.144531 273.988281 560.375 279.667969 565.9375 283.585938 C 571.351562 287.371094 576.660156 288.050781 581.835938 285.65625 C 583.347656 284.648438 584.796875 283.453125 586.1875 282.0625 C 587.207031 283.703125 588.078125 285.476562 588.835938 287.371094 C 595.003906 298.960938 600.59375 306.976562 605.59375 311.398438 Z M 513.484375 718.953125 C 518.765625 715.421875 524.652344 711.738281 531.1875 707.878906 C 534.960938 705.664062 538.941406 703.402344 543.113281 701.066406 C 547.121094 698.847656 551.320312 696.585938 555.699219 694.261719 C 559.011719 692.503906 562.296875 690.804688 565.550781 689.148438 C 589.117188 677.113281 611.066406 667.515625 631.4375 660.375 C 635.164062 659.117188 638.816406 657.90625 642.425781 656.78125 C 644.410156 656.175781 646.359375 655.570312 648.300781 654.992188 C 648.550781 655.660156 648.800781 656.324219 649.054688 656.976562 L 721.476562 656.976562 C 720.898438 670.089844 717.082031 680.808594 710.011719 689.148438 C 701.460938 699.289062 688.132812 705.914062 670.074219 709.019531 L 552.859375 734.183594 L 655.101562 734.183594 C 654.984375 734.773438 654.925781 735.410156 654.925781 736.078125 L 656.628906 741.191406 C 658.386719 745.363281 660.664062 749.207031 663.445312 752.738281 C 670.175781 760.976562 679.050781 766.136719 690.042969 768.25 C 690.070312 768.574219 690.101562 768.898438 690.132812 769.195312 L 509.886719 769.195312 C 509.503906 769.078125 509.191406 769.019531 508.941406 769.019531 C 502.832031 764.6875 498.707031 760.148438 496.53125 755.386719 C 495.230469 752.621094 494.609375 749.78125 494.636719 746.871094 C 494.757812 739.121094 499.519531 730.871094 508.941406 722.074219 C 509.652344 721.570312 510.375 721.070312 511.117188 720.566406 C 511.886719 720.035156 512.683594 719.5 513.484375 718.953125 Z M 749.597656 729.273438 C 740.972656 727.203125 734.921875 727.175781 731.417969 729.171875 C 718.382812 726.125 711.328125 727.753906 710.203125 734.09375 C 710.070312 734.066406 709.953125 734.035156 709.835938 734.007812 C 705.085938 732.261719 700.78125 730.871094 696.949219 729.835938 C 701.003906 728.832031 704.730469 727.707031 708.117188 726.4375 C 720.382812 721.882812 728.324219 715.628906 731.976562 707.6875 C 738.414062 693.433594 739.863281 682.140625 736.34375 673.816406 C 732.628906 665.433594 729.539062 659.8125 727.050781 656.976562 L 777.226562 656.976562 C 779.710938 659.8125 782.804688 665.433594 786.515625 673.816406 C 790.039062 682.140625 788.589844 693.433594 782.152344 707.6875 C 777.699219 717.371094 766.84375 724.574219 749.597656 729.273438 " fill-opacity="1" fill-rule="evenodd"/></g><g clip-path="url(#clip-3)"><path fill="rgb(76.078796%, 86.669922%, 87.838745%)" d="M 78 683.664062 L 78 674.761719 L 161.503906 674.761719 L 161.503906 683.664062 Z M 161.503906 718.289062 L 161.503906 727.191406 L 78 727.191406 L 78 718.289062 Z M 78 640.132812 L 78 631.234375 L 161.503906 631.234375 L 161.503906 640.132812 Z M 135.363281 353.417969 C 151.148438 353.417969 159.03125 361.296875 159.03125 377.074219 L 159.03125 430.433594 C 159.03125 446.078125 151.148438 453.914062 135.363281 453.914062 L 75.160156 453.914062 C 59.378906 453.914062 51.492188 446.078125 51.492188 430.433594 L 51.492188 377.074219 C 51.492188 361.296875 59.378906 353.417969 75.160156 353.417969 Z M 61.523438 527.144531 L 61.523438 518.257812 L 150.320312 518.257812 L 150.320312 527.144531 Z M 61.523438 510.113281 L 61.523438 501.226562 L 150.320312 501.226562 L 150.320312 510.113281 Z M 61.523438 493.078125 L 61.523438 484.191406 L 150.320312 484.191406 L 150.320312 493.078125 Z M 161.503906 587.707031 L 161.503906 596.605469 L 78 596.605469 L 78 587.707031 Z M 132.523438 291.71875 C 129.003906 291.71875 125.898438 290.386719 123.25 287.742188 C 120.855469 285.34375 119.65625 282.375 119.65625 278.855469 C 119.65625 275.4375 120.855469 272.40625 123.25 269.761719 C 125.898438 267.367188 129.003906 266.167969 132.523438 266.167969 C 135.941406 266.167969 138.898438 267.367188 141.429688 269.761719 C 143.945312 272.40625 145.214844 275.4375 145.214844 278.855469 C 145.214844 282.375 143.945312 285.34375 141.429688 287.742188 C 138.898438 290.386719 135.941406 291.71875 132.523438 291.71875 Z M 88.414062 287.742188 C 86.019531 285.34375 84.820312 282.375 84.820312 278.855469 C 84.820312 275.4375 86.019531 272.40625 88.414062 269.761719 C 91.0625 267.367188 94.152344 266.167969 97.6875 266.167969 C 101.089844 266.167969 104.066406 267.367188 106.59375 269.761719 C 109.125 272.40625 110.382812 275.4375 110.382812 278.855469 C 110.382812 282.375 109.125 285.34375 106.59375 287.742188 C 104.066406 290.386719 101.089844 291.71875 97.6875 291.71875 C 94.152344 291.71875 91.0625 290.386719 88.414062 287.742188 Z M 75.722656 278.855469 C 75.722656 282.375 74.464844 285.34375 71.9375 287.742188 C 69.421875 290.386719 66.449219 291.71875 63.046875 291.71875 C 59.511719 291.71875 56.417969 290.386719 53.757812 287.742188 C 51.375 285.34375 50.160156 282.375 50.160156 278.855469 C 50.160156 275.4375 51.375 272.40625 53.757812 269.761719 C 56.417969 267.367188 59.511719 266.167969 63.046875 266.167969 C 66.449219 266.167969 69.421875 267.367188 71.9375 269.761719 C 74.464844 272.40625 75.722656 275.4375 75.722656 278.855469 Z M 513.484375 718.953125 C 512.683594 719.5 511.886719 720.035156 511.117188 720.566406 L 401.578125 720.566406 L 401.578125 713.75 L 513.484375 713.75 Z M 543.113281 701.066406 C 538.941406 703.402344 534.960938 705.664062 531.1875 707.878906 L 401.964844 707.878906 L 401.964844 701.066406 Z M 565.550781 689.148438 C 562.296875 690.804688 559.011719 692.503906 555.699219 694.261719 L 401.964844 694.261719 L 401.964844 687.445312 L 565.550781 687.445312 Z M 375.265625 682.332031 C 380.058594 682.332031 382.453125 684.726562 382.453125 689.53125 L 382.453125 725.859375 C 382.453125 730.648438 380.058594 733.058594 375.265625 733.058594 L 339.097656 733.058594 C 334.171875 733.058594 331.714844 730.648438 331.714844 725.859375 L 331.714844 689.53125 C 331.714844 684.726562 334.171875 682.332031 339.097656 682.332031 Z M 401.578125 660.199219 L 401.578125 653.382812 L 513.484375 653.382812 L 513.484375 660.199219 Z M 401.964844 646.566406 L 401.964844 639.75 L 565.550781 639.75 L 565.550781 646.566406 Z M 401.964844 633.125 L 401.964844 626.308594 L 565.550781 626.308594 L 565.550781 633.125 Z M 401.578125 599.253906 L 401.578125 592.4375 L 513.484375 592.4375 L 513.484375 599.253906 Z M 550.492188 578.820312 C 555.847656 580.429688 560.863281 581.792969 565.550781 582.886719 L 565.550781 585.621094 L 401.964844 585.621094 L 401.964844 578.820312 Z M 513.394531 565.570312 C 519.636719 568.070312 525.566406 570.332031 531.1875 572.371094 L 401.964844 572.371094 L 401.964844 565.570312 Z M 407.925781 401.484375 L 401.386719 401.484375 L 401.386719 394.667969 L 414.167969 394.667969 C 411.566406 396.414062 409.464844 398.691406 407.925781 401.484375 Z M 405.839844 406.601562 C 405.21875 408.667969 404.804688 410.933594 404.613281 413.402344 L 401.210938 413.402344 L 401.210938 406.601562 Z M 212.433594 330.898438 L 212.625 728.507812 L 203.71875 728.507812 L 203.527344 330.898438 Z M 595.933594 506.132812 C 595.625 505.308594 595.460938 504.417969 595.460938 503.488281 C 595.460938 501.59375 596.15625 499.953125 597.546875 498.566406 C 598.9375 497.308594 600.578125 496.671875 602.472656 496.671875 C 604.367188 496.671875 606.007812 497.308594 607.398438 498.566406 C 608.773438 499.953125 609.484375 501.59375 609.484375 503.488281 C 609.484375 505.378906 608.773438 507.023438 607.398438 508.410156 C 607.148438 508.648438 606.910156 508.871094 606.644531 509.078125 C 602.960938 508.011719 599.394531 507.035156 595.933594 506.132812 Z M 576.71875 501.699219 C 577.046875 500.546875 577.679688 499.511719 578.613281 498.566406 C 580.003906 497.308594 581.644531 496.671875 583.539062 496.671875 C 585.433594 496.671875 587.074219 497.308594 588.464844 498.566406 C 589.839844 499.953125 590.550781 501.59375 590.550781 503.488281 C 590.550781 503.917969 590.519531 504.332031 590.445312 504.714844 C 585.625 503.53125 581.039062 502.511719 576.71875 501.699219 Z M 572.84375 501.035156 C 570.359375 500.621094 567.976562 500.265625 565.640625 499.984375 C 565.535156 498.980469 565.09375 497.972656 564.324219 496.96875 C 564.929688 496.777344 565.597656 496.671875 566.304688 496.671875 C 568.199219 496.671875 569.839844 497.308594 571.230469 498.566406 C 571.984375 499.320312 572.519531 500.148438 572.84375 501.035156 Z M 564.988281 381.226562 L 564.988281 388.042969 L 401.386719 388.042969 L 401.386719 381.226562 Z M 542.917969 401.484375 C 541.382812 398.691406 539.296875 396.414062 536.675781 394.667969 L 564.988281 394.667969 L 564.988281 401.484375 Z M 588.273438 334.859375 C 589.664062 336.25 590.359375 337.890625 590.359375 339.785156 C 590.359375 341.675781 589.664062 343.320312 588.273438 344.707031 C 586.882812 346.097656 585.238281 346.792969 583.347656 346.792969 C 581.453125 346.792969 579.8125 346.097656 578.421875 344.707031 C 577.03125 343.320312 576.351562 341.675781 576.351562 339.785156 C 576.351562 337.890625 577.03125 336.25 578.421875 334.859375 C 579.8125 333.605469 581.453125 332.96875 583.347656 332.96875 C 585.238281 332.96875 586.882812 333.605469 588.273438 334.859375 Z M 597.175781 334.859375 C 598.566406 333.605469 600.195312 332.96875 602.089844 332.96875 C 603.980469 332.96875 605.625 333.605469 607.015625 334.859375 C 608.40625 336.25 609.101562 337.890625 609.101562 339.785156 C 609.101562 341.675781 608.40625 343.320312 607.015625 344.707031 C 605.625 346.097656 603.980469 346.792969 602.089844 346.792969 C 600.195312 346.792969 598.566406 346.097656 597.175781 344.707031 C 595.785156 343.320312 595.089844 341.675781 595.089844 339.785156 C 595.089844 337.890625 595.785156 336.25 597.175781 334.859375 Z M 559.117188 334.859375 C 560.492188 333.605469 562.148438 332.96875 564.042969 332.96875 C 565.9375 332.96875 567.5625 333.605469 568.953125 334.859375 C 570.34375 336.25 571.039062 337.890625 571.039062 339.785156 C 571.039062 341.675781 570.34375 343.320312 568.953125 344.707031 C 567.5625 346.097656 565.9375 346.792969 564.042969 346.792969 C 562.148438 346.792969 560.492188 346.097656 559.117188 344.707031 C 557.726562 343.320312 557.03125 341.675781 557.03125 339.785156 C 557.03125 337.890625 557.726562 336.25 559.117188 334.859375 Z M 676.316406 729.171875 C 680.148438 726.984375 687.023438 727.203125 696.949219 729.835938 C 700.78125 730.871094 705.085938 732.261719 709.835938 734.007812 C 709.953125 734.035156 710.070312 734.066406 710.203125 734.09375 C 710.292969 734.125 710.382812 734.152344 710.484375 734.183594 C 717.40625 736.785156 724.035156 739.742188 730.367188 743.085938 C 730.070312 742.464844 729.789062 741.828125 729.523438 741.191406 L 727.820312 736.078125 C 727.820312 735.085938 727.941406 734.167969 728.191406 733.339844 C 728.679688 731.492188 729.746094 730.101562 731.417969 729.171875 C 734.921875 727.175781 740.972656 727.203125 749.597656 729.273438 C 754.019531 730.296875 759.136719 731.863281 764.921875 734.007812 C 773.882812 737.273438 782.347656 741.191406 790.304688 745.730469 C 797.996094 750.152344 801.84375 753.109375 801.84375 754.632812 C 801.84375 764.464844 792.953125 769.386719 775.15625 769.386719 C 772.152344 769.386719 769.285156 769.195312 766.53125 768.824219 C 758.308594 767.777344 751.179688 765.160156 745.144531 760.976562 C 743.988281 762.925781 742.230469 764.582031 739.832031 765.882812 C 739.375 766.105469 738.902344 766.328125 738.414062 766.546875 C 735.160156 767.953125 730.972656 768.839844 725.824219 769.195312 C 724.003906 769.328125 722.082031 769.386719 720.054688 769.386719 C 718.324219 769.386719 716.652344 769.328125 715.042969 769.195312 C 713.796875 769.105469 712.601562 768.988281 711.433594 768.824219 C 702.363281 767.671875 694.644531 764.582031 688.238281 759.554688 C 685.695312 757.605469 683.355469 755.328125 681.242188 752.738281 C 678.460938 749.207031 676.195312 745.363281 674.421875 741.191406 L 672.722656 736.078125 C 672.722656 735.617188 672.75 735.1875 672.808594 734.761719 C 672.839844 734.566406 672.867188 734.375 672.914062 734.183594 C 672.929688 734.109375 672.929688 734.007812 672.914062 733.902344 C 673.34375 731.773438 674.480469 730.207031 676.316406 729.171875 " fill-opacity="1" fill-rule="evenodd"/></g><path fill="rgb(74.899292%, 7.839966%, 39.219666%)" d="M 58.121094 728.890625 C 56.34375 730.78125 54.273438 731.730469 51.863281 731.730469 C 49.347656 731.730469 47.203125 730.78125 45.429688 728.890625 C 43.667969 727.117188 42.78125 725.046875 42.78125 722.652344 C 42.78125 720.242188 43.667969 718.097656 45.429688 716.203125 C 47.203125 714.445312 49.347656 713.558594 51.863281 713.558594 C 54.273438 713.558594 56.34375 714.445312 58.121094 716.203125 C 59.894531 718.097656 60.769531 720.242188 60.769531 722.652344 C 60.769531 725.046875 59.894531 727.117188 58.121094 728.890625 Z M 58.121094 685.363281 C 56.34375 687.253906 54.273438 688.203125 51.863281 688.203125 C 49.347656 688.203125 47.203125 687.253906 45.429688 685.363281 C 43.667969 683.589844 42.78125 681.519531 42.78125 679.125 C 42.78125 676.714844 43.667969 674.570312 45.429688 672.675781 C 47.203125 670.917969 49.347656 670.03125 51.863281 670.03125 C 54.273438 670.03125 56.34375 670.917969 58.121094 672.675781 C 59.894531 674.570312 60.769531 676.714844 60.769531 679.125 C 60.769531 681.519531 59.894531 683.589844 58.121094 685.363281 Z M 45.429688 629.148438 C 47.203125 627.390625 49.347656 626.503906 51.863281 626.503906 C 54.273438 626.503906 56.34375 627.390625 58.121094 629.148438 C 59.894531 631.042969 60.769531 633.183594 60.769531 635.59375 C 60.769531 637.992188 59.894531 640.058594 58.121094 641.835938 C 56.34375 643.726562 54.273438 644.671875 51.863281 644.671875 C 49.347656 644.671875 47.203125 643.726562 45.429688 641.835938 C 43.667969 640.058594 42.78125 637.992188 42.78125 635.59375 C 42.78125 633.183594 43.667969 631.042969 45.429688 629.148438 Z M 60.769531 592.066406 C 60.769531 594.460938 59.894531 596.53125 58.121094 598.304688 C 56.34375 600.199219 54.273438 601.144531 51.863281 601.144531 C 49.347656 601.144531 47.203125 600.199219 45.429688 598.304688 C 43.667969 596.53125 42.78125 594.460938 42.78125 592.066406 C 42.78125 589.65625 43.667969 587.511719 45.429688 585.621094 C 47.203125 583.859375 49.347656 582.972656 51.863281 582.972656 C 54.273438 582.972656 56.34375 583.859375 58.121094 585.621094 C 59.894531 587.511719 60.769531 589.65625 60.769531 592.066406 Z M 438.132812 503.589844 C 436.636719 504.152344 435.054688 504.746094 433.398438 505.378906 L 432.925781 505.378906 C 428.78125 505.277344 424.523438 503.753906 420.144531 500.839844 C 415.589844 497.441406 412.6875 495.28125 411.429688 494.410156 C 410.589844 494.78125 409.640625 495.121094 408.589844 495.445312 C 406.726562 492.515625 405.5 488.953125 404.894531 484.753906 C 404.582031 482.757812 404.421875 480.601562 404.421875 478.324219 L 404.421875 417.378906 C 404.421875 416.003906 404.492188 414.671875 404.613281 413.402344 C 404.804688 410.933594 405.21875 408.667969 405.839844 406.601562 C 406.359375 404.738281 407.054688 403.023438 407.925781 401.484375 C 409.464844 398.691406 411.566406 396.414062 414.167969 394.667969 C 418.488281 391.769531 424.257812 390.320312 431.503906 390.320312 L 449.105469 390.320312 C 431.816406 390.707031 423.160156 399.738281 423.160156 417.378906 L 423.160156 478.324219 C 423.160156 491.75 428.160156 500.160156 438.132812 503.589844 " fill-opacity="1" fill-rule="evenodd"/><g clip-path="url(#clip-4)"><path fill="rgb(79.60968%, 53.329468%, 10.198975%)" d="M 565.640625 499.984375 C 567.976562 500.265625 570.359375 500.621094 572.84375 501.035156 C 574.117188 501.253906 575.417969 501.460938 576.71875 501.699219 C 581.039062 502.511719 585.625 503.53125 590.445312 504.714844 C 592.238281 505.171875 594.070312 505.648438 595.933594 506.132812 C 599.394531 507.035156 602.960938 508.011719 606.644531 509.078125 C 609.351562 509.847656 612.132812 510.671875 614.972656 511.53125 C 600.046875 527.632812 592.414062 535.734375 592.058594 535.851562 C 587.519531 536.859375 568.199219 531.933594 534.117188 521.097656 C 530.242188 519.871094 526.484375 518.746094 522.859375 517.683594 C 522.800781 516.792969 522.800781 515.9375 522.859375 515.125 C 529.398438 517.089844 535.613281 518.066406 541.5 518.066406 C 552.488281 518.066406 559.679688 515.980469 563.097656 511.8125 C 564.101562 510.421875 564.664062 508.351562 564.796875 505.574219 C 564.914062 505.441406 565.046875 505.378906 565.167969 505.378906 C 565.550781 505.011719 565.742188 503.429688 565.742188 500.648438 C 565.742188 500.425781 565.699219 500.207031 565.640625 499.984375 Z M 807.90625 525.164062 C 805.96875 502.128906 794.164062 483.898438 772.496094 470.472656 C 784.003906 467.972656 793.21875 470.976562 800.140625 479.460938 C 805.570312 485.894531 808.792969 493.210938 809.800781 501.402344 L 809.992188 510.6875 C 809.667969 515.671875 808.972656 520.492188 807.90625 525.164062 " fill-opacity="1" fill-rule="evenodd"/></g><path fill="rgb(100%, 100%, 100%)" d="M 375.265625 682.332031 L 339.097656 682.332031 C 334.171875 682.332031 331.714844 684.726562 331.714844 689.53125 L 331.714844 725.859375 C 331.714844 730.648438 334.171875 733.058594 339.097656 733.058594 L 375.265625 733.058594 C 380.058594 733.058594 382.453125 730.648438 382.453125 725.859375 L 382.453125 689.53125 C 382.453125 684.726562 380.058594 682.332031 375.265625 682.332031 Z M 401.964844 633.125 L 565.550781 633.125 L 565.550781 626.308594 L 401.964844 626.308594 Z M 401.964844 646.566406 L 565.550781 646.566406 L 565.550781 639.75 L 401.964844 639.75 Z M 401.578125 660.199219 L 513.484375 660.199219 L 513.484375 653.382812 L 401.578125 653.382812 Z M 375.265625 621.207031 L 339.097656 621.207031 C 334.171875 621.207031 331.714844 623.605469 331.714844 628.394531 L 331.714844 664.738281 C 331.714844 669.527344 334.171875 671.921875 339.097656 671.921875 L 375.265625 671.921875 C 380.058594 671.921875 382.453125 669.527344 382.453125 664.738281 L 382.453125 628.394531 C 382.453125 623.605469 380.058594 621.207031 375.265625 621.207031 Z M 375.265625 559.894531 L 339.097656 559.894531 C 334.171875 559.894531 331.714844 562.289062 331.714844 567.078125 L 331.714844 603.421875 C 331.714844 608.210938 334.171875 610.609375 339.097656 610.609375 L 375.265625 610.609375 C 380.058594 610.609375 382.453125 608.210938 382.453125 603.421875 L 382.453125 567.078125 C 382.453125 562.289062 380.058594 559.894531 375.265625 559.894531 Z M 401.578125 599.253906 L 513.484375 599.253906 L 513.484375 592.4375 L 401.578125 592.4375 Z M 631.4375 578.242188 L 631.4375 660.375 C 611.066406 667.515625 589.117188 677.113281 565.550781 689.148438 L 565.550781 687.445312 L 401.964844 687.445312 L 401.964844 694.261719 L 555.699219 694.261719 C 551.320312 696.585938 547.121094 698.847656 543.113281 701.066406 L 401.964844 701.066406 L 401.964844 707.878906 L 531.1875 707.878906 C 524.652344 711.738281 518.765625 715.421875 513.484375 718.953125 L 513.484375 713.75 L 401.578125 713.75 L 401.578125 720.566406 L 511.117188 720.566406 C 510.375 721.070312 509.652344 721.570312 508.941406 722.074219 C 499.519531 730.871094 494.757812 739.121094 494.636719 746.871094 L 268.09375 746.871094 L 268.09375 518.628906 L 425.160156 518.628906 C 432.273438 521.613281 439.019531 523.535156 445.410156 524.410156 C 445.425781 525.8125 445.644531 527.292969 446.074219 528.84375 C 447.597656 535.410156 468.796875 547.148438 509.695312 564.046875 C 510.953125 564.566406 512.179688 565.070312 513.394531 565.570312 L 401.964844 565.570312 L 401.964844 572.371094 L 531.1875 572.371094 C 538.054688 574.855469 544.503906 577 550.492188 578.820312 L 401.964844 578.820312 L 401.964844 585.621094 L 565.550781 585.621094 L 565.550781 582.886719 C 579.691406 586.167969 590.742188 587.023438 598.6875 585.441406 C 611.570312 582.898438 622.488281 580.503906 631.4375 578.242188 Z M 331.332031 382.941406 L 331.332031 419.269531 C 331.332031 424.0625 333.800781 426.472656 338.714844 426.472656 L 374.878906 426.472656 C 379.671875 426.472656 382.082031 424.0625 382.082031 419.269531 L 382.082031 382.941406 C 382.082031 378.136719 379.671875 375.742188 374.878906 375.742188 L 338.714844 375.742188 C 333.800781 375.742188 331.332031 378.136719 331.332031 382.941406 Z M 542.917969 401.484375 L 564.988281 401.484375 L 564.988281 394.667969 L 536.675781 394.667969 C 532.359375 391.769531 526.589844 390.320312 519.355469 390.320312 L 431.503906 390.320312 C 424.257812 390.320312 418.488281 391.769531 414.167969 394.667969 L 401.386719 394.667969 L 401.386719 401.484375 L 407.925781 401.484375 C 407.054688 403.023438 406.359375 404.738281 405.839844 406.601562 L 401.210938 406.601562 L 401.210938 413.402344 L 404.613281 413.402344 C 404.492188 414.671875 404.421875 416.003906 404.421875 417.378906 L 404.421875 451.25 L 267.710938 451.25 L 267.710938 355.308594 L 631.066406 355.308594 L 631.066406 451.25 L 546.425781 451.25 L 546.425781 417.378906 C 546.425781 410.933594 545.257812 405.625 542.917969 401.484375 Z M 564.988281 381.226562 L 401.386719 381.226562 L 401.386719 388.042969 L 564.988281 388.042969 L 564.988281 381.226562 " fill-opacity="1" fill-rule="evenodd"/><g clip-path="url(#clip-5)"><path fill="rgb(17.248535%, 24.708557%, 55.288696%)" d="M 696.949219 729.835938 C 687.023438 727.203125 680.148438 726.984375 676.316406 729.171875 C 663.253906 726.109375 656.183594 727.78125 655.101562 734.183594 L 552.859375 734.183594 L 670.074219 709.019531 C 688.132812 705.914062 701.460938 699.289062 710.011719 689.148438 C 717.082031 680.808594 720.898438 670.089844 721.476562 656.976562 L 727.050781 656.976562 C 729.539062 659.8125 732.628906 665.433594 736.34375 673.816406 C 739.863281 682.140625 738.414062 693.433594 731.976562 707.6875 C 728.324219 715.628906 720.382812 721.882812 708.117188 726.4375 C 704.730469 727.707031 701.003906 728.832031 696.949219 729.835938 Z M 375.265625 621.207031 C 380.058594 621.207031 382.453125 623.605469 382.453125 628.394531 L 382.453125 664.738281 C 382.453125 669.527344 380.058594 671.921875 375.265625 671.921875 L 339.097656 671.921875 C 334.171875 671.921875 331.714844 669.527344 331.714844 664.738281 L 331.714844 628.394531 C 331.714844 623.605469 334.171875 621.207031 339.097656 621.207031 Z M 331.332031 382.941406 C 331.332031 378.136719 333.800781 375.742188 338.714844 375.742188 L 374.878906 375.742188 C 379.671875 375.742188 382.082031 378.136719 382.082031 382.941406 L 382.082031 419.269531 C 382.082031 424.0625 379.671875 426.472656 374.878906 426.472656 L 338.714844 426.472656 C 333.800781 426.472656 331.332031 424.0625 331.332031 419.269531 Z M 690.132812 769.195312 C 690.101562 768.898438 690.070312 768.574219 690.042969 768.25 C 692.277344 768.707031 694.613281 769.019531 697.054688 769.195312 Z M 707.75 769.195312 C 709.050781 769.105469 710.277344 768.988281 711.433594 768.824219 C 712.601562 768.988281 713.796875 769.105469 715.042969 769.195312 Z M 725.824219 769.195312 C 730.972656 768.839844 735.160156 767.953125 738.414062 766.546875 C 738.945312 766.726562 739.476562 766.890625 740.023438 767.023438 C 740.144531 767.777344 740.234375 768.515625 740.304688 769.195312 L 725.824219 769.195312 " fill-opacity="1" fill-rule="evenodd"/></g><path fill="rgb(33.729553%, 8.239746%, 9.799194%)" d="M 739.359375 433.464844 C 738.175781 433.894531 736.902344 434.261719 735.574219 434.601562 C 731.03125 435.742188 725.734375 436.304688 719.671875 436.304688 C 716.152344 436.304688 712.925781 435.890625 710.011719 435.078125 C 708.339844 434.617188 706.757812 434.011719 705.277344 433.273438 C 704.480469 432.875 703.710938 432.445312 703.015625 431.957031 C 698.59375 429.042969 696.386719 424.828125 696.386719 419.269531 C 696.386719 418.902344 698.59375 417.628906 703.015625 415.484375 C 707.4375 413.222656 709.640625 410.636719 709.640625 407.722656 C 709.640625 405.578125 708.945312 403.6875 707.554688 402.046875 C 705.914062 400.035156 703.652344 399.03125 700.738281 399.03125 C 699.09375 399.03125 696.890625 399.976562 694.109375 401.867188 C 691.078125 403.878906 689.820312 405.964844 690.324219 408.109375 C 687.792969 405.578125 685.28125 400.980469 682.75 394.296875 C 679.984375 393.914062 677.144531 393.46875 674.230469 392.96875 C 667.796875 391.460938 663.625 387.410156 661.730469 380.859375 C 659.71875 374.042969 663.625 367.417969 673.476562 360.988281 C 681.980469 355.355469 694.167969 352.128906 710.011719 351.332031 C 712.273438 351.230469 714.613281 351.15625 717.023438 351.140625 C 736.207031 350.886719 750.914062 355.058594 761.132812 363.632812 C 761.398438 363.886719 761.636719 364.136719 761.902344 364.386719 C 770.984375 376.882812 770.984375 389.878906 761.902344 403.375 C 756.089844 412.972656 752.363281 419.65625 750.71875 423.441406 C 749.09375 427.226562 745.304688 430.566406 739.359375 433.464844 " fill-opacity="1" fill-rule="evenodd"/><path fill="rgb(94.509888%, 24.308777%, 65.489197%)" d="M 536.675781 394.667969 C 539.296875 396.414062 541.382812 398.691406 542.917969 401.484375 C 545.257812 405.625 546.425781 410.933594 546.425781 417.378906 L 546.425781 478.324219 C 546.425781 480.613281 546.261719 482.757812 545.953125 484.753906 C 545.90625 485.199219 545.847656 485.640625 545.757812 486.085938 C 544.546875 492.664062 541.648438 497.558594 537.0625 500.753906 C 533.96875 501.609375 531.382812 502.777344 529.296875 504.242188 C 526.367188 505.011719 523.054688 505.378906 519.355469 505.378906 L 476.648438 505.378906 C 475.835938 503.519531 473.914062 501.625 470.882812 499.703125 C 470.496094 499.332031 469.992188 499.007812 469.371094 498.757812 C 467.347656 497.5 464.949219 496.226562 462.167969 494.972656 C 452.953125 490.933594 445.707031 488.925781 440.394531 488.925781 L 438.886719 489.679688 C 437.863281 490.046875 437.363281 491.570312 437.363281 494.21875 C 437.363281 495.105469 440.144531 497.367188 445.707031 501.035156 C 443.425781 501.757812 440.898438 502.617188 438.132812 503.589844 C 428.160156 500.160156 423.160156 491.75 423.160156 478.324219 L 423.160156 417.378906 C 423.160156 399.738281 431.816406 390.707031 449.105469 390.320312 L 519.355469 390.320312 C 526.589844 390.320312 532.359375 391.769531 536.675781 394.667969 " fill-opacity="1" fill-rule="evenodd"/></svg>