<svg xmlns="http://www.w3.org/2000/svg" version="1.1" xmlns:xlink="http://www.w3.org/1999/xlink" xmlns:svgjs="http://svgjs.com/svgjs" width="1440" height="560" preserveAspectRatio="none" viewBox="0 0 1440 560"><g mask="url(&quot;#SvgjsMask1012&quot;)" fill="none"><rect width="1440" height="560" x="0" y="0" fill="rgba(39, 40, 44, 1)"></rect><path d="M295 375L-753 374" stroke-width="8" stroke="url(#SvgjsLinearGradient1013)" stroke-linecap="round" class="Left"></path><path d="M590 322L1309 321" stroke-width="10" stroke="url(#SvgjsLinearGradient1013)" stroke-linecap="round" class="Left"></path><path d="M723 559L1257 558" stroke-width="8" stroke="url(#SvgjsLinearGradient1013)" stroke-linecap="round" class="Left"></path><path d="M1215 77L1924 76" stroke-width="8" stroke="url(#SvgjsLinearGradient1014)" stroke-linecap="round" class="Right"></path><path d="M297 492L1306 491" stroke-width="10" stroke="url(#SvgjsLinearGradient1013)" stroke-linecap="round" class="Left"></path><path d="M365 4L1243 3" stroke-width="8" stroke="url(#SvgjsLinearGradient1014)" stroke-linecap="round" class="Right"></path><path d="M411 199L1023 198" stroke-width="6" stroke="url(#SvgjsLinearGradient1014)" stroke-linecap="round" class="Right"></path><path d="M555 481L91 480" stroke-width="10" stroke="url(#SvgjsLinearGradient1014)" stroke-linecap="round" class="Right"></path><path d="M75 332L-736 331" stroke-width="8" stroke="url(#SvgjsLinearGradient1014)" stroke-linecap="round" class="Right"></path><path d="M1432 224L1868 223" stroke-width="8" stroke="url(#SvgjsLinearGradient1013)" stroke-linecap="round" class="Left"></path><path d="M1393 45L2387 44" stroke-width="6" stroke="url(#SvgjsLinearGradient1014)" stroke-linecap="round" class="Right"></path><path d="M532 302L1244 301" stroke-width="8" stroke="url(#SvgjsLinearGradient1013)" stroke-linecap="round" class="Left"></path><path d="M495 166L103 165" stroke-width="10" stroke="url(#SvgjsLinearGradient1014)" stroke-linecap="round" class="Right"></path><path d="M686 289L1056 288" stroke-width="8" stroke="url(#SvgjsLinearGradient1013)" stroke-linecap="round" class="Left"></path></g><defs><mask id="SvgjsMask1012"><rect width="1440" height="560" fill="#ffffff"></rect></mask><linearGradient x1="100%" y1="0%" x2="0%" y2="0%" id="SvgjsLinearGradient1013"><stop stop-color="rgba(107, 87, 255, 0)" offset="0"></stop><stop stop-color="rgba(107, 87, 255, 1)" offset="1"></stop></linearGradient><linearGradient x1="0%" y1="0%" x2="100%" y2="0%" id="SvgjsLinearGradient1014"><stop stop-color="rgba(107, 87, 255, 0)" offset="0"></stop><stop stop-color="rgba(107, 87, 255, 1)" offset="1"></stop></linearGradient></defs></svg>