<svg xmlns="http://www.w3.org/2000/svg" version="1.1" xmlns:xlink="http://www.w3.org/1999/xlink" xmlns:svgjs="http://svgjs.com/svgjs" width="1440" height="560" preserveAspectRatio="none" viewBox="0 0 1440 560">
    <g mask="url(&quot;#SvgjsMask1129&quot;)" fill="none">
        <rect width="1440" height="560" x="0" y="0" fill="rgba(41, 40, 46, 1)"></rect>
        <path d="M 0,127 C 57.6,147.4 172.8,250.4 288,229 C 403.2,207.6 460.8,14 576,20 C 691.2,26 748.8,258.4 864,259 C 979.2,259.6 1036.8,44.4 1152,23 C 1267.2,1.6 1382.4,126.2 1440,152L1440 560L0 560z" fill="rgba(22, 125, 255, 1)"></path>
        <path d="M 0,539 C 96,497.4 288,335.4 480,331 C 672,326.6 768,500.2 960,517 C 1152,533.8 1344,435.4 1440,415L1440 560L0 560z" fill="rgba(41, 40, 46, 1)"></path>
    </g>
    <linearGradient id="gradient1" x1="0%" x2="50%" y1="85.457%" y2="14.543%">
        <stop offset="0%" stop-color="#7284ff"/>
        <stop offset="51.945%" stop-color="#854edb"/>
        <stop offset="100%" stop-color="#5A77FF"/>
        </linearGradient>
    <defs>
        <mask id="SvgjsMask1129">
            <rect width="1440" height="560" fill="url(#gradient1)"></rect>
        </mask>
    </defs>
</svg>