<svg width="175" height="93" viewBox="80 0 175 93" fill="none" xmlns="http://www.w3.org/2000/svg">
<!-- <circle cx="42.5" cy="50.5" r="42.5" fill="url(#paint0_linear_4_480)"/>
<circle cx="42.5" cy="50.5" r="42" stroke="#6224E6" stroke-opacity="0.68"/> -->
<path d="M95.648 67.42H97.34L98.906 77.896L100.868 67.474H102.308L104.288 77.95L105.818 67.42H107.474L105.134 82H103.658L101.624 71.2L99.572 82H98.024L95.648 67.42ZM111.79 82.144C110.986 82.144 110.362 81.994 109.918 81.694C109.474 81.382 109.162 80.926 108.982 80.326C108.802 79.726 108.712 78.946 108.712 77.986V75.61C108.712 74.17 108.934 73.12 109.378 72.46C109.834 71.788 110.638 71.452 111.79 71.452C112.63 71.452 113.26 71.626 113.68 71.974C114.112 72.322 114.394 72.814 114.526 73.45C114.67 74.074 114.742 74.92 114.742 75.988V76.834H110.638V78.922C110.638 79.558 110.728 80.02 110.908 80.308C111.1 80.584 111.4 80.722 111.808 80.722C112.216 80.722 112.492 80.584 112.636 80.308C112.78 80.02 112.852 79.588 112.852 79.012V78.382H114.724V78.778C114.724 79.87 114.49 80.704 114.022 81.28C113.554 81.856 112.81 82.144 111.79 82.144ZM112.852 75.79V74.854C112.852 74.146 112.78 73.642 112.636 73.342C112.504 73.03 112.216 72.874 111.772 72.874C111.46 72.874 111.22 72.946 111.052 73.09C110.896 73.234 110.788 73.474 110.728 73.81C110.668 74.134 110.638 74.608 110.638 75.232V75.79H112.852ZM120.212 82.144C119.588 82.144 119 81.844 118.448 81.244V82H116.522V67.42H118.448V72.424C119.012 71.776 119.666 71.452 120.41 71.452C121.358 71.452 121.988 71.86 122.3 72.676C122.624 73.48 122.786 74.374 122.786 75.358V77.878C122.786 80.722 121.928 82.144 120.212 82.144ZM119.816 80.632C120.26 80.632 120.542 80.41 120.662 79.966C120.794 79.51 120.86 78.814 120.86 77.878V75.358C120.86 74.59 120.788 74.002 120.644 73.594C120.5 73.174 120.2 72.964 119.744 72.964C119.324 72.964 118.892 73.138 118.448 73.486V80.164C118.844 80.476 119.3 80.632 119.816 80.632ZM131.062 82.144C130.162 82.144 129.502 81.82 129.082 81.172C128.662 80.512 128.452 79.426 128.452 77.914V75.898C128.452 74.518 128.632 73.432 128.992 72.64C129.364 71.848 130.036 71.452 131.008 71.452C131.62 71.452 132.196 71.722 132.736 72.262V67.42H134.662V82H132.736V81.334C132.232 81.874 131.674 82.144 131.062 82.144ZM131.548 80.632C131.932 80.632 132.328 80.5 132.736 80.236V73.414C132.292 73.114 131.884 72.964 131.512 72.964C130.756 72.964 130.378 73.69 130.378 75.142V78.076C130.378 78.916 130.456 79.552 130.612 79.984C130.768 80.416 131.08 80.632 131.548 80.632ZM139.493 82.144C138.689 82.144 138.065 81.994 137.621 81.694C137.177 81.382 136.865 80.926 136.685 80.326C136.505 79.726 136.415 78.946 136.415 77.986V75.61C136.415 74.17 136.637 73.12 137.081 72.46C137.537 71.788 138.341 71.452 139.493 71.452C140.333 71.452 140.963 71.626 141.383 71.974C141.815 72.322 142.097 72.814 142.229 73.45C142.373 74.074 142.445 74.92 142.445 75.988V76.834H138.341V78.922C138.341 79.558 138.431 80.02 138.611 80.308C138.803 80.584 139.103 80.722 139.511 80.722C139.919 80.722 140.195 80.584 140.339 80.308C140.483 80.02 140.555 79.588 140.555 79.012V78.382H142.427V78.778C142.427 79.87 142.193 80.704 141.725 81.28C141.257 81.856 140.513 82.144 139.493 82.144ZM140.555 75.79V74.854C140.555 74.146 140.483 73.642 140.339 73.342C140.207 73.03 139.919 72.874 139.475 72.874C139.163 72.874 138.923 72.946 138.755 73.09C138.599 73.234 138.491 73.474 138.431 73.81C138.371 74.134 138.341 74.608 138.341 75.232V75.79H140.555ZM143.487 71.596H145.431L146.709 79.966L148.005 71.596H149.877L147.897 82H145.539L143.487 71.596ZM153.995 82.144C153.191 82.144 152.567 81.994 152.123 81.694C151.679 81.382 151.367 80.926 151.187 80.326C151.007 79.726 150.917 78.946 150.917 77.986V75.61C150.917 74.17 151.139 73.12 151.583 72.46C152.039 71.788 152.843 71.452 153.995 71.452C154.835 71.452 155.465 71.626 155.885 71.974C156.317 72.322 156.599 72.814 156.731 73.45C156.875 74.074 156.947 74.92 156.947 75.988V76.834H152.843V78.922C152.843 79.558 152.933 80.02 153.113 80.308C153.305 80.584 153.605 80.722 154.013 80.722C154.421 80.722 154.697 80.584 154.841 80.308C154.985 80.02 155.057 79.588 155.057 79.012V78.382H156.929V78.778C156.929 79.87 156.695 80.704 156.227 81.28C155.759 81.856 155.015 82.144 153.995 82.144ZM155.057 75.79V74.854C155.057 74.146 154.985 73.642 154.841 73.342C154.709 73.03 154.421 72.874 153.977 72.874C153.665 72.874 153.425 72.946 153.257 73.09C153.101 73.234 152.993 73.474 152.933 73.81C152.873 74.134 152.843 74.608 152.843 75.232V75.79H155.057ZM158.871 67.42H160.797V82H158.871V67.42ZM165.666 82.144C164.562 82.144 163.776 81.82 163.308 81.172C162.852 80.512 162.624 79.558 162.624 78.31V75.286C162.624 74.038 162.852 73.09 163.308 72.442C163.776 71.782 164.562 71.452 165.666 71.452C166.758 71.452 167.532 71.782 167.988 72.442C168.456 73.09 168.69 74.038 168.69 75.286V78.31C168.69 79.558 168.456 80.512 167.988 81.172C167.532 81.82 166.758 82.144 165.666 82.144ZM165.666 80.722C166.014 80.722 166.266 80.62 166.422 80.416C166.578 80.212 166.674 79.96 166.71 79.66C166.746 79.36 166.764 78.952 166.764 78.436V75.178C166.764 74.662 166.746 74.254 166.71 73.954C166.674 73.642 166.578 73.384 166.422 73.18C166.266 72.976 166.014 72.874 165.666 72.874C165.318 72.874 165.06 72.976 164.892 73.18C164.736 73.384 164.64 73.642 164.604 73.954C164.568 74.254 164.55 74.662 164.55 75.178V78.436C164.55 78.952 164.568 79.36 164.604 79.66C164.64 79.96 164.736 80.212 164.892 80.416C165.06 80.62 165.318 80.722 165.666 80.722ZM170.451 71.596H172.377V72.424C172.941 71.776 173.601 71.452 174.357 71.452C175.305 71.452 175.935 71.86 176.247 72.676C176.571 73.48 176.733 74.374 176.733 75.358V77.878C176.733 79.15 176.535 80.182 176.139 80.974C175.755 81.754 175.089 82.144 174.141 82.144C173.529 82.144 172.941 81.838 172.377 81.226V85.42H170.451V71.596ZM173.763 80.632C174.207 80.632 174.489 80.41 174.609 79.966C174.741 79.51 174.807 78.814 174.807 77.878V75.358C174.807 74.59 174.735 74.002 174.591 73.594C174.447 73.174 174.147 72.964 173.691 72.964C173.247 72.964 172.809 73.144 172.377 73.504V80.164C172.797 80.476 173.259 80.632 173.763 80.632ZM181.364 82.144C180.56 82.144 179.936 81.994 179.492 81.694C179.048 81.382 178.736 80.926 178.556 80.326C178.376 79.726 178.286 78.946 178.286 77.986V75.61C178.286 74.17 178.508 73.12 178.952 72.46C179.408 71.788 180.212 71.452 181.364 71.452C182.204 71.452 182.834 71.626 183.254 71.974C183.686 72.322 183.968 72.814 184.1 73.45C184.244 74.074 184.316 74.92 184.316 75.988V76.834H180.212V78.922C180.212 79.558 180.302 80.02 180.482 80.308C180.674 80.584 180.974 80.722 181.382 80.722C181.79 80.722 182.066 80.584 182.21 80.308C182.354 80.02 182.426 79.588 182.426 79.012V78.382H184.298V78.778C184.298 79.87 184.064 80.704 183.596 81.28C183.128 81.856 182.384 82.144 181.364 82.144ZM182.426 75.79V74.854C182.426 74.146 182.354 73.642 182.21 73.342C182.078 73.03 181.79 72.874 181.346 72.874C181.034 72.874 180.794 72.946 180.626 73.09C180.47 73.234 180.362 73.474 180.302 73.81C180.242 74.134 180.212 74.608 180.212 75.232V75.79H182.426ZM186.114 71.596H188.04V73.072C188.4 72.484 188.766 72.07 189.138 71.83C189.522 71.59 189.924 71.47 190.344 71.47C190.452 71.47 190.554 71.476 190.65 71.488V73.612C190.266 73.468 189.912 73.396 189.588 73.396C189.276 73.396 188.994 73.474 188.742 73.63C188.502 73.774 188.268 74.032 188.04 74.404V82H186.114V71.596Z" fill="#B9B9B9"/>
<path d="M103.69 60.44C102.48 60.44 101.38 60.0917 100.39 59.395C99.4367 58.6983 98.685 57.7817 98.135 56.645C97.585 55.5083 97.31 54.3167 97.31 53.07C97.31 50.5767 97.8417 48.56 98.905 47.02C99.9683 45.4433 101.325 44.1967 102.975 43.28C104.625 42.3633 106.917 41.3183 109.85 40.145V37.89C109.85 35.8 109.63 34.3333 109.19 33.49C108.787 32.61 107.943 32.17 106.66 32.17C104.423 32.17 103.305 33.6733 103.305 36.68V38.275L97.475 38.055C97.5483 34.535 98.355 31.95 99.895 30.3C101.435 28.6133 103.818 27.77 107.045 27.77C110.088 27.77 112.288 28.6133 113.645 30.3C115.038 31.95 115.735 34.4617 115.735 37.835V52.355C115.735 54.7383 115.918 57.2867 116.285 60H110.895C110.492 57.91 110.235 56.3517 110.125 55.325C109.685 56.755 108.915 57.965 107.815 58.955C106.752 59.945 105.377 60.44 103.69 60.44ZM106 55.38C106.77 55.38 107.522 55.0867 108.255 54.5C108.988 53.8767 109.52 53.29 109.85 52.74V43.72C108.273 44.6 107.045 45.37 106.165 46.03C105.322 46.6533 104.607 47.3867 104.02 48.23C103.47 49.0733 103.195 50.0817 103.195 51.255C103.195 52.575 103.433 53.6017 103.91 54.335C104.387 55.0317 105.083 55.38 106 55.38ZM121.388 28.21H126.833V31.235C127.896 30.0617 129.051 29.1817 130.298 28.595C131.581 27.9717 132.92 27.66 134.313 27.66C137.026 27.66 138.75 28.9983 139.483 31.675C141.683 28.9983 144.323 27.66 147.403 27.66C149.053 27.66 150.391 28.265 151.418 29.475C152.481 30.685 153.013 32.5367 153.013 35.03V60H147.623V35.415C147.623 33.9483 147.385 32.94 146.908 32.39C146.431 31.8033 145.753 31.51 144.873 31.51C144.066 31.51 143.223 31.7483 142.343 32.225C141.463 32.665 140.656 33.2883 139.923 34.095V35.03V60H134.533V35.415C134.533 33.9483 134.295 32.94 133.818 32.39C133.341 31.8033 132.663 31.51 131.783 31.51C131.013 31.51 130.188 31.7483 129.308 32.225C128.428 32.665 127.603 33.2883 126.833 34.095V60H121.388V28.21ZM158.496 53.455H164.381V60H158.496V53.455ZM176.507 60.44C173.757 60.44 171.74 59.45 170.457 57.47C169.174 55.4533 168.532 52.135 168.532 47.515V41.355C168.532 37.1383 169.082 33.82 170.182 31.4C171.319 28.98 173.372 27.77 176.342 27.77C178.212 27.77 179.972 28.595 181.622 30.245V15.45H187.507V60H181.622V57.965C180.082 59.615 178.377 60.44 176.507 60.44ZM177.992 55.82C179.165 55.82 180.375 55.4167 181.622 54.61V33.765C180.265 32.8483 179.019 32.39 177.882 32.39C175.572 32.39 174.417 34.6083 174.417 39.045V48.01C174.417 50.5767 174.655 52.52 175.132 53.84C175.609 55.16 176.562 55.82 177.992 55.82ZM202.268 60.44C199.811 60.44 197.905 59.9817 196.548 59.065C195.191 58.1117 194.238 56.7183 193.688 54.885C193.138 53.0517 192.863 50.6683 192.863 47.735V40.475C192.863 36.075 193.541 32.8667 194.898 30.85C196.291 28.7967 198.748 27.77 202.268 27.77C204.835 27.77 206.76 28.3017 208.043 29.365C209.363 30.4283 210.225 31.9317 210.628 33.875C211.068 35.7817 211.288 38.3667 211.288 41.63V44.215H198.748V50.595C198.748 52.5383 199.023 53.95 199.573 54.83C200.16 55.6733 201.076 56.095 202.323 56.095C203.57 56.095 204.413 55.6733 204.853 54.83C205.293 53.95 205.513 52.63 205.513 50.87V48.945H211.233V50.155C211.233 53.4917 210.518 56.04 209.088 57.8C207.658 59.56 205.385 60.44 202.268 60.44ZM205.513 41.025V38.165C205.513 36.0017 205.293 34.4617 204.853 33.545C204.45 32.5917 203.57 32.115 202.213 32.115C201.26 32.115 200.526 32.335 200.013 32.775C199.536 33.215 199.206 33.9483 199.023 34.975C198.84 35.965 198.748 37.4133 198.748 39.32V41.025H205.513ZM214.472 28.21H220.412L224.317 53.785L228.277 28.21H233.997L227.947 60H220.742L214.472 28.21Z" fill="url(#paint1_linear_4_480)"/>
<defs>
<linearGradient id="paint0_linear_4_480" x1="0" y1="64" x2="0" y2="24.5" gradientUnits="userSpaceOnUse">
<stop offset="0.462778" stop-color="#6224E6" stop-opacity="0.68"/>
<stop offset="0.84375" stop-color="#6426E9" stop-opacity="0"/>
</linearGradient>
<linearGradient id="paint1_linear_4_480" x1="165" y1="-6" x2="165" y2="76" gradientUnits="userSpaceOnUse">
<stop offset="0.359375" stop-color="#B721FF"/>
<stop offset="0.953125" stop-color="#21D4FD"/>
</linearGradient>
</defs>
</svg>
