<svg width="681" height="693" viewBox="0 0 681 693" fill="none" xmlns="http://www.w3.org/2000/svg">
<path fill-rule="evenodd" clip-rule="evenodd" d="M186.918 495.555L148.986 468L66 528.282L97.6979 625.822H151.688L198.771 653L275 584.375L233.278 490.683L186.918 495.555ZM193.248 500.153L186.918 495.555L131.264 501.403L109.937 601.721L151.688 625.822H162.159L250.924 662.625L321.5 599.089L230.043 496.286L193.248 500.153ZM193.248 500.153L231.972 528.282L200.274 625.822H162.159L115.849 599.089L135.594 506.211L193.248 500.153Z" fill="#B721FF" fill-opacity="0.28"/>
<path d="M627 317L674.553 351.549L656.389 407.451H597.611L579.447 351.549L627 317Z" fill="#A4A4A4" fill-opacity="0.28"/>
<path d="M322.507 7.99172L324.137 4.33057L325.05 4.73731L325.57 3.57047L326.84 3.70398L326.945 2.70945L330.93 3.12837L330.826 4.12289L334.812 4.5418L334.916 3.54728L338.902 3.96619L338.797 4.96071L342.783 5.37962L342.887 4.3851L346.873 4.80401L346.769 5.79853L350.754 6.21745L350.859 5.22292L354.844 5.64183L354.74 6.63636L358.726 7.05527L358.83 6.06074L362.816 6.47965L362.711 7.47418L366.697 7.89309L366.801 6.89857L370.787 7.31748L370.683 8.312L374.668 8.73091L374.773 7.73639L378.758 8.1553L378.654 9.14982L382.64 9.56873L382.744 8.57421L386.73 8.99312L386.625 9.98764L390.611 10.4066L390.716 9.41203L394.701 9.83094L394.597 10.8255L398.582 11.2444L398.687 10.2499L402.673 10.6688L402.568 11.6633L406.554 12.0822L406.658 11.0877L410.644 11.5066L410.539 12.5011L411.81 12.6346L412.075 13.884L413.053 13.6761L413.887 17.5961L412.908 17.804L413.742 21.7241L414.72 21.5162L415.553 25.4362L414.575 25.6441L415.408 29.5642L416.386 29.3563L417.219 33.2763L416.241 33.4842L417.075 37.4043L418.053 37.1964L418.886 41.1164L417.908 41.3243L418.741 45.2444L419.719 45.0365L420.552 48.9565L419.574 49.1644L420.407 53.0845L421.386 52.8766L422.219 56.7966L421.241 57.0045L422.074 60.9246L423.052 60.7167L423.885 64.6367L422.907 64.8446L423.74 68.7647L424.719 68.5568L425.552 72.4768L424.574 72.6847L425.407 76.6048L426.385 76.3969L427.218 80.3169L426.24 80.5248L427.073 84.4449L428.051 84.237L428.885 88.157L427.907 88.3649L428.74 92.285L429.718 92.0771L430.551 95.9971L429.573 96.205L429.839 97.4544L428.732 98.093L429.232 98.9591L425.762 100.963L425.262 100.097L421.791 102.101L422.291 102.967L418.82 104.97L418.32 104.104L414.85 106.108L415.35 106.974L411.879 108.978L411.379 108.112L407.908 110.116L408.408 110.982L404.938 112.986L404.438 112.12L400.967 114.124L401.467 114.99L397.996 116.993L397.496 116.127L394.025 118.131L394.525 118.997L391.055 121.001L390.555 120.135L387.084 122.139L387.584 123.005L384.113 125.009L383.613 124.143L380.143 126.146L380.643 127.012L377.172 129.016L376.672 128.15L373.201 130.154L373.701 131.02L370.23 133.024L369.73 132.158L366.26 134.162L366.76 135.028L363.289 137.032L362.789 136.165L359.318 138.169L359.818 139.035L356.348 141.039L355.848 140.173L354.741 140.812L353.792 139.957L353.123 140.7L350.145 138.019L350.814 137.275L347.836 134.594L347.167 135.337L344.188 132.655L344.858 131.912L341.879 129.231L341.21 129.974L338.232 127.292L338.901 126.549L335.923 123.867L335.254 124.61L332.275 121.929L332.945 121.186L329.966 118.504L329.297 119.247L326.319 116.566L326.988 115.822L324.01 113.141L323.341 113.884L320.362 111.202L321.032 110.459L318.053 107.778L317.384 108.521L314.406 105.839L315.075 105.096L312.097 102.414L311.428 103.157L308.449 100.476L309.119 99.7327L306.14 97.0511L305.471 97.7942L302.493 95.1126L303.162 94.3694L300.184 91.6878L299.515 92.431L296.536 89.7493L297.206 89.0062L294.227 86.3246L293.558 87.0677L290.58 84.3861L291.249 83.6429L290.3 82.7883L290.819 81.6214L289.906 81.2147L291.536 77.5536L292.449 77.9603L294.08 74.2991L293.166 73.8924L294.796 70.2313L295.71 70.638L297.34 66.9768L296.426 66.5701L298.056 62.909L298.97 63.3157L300.6 59.6545L299.686 59.2478L301.316 55.5867L302.23 55.9934L303.86 52.3322L302.946 51.9255L304.576 48.2644L305.49 48.6711L307.12 45.0099L306.206 44.6032L307.836 40.9421L308.75 41.3488L310.38 37.6876L309.466 37.2809L311.096 33.6198L312.01 34.0265L313.64 30.3654L312.727 29.9586L314.357 26.2975L315.27 26.7042L316.9 23.0431L315.987 22.6363L317.617 18.9752L318.53 19.3819L320.16 15.7208L319.247 15.314L320.877 11.6529L321.79 12.0596L323.42 8.39846L322.507 7.99172Z" stroke="#21D4FD" stroke-opacity="0.28" stroke-width="2" stroke-dasharray="4 4"/>
<g filter="url(#filter0_b_4_546)">
<path d="M626 425.5C626 526.844 543.844 609 442.5 609C341.156 609 259 526.844 259 425.5C259 324.156 341.156 242 442.5 242C543.844 242 626 324.156 626 425.5Z" fill="#B721FF" fill-opacity="0.28"/>
</g>
<g filter="url(#filter1_b_4_546)">
<circle cx="346.5" cy="233.5" r="183.5" fill="white" fill-opacity="0.28"/>
</g>
<g filter="url(#filter2_b_4_546)">
<circle cx="194" cy="404" r="139" fill="#21D4FD" fill-opacity="0.28"/>
</g>
<g filter="url(#filter3_d_4_546)">
<path d="M31 140C31 128.954 39.9543 120 51 120H274C285.046 120 294 128.954 294 140V222C294 233.046 285.046 242 274 242H51C39.9543 242 31 233.046 31 222V140Z" fill="white"/>
</g>
<path d="M77.448 222H70.602V220.698L73.15 218.122C73.654 217.609 74.0647 217.17 74.382 216.806C74.7087 216.442 74.9467 216.101 75.096 215.784C75.2547 215.457 75.334 215.107 75.334 214.734C75.334 214.277 75.2033 213.936 74.942 213.712C74.6807 213.479 74.3353 213.362 73.906 213.362C73.486 213.362 73.094 213.451 72.73 213.628C72.366 213.796 71.988 214.039 71.596 214.356L70.63 213.194C71.0407 212.839 71.5073 212.531 72.03 212.27C72.5527 211.999 73.2107 211.864 74.004 211.864C74.648 211.864 75.2033 211.981 75.67 212.214C76.1367 212.438 76.4913 212.751 76.734 213.152C76.986 213.553 77.112 214.02 77.112 214.552C77.112 215.093 77.0047 215.593 76.79 216.05C76.5753 216.498 76.2627 216.951 75.852 217.408C75.4507 217.856 74.97 218.341 74.41 218.864L72.828 220.39V220.474H77.448V222ZM78.8937 221.104C78.8937 220.712 78.9964 220.437 79.2017 220.278C79.4071 220.11 79.6591 220.026 79.9577 220.026C80.2471 220.026 80.4991 220.11 80.7137 220.278C80.9284 220.437 81.0357 220.712 81.0357 221.104C81.0357 221.487 80.9284 221.762 80.7137 221.93C80.4991 222.098 80.2471 222.182 79.9577 222.182C79.6591 222.182 79.4071 222.098 79.2017 221.93C78.9964 221.762 78.8937 221.487 78.8937 221.104ZM87.3959 222H85.6319V215.77C85.6319 215.471 85.6365 215.154 85.6459 214.818C85.6552 214.482 85.6692 214.169 85.6879 213.88C85.5945 213.973 85.4779 214.085 85.3379 214.216C85.1979 214.337 85.0532 214.463 84.9039 214.594L83.7839 215.49L82.9019 214.398L85.9259 212.004H87.3959V222ZM92.6916 211.864C93.4476 211.864 94.0169 212.139 94.3996 212.69C94.7916 213.231 94.9876 213.997 94.9876 214.986C94.9876 215.975 94.8009 216.75 94.4276 217.31C94.0636 217.861 93.4849 218.136 92.6916 218.136C91.9636 218.136 91.4083 217.861 91.0256 217.31C90.6523 216.75 90.4656 215.975 90.4656 214.986C90.4656 213.997 90.6429 213.231 90.9976 212.69C91.3523 212.139 91.9169 211.864 92.6916 211.864ZM99.5376 212.004L93.9936 222H92.5656L98.1096 212.004H99.5376ZM92.7056 213.082C92.1829 213.082 91.9216 213.721 91.9216 215C91.9216 216.279 92.1829 216.918 92.7056 216.918C93.2469 216.918 93.5176 216.279 93.5176 215C93.5176 213.721 93.2469 213.082 92.7056 213.082ZM99.3696 215.854C100.107 215.854 100.672 216.129 101.064 216.68C101.456 217.231 101.652 217.996 101.652 218.976C101.652 219.965 101.465 220.74 101.092 221.3C100.728 221.851 100.154 222.126 99.3696 222.126C98.6323 222.126 98.0723 221.851 97.6896 221.3C97.3163 220.74 97.1296 219.965 97.1296 218.976C97.1296 217.996 97.3069 217.231 97.6616 216.68C98.0256 216.129 98.5949 215.854 99.3696 215.854ZM99.3696 217.086C98.8469 217.086 98.5856 217.721 98.5856 218.99C98.5856 220.278 98.8469 220.922 99.3696 220.922C99.9203 220.922 100.196 220.278 100.196 218.99C100.196 217.721 99.9203 217.086 99.3696 217.086Z" fill="#11BF2D"/>
<path d="M108.704 222L105.82 214.412H107.682L109.194 218.794C109.288 219.065 109.372 219.363 109.446 219.69C109.53 220.017 109.582 220.292 109.6 220.516H109.656C109.684 220.283 109.74 220.007 109.824 219.69C109.908 219.363 109.997 219.065 110.09 218.794L111.602 214.412H113.464L110.58 222H108.704ZM119.763 219.802C119.763 220.567 119.488 221.151 118.937 221.552C118.396 221.944 117.616 222.14 116.599 222.14C116.067 222.14 115.61 222.103 115.227 222.028C114.854 221.953 114.49 221.837 114.135 221.678V220.18C114.508 220.357 114.919 220.507 115.367 220.628C115.824 220.749 116.254 220.81 116.655 220.81C117.14 220.81 117.49 220.735 117.705 220.586C117.92 220.437 118.027 220.236 118.027 219.984C118.027 219.835 117.985 219.704 117.901 219.592C117.817 219.471 117.649 219.34 117.397 219.2C117.154 219.06 116.79 218.887 116.305 218.682C115.82 218.495 115.414 218.304 115.087 218.108C114.77 217.903 114.527 217.665 114.359 217.394C114.2 217.123 114.121 216.773 114.121 216.344C114.121 215.663 114.387 215.149 114.919 214.804C115.46 214.449 116.179 214.272 117.075 214.272C117.542 214.272 117.98 214.319 118.391 214.412C118.811 214.505 119.231 214.645 119.651 214.832L119.091 216.134C118.736 215.985 118.391 215.859 118.055 215.756C117.719 215.653 117.374 215.602 117.019 215.602C116.244 215.602 115.857 215.821 115.857 216.26C115.857 216.419 115.904 216.554 115.997 216.666C116.1 216.778 116.272 216.899 116.515 217.03C116.767 217.151 117.122 217.301 117.579 217.478C118.027 217.655 118.414 217.842 118.741 218.038C119.068 218.225 119.32 218.458 119.497 218.738C119.674 219.018 119.763 219.373 119.763 219.802ZM126.861 222H125.097V211.36H126.861V222ZM132.14 214.272C133.12 214.272 133.862 214.487 134.366 214.916C134.88 215.345 135.136 216.008 135.136 216.904V222H133.89L133.54 220.95H133.484C133.158 221.361 132.812 221.664 132.448 221.86C132.084 222.047 131.59 222.14 130.964 222.14C130.283 222.14 129.718 221.949 129.27 221.566C128.822 221.183 128.598 220.591 128.598 219.788C128.598 219.004 128.883 218.416 129.452 218.024C130.031 217.632 130.904 217.413 132.07 217.366L133.386 217.324V216.946C133.386 216.47 133.27 216.129 133.036 215.924C132.803 215.709 132.476 215.602 132.056 215.602C131.674 215.602 131.305 215.658 130.95 215.77C130.605 215.882 130.26 216.013 129.914 216.162L129.354 214.93C129.728 214.734 130.152 214.575 130.628 214.454C131.114 214.333 131.618 214.272 132.14 214.272ZM132.462 218.444C131.688 218.472 131.151 218.607 130.852 218.85C130.554 219.083 130.404 219.401 130.404 219.802C130.404 220.166 130.507 220.427 130.712 220.586C130.927 220.735 131.207 220.81 131.552 220.81C132.066 220.81 132.5 220.665 132.854 220.376C133.209 220.077 133.386 219.639 133.386 219.06V218.416L132.462 218.444ZM142.513 219.802C142.513 220.567 142.238 221.151 141.687 221.552C141.146 221.944 140.366 222.14 139.349 222.14C138.817 222.14 138.36 222.103 137.977 222.028C137.604 221.953 137.24 221.837 136.885 221.678V220.18C137.258 220.357 137.669 220.507 138.117 220.628C138.574 220.749 139.004 220.81 139.405 220.81C139.89 220.81 140.24 220.735 140.455 220.586C140.67 220.437 140.777 220.236 140.777 219.984C140.777 219.835 140.735 219.704 140.651 219.592C140.567 219.471 140.399 219.34 140.147 219.2C139.904 219.06 139.54 218.887 139.055 218.682C138.57 218.495 138.164 218.304 137.837 218.108C137.52 217.903 137.277 217.665 137.109 217.394C136.95 217.123 136.871 216.773 136.871 216.344C136.871 215.663 137.137 215.149 137.669 214.804C138.21 214.449 138.929 214.272 139.825 214.272C140.292 214.272 140.73 214.319 141.141 214.412C141.561 214.505 141.981 214.645 142.401 214.832L141.841 216.134C141.486 215.985 141.141 215.859 140.805 215.756C140.469 215.653 140.124 215.602 139.769 215.602C138.994 215.602 138.607 215.821 138.607 216.26C138.607 216.419 138.654 216.554 138.747 216.666C138.85 216.778 139.022 216.899 139.265 217.03C139.517 217.151 139.872 217.301 140.329 217.478C140.777 217.655 141.164 217.842 141.491 218.038C141.818 218.225 142.07 218.458 142.247 218.738C142.424 219.018 142.513 219.373 142.513 219.802ZM147.15 220.726C147.365 220.726 147.575 220.707 147.78 220.67C147.995 220.623 148.191 220.572 148.368 220.516V221.832C148.182 221.916 147.939 221.986 147.64 222.042C147.342 222.107 147.029 222.14 146.702 222.14C146.273 222.14 145.881 222.07 145.526 221.93C145.172 221.781 144.892 221.529 144.686 221.174C144.481 220.819 144.378 220.325 144.378 219.69V215.742H143.356V214.972L144.476 214.356L145.036 212.746H146.142V214.412H148.298V215.742H146.142V219.676C146.142 220.031 146.236 220.297 146.422 220.474C146.609 220.642 146.852 220.726 147.15 220.726ZM157.717 222L161.609 213.53H156.499V212.004H163.499V213.194L159.607 222H157.717ZM171.326 222.14C170.439 222.14 169.725 221.809 169.184 221.146C168.642 220.483 168.372 219.508 168.372 218.22C168.372 216.913 168.647 215.929 169.198 215.266C169.748 214.603 170.472 214.272 171.368 214.272C171.928 214.272 172.385 214.379 172.74 214.594C173.104 214.809 173.393 215.07 173.608 215.378H173.692C173.664 215.247 173.636 215.047 173.608 214.776C173.58 214.505 173.566 214.253 173.566 214.02V211.36H175.33V222H173.958L173.636 221.006H173.566C173.351 221.323 173.066 221.594 172.712 221.818C172.357 222.033 171.895 222.14 171.326 222.14ZM171.858 220.712C172.511 220.712 172.968 220.525 173.23 220.152C173.5 219.779 173.64 219.214 173.65 218.458V218.234C173.65 217.422 173.519 216.801 173.258 216.372C173.006 215.933 172.53 215.714 171.83 215.714C171.288 215.714 170.873 215.938 170.584 216.386C170.304 216.825 170.164 217.445 170.164 218.248C170.164 219.051 170.308 219.662 170.598 220.082C170.887 220.502 171.307 220.712 171.858 220.712ZM180.607 214.272C181.587 214.272 182.329 214.487 182.833 214.916C183.347 215.345 183.603 216.008 183.603 216.904V222H182.357L182.007 220.95H181.951C181.625 221.361 181.279 221.664 180.915 221.86C180.551 222.047 180.057 222.14 179.431 222.14C178.75 222.14 178.185 221.949 177.737 221.566C177.289 221.183 177.065 220.591 177.065 219.788C177.065 219.004 177.35 218.416 177.919 218.024C178.498 217.632 179.371 217.413 180.537 217.366L181.853 217.324V216.946C181.853 216.47 181.737 216.129 181.503 215.924C181.27 215.709 180.943 215.602 180.523 215.602C180.141 215.602 179.772 215.658 179.417 215.77C179.072 215.882 178.727 216.013 178.381 216.162L177.821 214.93C178.195 214.734 178.619 214.575 179.095 214.454C179.581 214.333 180.085 214.272 180.607 214.272ZM180.929 218.444C180.155 218.472 179.618 218.607 179.319 218.85C179.021 219.083 178.871 219.401 178.871 219.802C178.871 220.166 178.974 220.427 179.179 220.586C179.394 220.735 179.674 220.81 180.019 220.81C180.533 220.81 180.967 220.665 181.321 220.376C181.676 220.077 181.853 219.639 181.853 219.06V218.416L180.929 218.444ZM184.68 214.412H186.598L188.11 218.696C188.212 218.967 188.296 219.233 188.362 219.494C188.427 219.755 188.474 220.021 188.502 220.292H188.558C188.595 220.059 188.651 219.802 188.726 219.522C188.8 219.242 188.884 218.967 188.978 218.696L190.434 214.412H192.338L189.104 223.008C188.814 223.764 188.418 224.343 187.914 224.744C187.419 225.155 186.808 225.36 186.08 225.36C185.846 225.36 185.646 225.346 185.478 225.318C185.31 225.299 185.16 225.276 185.03 225.248V223.848C185.132 223.867 185.254 223.885 185.394 223.904C185.543 223.923 185.697 223.932 185.856 223.932C186.294 223.932 186.64 223.801 186.892 223.54C187.153 223.288 187.354 222.971 187.494 222.588L187.718 221.972L184.68 214.412ZM198.636 219.802C198.636 220.567 198.361 221.151 197.81 221.552C197.269 221.944 196.489 222.14 195.472 222.14C194.94 222.14 194.483 222.103 194.1 222.028C193.727 221.953 193.363 221.837 193.008 221.678V220.18C193.381 220.357 193.792 220.507 194.24 220.628C194.697 220.749 195.127 220.81 195.528 220.81C196.013 220.81 196.363 220.735 196.578 220.586C196.793 220.437 196.9 220.236 196.9 219.984C196.9 219.835 196.858 219.704 196.774 219.592C196.69 219.471 196.522 219.34 196.27 219.2C196.027 219.06 195.663 218.887 195.178 218.682C194.693 218.495 194.287 218.304 193.96 218.108C193.643 217.903 193.4 217.665 193.232 217.394C193.073 217.123 192.994 216.773 192.994 216.344C192.994 215.663 193.26 215.149 193.792 214.804C194.333 214.449 195.052 214.272 195.948 214.272C196.415 214.272 196.853 214.319 197.264 214.412C197.684 214.505 198.104 214.645 198.524 214.832L197.964 216.134C197.609 215.985 197.264 215.859 196.928 215.756C196.592 215.653 196.247 215.602 195.892 215.602C195.117 215.602 194.73 215.821 194.73 216.26C194.73 216.419 194.777 216.554 194.87 216.666C194.973 216.778 195.145 216.899 195.388 217.03C195.64 217.151 195.995 217.301 196.452 217.478C196.9 217.655 197.287 217.842 197.614 218.038C197.941 218.225 198.193 218.458 198.37 218.738C198.547 219.018 198.636 219.373 198.636 219.802Z" fill="#414141"/>
<path d="M106.22 147.98H111.88V155.38C111.133 155.633 110.353 155.833 109.54 155.98C108.74 156.127 107.827 156.2 106.8 156.2C104.667 156.2 103.027 155.573 101.88 154.32C100.733 153.067 100.16 151.24 100.16 148.84C100.16 147.347 100.447 146.053 101.02 144.96C101.607 143.867 102.453 143.02 103.56 142.42C104.667 141.82 106.02 141.52 107.62 141.52C108.38 141.52 109.127 141.6 109.86 141.76C110.593 141.92 111.26 142.133 111.86 142.4L110.86 144.82C110.42 144.593 109.92 144.407 109.36 144.26C108.8 144.113 108.213 144.04 107.6 144.04C106.72 144.04 105.953 144.24 105.3 144.64C104.66 145.04 104.16 145.607 103.8 146.34C103.453 147.06 103.28 147.913 103.28 148.9C103.28 149.833 103.407 150.66 103.66 151.38C103.913 152.1 104.313 152.667 104.86 153.08C105.407 153.48 106.12 153.68 107 153.68C107.427 153.68 107.787 153.66 108.08 153.62C108.387 153.58 108.667 153.533 108.92 153.48V150.5H106.22V147.98ZM121.133 144.88C121.279 144.88 121.453 144.887 121.653 144.9C121.853 144.913 122.013 144.933 122.133 144.96L121.913 147.76C121.819 147.733 121.679 147.713 121.493 147.7C121.319 147.673 121.166 147.66 121.033 147.66C120.526 147.66 120.039 147.753 119.573 147.94C119.106 148.113 118.726 148.4 118.433 148.8C118.153 149.2 118.013 149.747 118.013 150.44V156H115.033V145.08H117.293L117.733 146.92H117.873C118.193 146.36 118.633 145.88 119.193 145.48C119.753 145.08 120.399 144.88 121.133 144.88ZM128.224 144.88C129.731 144.88 130.924 145.313 131.804 146.18C132.684 147.033 133.124 148.253 133.124 149.84V151.28H126.084C126.111 152.12 126.357 152.78 126.824 153.26C127.304 153.74 127.964 153.98 128.804 153.98C129.511 153.98 130.151 153.913 130.724 153.78C131.297 153.633 131.891 153.413 132.504 153.12V155.42C131.971 155.687 131.404 155.88 130.804 156C130.217 156.133 129.504 156.2 128.664 156.2C127.571 156.2 126.604 156 125.764 155.6C124.924 155.187 124.264 154.567 123.784 153.74C123.304 152.913 123.064 151.873 123.064 150.62C123.064 149.34 123.277 148.28 123.704 147.44C124.144 146.587 124.751 145.947 125.524 145.52C126.297 145.093 127.197 144.88 128.224 144.88ZM128.244 147C127.671 147 127.191 147.187 126.804 147.56C126.431 147.933 126.211 148.513 126.144 149.3H130.324C130.311 148.633 130.137 148.087 129.804 147.66C129.471 147.22 128.951 147 128.244 147ZM140.02 144.86C141.487 144.86 142.607 145.18 143.38 145.82C144.167 146.447 144.56 147.413 144.56 148.72V156H142.48L141.9 154.52H141.82C141.354 155.107 140.86 155.533 140.34 155.8C139.82 156.067 139.107 156.2 138.2 156.2C137.227 156.2 136.42 155.92 135.78 155.36C135.14 154.787 134.82 153.913 134.82 152.74C134.82 151.58 135.227 150.727 136.04 150.18C136.854 149.62 138.074 149.313 139.7 149.26L141.6 149.2V148.72C141.6 148.147 141.447 147.727 141.14 147.46C140.847 147.193 140.434 147.06 139.9 147.06C139.367 147.06 138.847 147.14 138.34 147.3C137.834 147.447 137.327 147.633 136.82 147.86L135.84 145.84C136.427 145.533 137.074 145.293 137.78 145.12C138.5 144.947 139.247 144.86 140.02 144.86ZM140.44 150.98C139.48 151.007 138.814 151.18 138.44 151.5C138.067 151.82 137.88 152.24 137.88 152.76C137.88 153.213 138.014 153.54 138.28 153.74C138.547 153.927 138.894 154.02 139.32 154.02C139.96 154.02 140.5 153.833 140.94 153.46C141.38 153.073 141.6 152.533 141.6 151.84V150.94L140.44 150.98ZM152.211 153.82C152.544 153.82 152.864 153.787 153.171 153.72C153.477 153.653 153.784 153.573 154.091 153.48V155.7C153.771 155.833 153.371 155.947 152.891 156.04C152.424 156.147 151.911 156.2 151.351 156.2C150.697 156.2 150.111 156.093 149.591 155.88C149.084 155.667 148.677 155.3 148.371 154.78C148.077 154.247 147.931 153.513 147.931 152.58V147.32H146.511V146.06L148.151 145.06L149.011 142.76H150.911V145.08H153.971V147.32H150.911V152.58C150.911 152.993 151.031 153.307 151.271 153.52C151.511 153.72 151.824 153.82 152.211 153.82ZM166.278 141.72C168.118 141.72 169.458 142.12 170.298 142.92C171.151 143.707 171.578 144.793 171.578 146.18C171.578 147.007 171.405 147.787 171.058 148.52C170.711 149.24 170.131 149.82 169.318 150.26C168.518 150.7 167.425 150.92 166.038 150.92H164.738V156H161.718V141.72H166.278ZM166.118 144.2H164.738V148.44H165.738C166.591 148.44 167.265 148.273 167.758 147.94C168.265 147.593 168.518 147.04 168.518 146.28C168.518 144.893 167.718 144.2 166.118 144.2ZM180.137 144.88C180.283 144.88 180.457 144.887 180.657 144.9C180.857 144.913 181.017 144.933 181.137 144.96L180.917 147.76C180.823 147.733 180.683 147.713 180.497 147.7C180.323 147.673 180.17 147.66 180.037 147.66C179.53 147.66 179.043 147.753 178.577 147.94C178.11 148.113 177.73 148.4 177.437 148.8C177.157 149.2 177.017 149.747 177.017 150.44V156H174.037V145.08H176.297L176.737 146.92H176.877C177.197 146.36 177.637 145.88 178.197 145.48C178.757 145.08 179.403 144.88 180.137 144.88ZM192.648 150.52C192.648 152.333 192.168 153.733 191.208 154.72C190.261 155.707 188.968 156.2 187.328 156.2C186.315 156.2 185.408 155.98 184.608 155.54C183.821 155.1 183.201 154.46 182.748 153.62C182.295 152.767 182.068 151.733 182.068 150.52C182.068 148.707 182.541 147.313 183.488 146.34C184.435 145.367 185.735 144.88 187.388 144.88C188.415 144.88 189.321 145.1 190.108 145.54C190.895 145.98 191.515 146.62 191.968 147.46C192.421 148.287 192.648 149.307 192.648 150.52ZM185.108 150.52C185.108 151.6 185.281 152.42 185.628 152.98C185.988 153.527 186.568 153.8 187.368 153.8C188.155 153.8 188.721 153.527 189.068 152.98C189.428 152.42 189.608 151.6 189.608 150.52C189.608 149.44 189.428 148.633 189.068 148.1C188.721 147.553 188.148 147.28 187.348 147.28C186.561 147.28 185.988 147.553 185.628 148.1C185.281 148.633 185.108 149.44 185.108 150.52ZM194.991 142.26C194.991 141.7 195.144 141.32 195.451 141.12C195.771 140.907 196.157 140.8 196.611 140.8C197.051 140.8 197.431 140.907 197.751 141.12C198.071 141.32 198.231 141.7 198.231 142.26C198.231 142.807 198.071 143.187 197.751 143.4C197.431 143.613 197.051 143.72 196.611 143.72C196.157 143.72 195.771 143.613 195.451 143.4C195.144 143.187 194.991 142.807 194.991 142.26ZM194.231 160.8C193.897 160.8 193.551 160.773 193.191 160.72C192.817 160.68 192.511 160.627 192.271 160.56V158.22C192.511 158.273 192.737 158.313 192.951 158.34C193.164 158.38 193.404 158.4 193.671 158.4C194.071 158.4 194.411 158.287 194.691 158.06C194.971 157.833 195.111 157.393 195.111 156.74V145.08H198.091V157.18C198.091 157.847 197.964 158.453 197.711 159C197.457 159.547 197.044 159.98 196.471 160.3C195.911 160.633 195.164 160.8 194.231 160.8ZM205.705 144.88C207.211 144.88 208.405 145.313 209.285 146.18C210.165 147.033 210.605 148.253 210.605 149.84V151.28H203.565C203.591 152.12 203.838 152.78 204.305 153.26C204.785 153.74 205.445 153.98 206.285 153.98C206.991 153.98 207.631 153.913 208.205 153.78C208.778 153.633 209.371 153.413 209.985 153.12V155.42C209.451 155.687 208.885 155.88 208.285 156C207.698 156.133 206.985 156.2 206.145 156.2C205.051 156.2 204.085 156 203.245 155.6C202.405 155.187 201.745 154.567 201.265 153.74C200.785 152.913 200.545 151.873 200.545 150.62C200.545 149.34 200.758 148.28 201.185 147.44C201.625 146.587 202.231 145.947 203.005 145.52C203.778 145.093 204.678 144.88 205.705 144.88ZM205.725 147C205.151 147 204.671 147.187 204.285 147.56C203.911 147.933 203.691 148.513 203.625 149.3H207.805C207.791 148.633 207.618 148.087 207.285 147.66C206.951 147.22 206.431 147 205.725 147ZM217.461 156.2C215.834 156.2 214.574 155.753 213.681 154.86C212.801 153.953 212.361 152.533 212.361 150.6C212.361 149.267 212.588 148.18 213.041 147.34C213.494 146.5 214.121 145.88 214.921 145.48C215.734 145.08 216.668 144.88 217.721 144.88C218.468 144.88 219.114 144.953 219.661 145.1C220.221 145.247 220.708 145.42 221.121 145.62L220.241 147.92C219.774 147.733 219.334 147.58 218.921 147.46C218.521 147.34 218.121 147.28 217.721 147.28C216.174 147.28 215.401 148.38 215.401 150.58C215.401 151.673 215.601 152.48 216.001 153C216.414 153.52 216.988 153.78 217.721 153.78C218.348 153.78 218.901 153.7 219.381 153.54C219.861 153.367 220.328 153.133 220.781 152.84V155.38C220.328 155.673 219.848 155.88 219.341 156C218.848 156.133 218.221 156.2 217.461 156.2ZM227.894 153.82C228.228 153.82 228.548 153.787 228.854 153.72C229.161 153.653 229.468 153.573 229.774 153.48V155.7C229.454 155.833 229.054 155.947 228.574 156.04C228.108 156.147 227.594 156.2 227.034 156.2C226.381 156.2 225.794 156.093 225.274 155.88C224.768 155.667 224.361 155.3 224.054 154.78C223.761 154.247 223.614 153.513 223.614 152.58V147.32H222.194V146.06L223.834 145.06L224.694 142.76H226.594V145.08H229.654V147.32H226.594V152.58C226.594 152.993 226.714 153.307 226.954 153.52C227.194 153.72 227.508 153.82 227.894 153.82Z" fill="#8C8C8C"/>
<circle cx="76" cy="148" r="10" fill="#FF0003"/>
<path fill-rule="evenodd" clip-rule="evenodd" d="M76 144.788C78.7738 142.051 85.709 146.841 76 153C66.291 146.842 73.2262 142.051 76 144.788Z" fill="white"/>
<path d="M89.152 196H71.548V192.652L78.1 186.028C79.396 184.708 80.452 183.58 81.268 182.644C82.108 181.708 82.72 180.832 83.104 180.016C83.512 179.176 83.716 178.276 83.716 177.316C83.716 176.14 83.38 175.264 82.708 174.688C82.036 174.088 81.148 173.788 80.044 173.788C78.964 173.788 77.956 174.016 77.02 174.472C76.084 174.904 75.112 175.528 74.104 176.344L71.62 173.356C72.676 172.444 73.876 171.652 75.22 170.98C76.564 170.284 78.256 169.936 80.296 169.936C81.952 169.936 83.38 170.236 84.58 170.836C85.78 171.412 86.692 172.216 87.316 173.248C87.964 174.28 88.288 175.48 88.288 176.848C88.288 178.24 88.012 179.524 87.46 180.7C86.908 181.852 86.104 183.016 85.048 184.192C84.016 185.344 82.78 186.592 81.34 187.936L77.272 191.86V192.076H89.152V196ZM104.678 196H100.142V179.98C100.142 179.212 100.154 178.396 100.178 177.532C100.202 176.668 100.238 175.864 100.286 175.12C100.046 175.36 99.7456 175.648 99.3856 175.984C99.0256 176.296 98.6536 176.62 98.2696 176.956L95.3896 179.26L93.1216 176.452L100.898 170.296H104.678V196ZM130.355 196H112.751V192.652L119.303 186.028C120.599 184.708 121.655 183.58 122.471 182.644C123.311 181.708 123.923 180.832 124.307 180.016C124.715 179.176 124.919 178.276 124.919 177.316C124.919 176.14 124.583 175.264 123.911 174.688C123.239 174.088 122.351 173.788 121.247 173.788C120.167 173.788 119.159 174.016 118.223 174.472C117.287 174.904 116.315 175.528 115.307 176.344L112.823 173.356C113.879 172.444 115.079 171.652 116.423 170.98C117.767 170.284 119.459 169.936 121.499 169.936C123.155 169.936 124.583 170.236 125.783 170.836C126.983 171.412 127.895 172.216 128.519 173.248C129.167 174.28 129.491 175.48 129.491 176.848C129.491 178.24 129.215 179.524 128.663 180.7C128.111 181.852 127.307 183.016 126.251 184.192C125.219 185.344 123.983 186.592 122.543 187.936L118.475 191.86V192.076H130.355V196ZM143.757 181.636H150.705V184.984H143.757V192.004H140.373V184.984H133.461V181.636H140.373V174.544H143.757V181.636ZM186.13 182.896C186.13 187.24 184.918 190.516 182.494 192.724C180.07 194.908 176.686 196 172.342 196H165.106V170.296H173.098C175.738 170.296 178.03 170.776 179.974 171.736C181.942 172.696 183.454 174.112 184.51 175.984C185.59 177.832 186.13 180.136 186.13 182.896ZM181.306 183.04C181.306 179.968 180.598 177.712 179.182 176.272C177.79 174.832 175.762 174.112 173.098 174.112H169.714V192.148H172.486C178.366 192.148 181.306 189.112 181.306 183.04ZM208.606 186.208C208.606 189.448 207.766 191.956 206.086 193.732C204.406 195.484 202.126 196.36 199.246 196.36C197.47 196.36 195.886 195.964 194.494 195.172C193.102 194.38 192.01 193.228 191.218 191.716C190.426 190.204 190.03 188.368 190.03 186.208C190.03 182.968 190.858 180.484 192.514 178.756C194.194 177.004 196.474 176.128 199.354 176.128C201.154 176.128 202.75 176.524 204.142 177.316C205.534 178.084 206.626 179.224 207.418 180.736C208.21 182.224 208.606 184.048 208.606 186.208ZM194.674 186.208C194.674 188.272 195.034 189.868 195.754 190.996C196.498 192.124 197.686 192.688 199.318 192.688C200.95 192.688 202.126 192.124 202.846 190.996C203.59 189.868 203.962 188.272 203.962 186.208C203.962 184.144 203.59 182.56 202.846 181.456C202.126 180.352 200.938 179.8 199.282 179.8C197.674 179.8 196.498 180.352 195.754 181.456C195.034 182.56 194.674 184.144 194.674 186.208ZM223.735 176.128C225.919 176.128 227.623 176.692 228.847 177.82C230.095 178.948 230.719 180.772 230.719 183.292V196H226.183V184.192C226.183 181.264 224.983 179.8 222.583 179.8C220.759 179.8 219.511 180.376 218.839 181.528C218.167 182.68 217.831 184.324 217.831 186.46V196H213.295V176.488H216.787L217.435 179.044H217.687C218.311 178.036 219.163 177.304 220.243 176.848C221.347 176.368 222.511 176.128 223.735 176.128ZM244.241 176.128C246.857 176.128 248.921 176.908 250.433 178.468C251.969 180.028 252.737 182.2 252.737 184.984V187.288H239.849C239.897 189.064 240.389 190.444 241.325 191.428C242.261 192.388 243.557 192.868 245.213 192.868C246.461 192.868 247.589 192.748 248.597 192.508C249.605 192.244 250.637 191.872 251.693 191.392V195.028C250.733 195.484 249.737 195.82 248.705 196.036C247.673 196.252 246.437 196.36 244.997 196.36C243.101 196.36 241.409 196 239.921 195.28C238.457 194.536 237.305 193.42 236.465 191.932C235.649 190.444 235.241 188.596 235.241 186.388C235.241 183.052 236.069 180.508 237.725 178.756C239.381 177.004 241.553 176.128 244.241 176.128ZM244.241 179.476C243.017 179.476 242.021 179.872 241.253 180.664C240.509 181.432 240.077 182.584 239.957 184.12H248.345C248.321 182.776 247.973 181.672 247.301 180.808C246.653 179.92 245.633 179.476 244.241 179.476Z" fill="black"/>
<g filter="url(#filter4_d_4_546)">
<rect x="476" y="250" width="201" height="48" rx="20" fill="white"/>
</g>
<path d="M512.627 279.327L514.335 277.619L521.597 284.881L519.888 286.589L512.627 279.327Z" fill="#616161"/>
<path d="M507.083 281.75C512.422 281.75 516.75 277.422 516.75 272.083C516.75 266.745 512.422 262.417 507.083 262.417C501.745 262.417 497.417 266.745 497.417 272.083C497.417 277.422 501.745 281.75 507.083 281.75Z" fill="#616161"/>
<path d="M514.605 281.351L516.313 279.643L521.567 284.897L519.858 286.605L514.605 281.351Z" fill="#37474F"/>
<path d="M507.083 279.938C511.421 279.938 514.938 276.421 514.938 272.083C514.938 267.746 511.421 264.229 507.083 264.229C502.746 264.229 499.229 267.746 499.229 272.083C499.229 276.421 502.746 279.938 507.083 279.938Z" fill="#64B5F6"/>
<path d="M511.252 268.579C510.225 267.371 508.715 266.646 507.083 266.646C505.452 266.646 503.942 267.371 502.915 268.579C502.673 268.821 502.733 269.244 502.975 269.425C503.217 269.667 503.64 269.606 503.821 269.365C504.667 268.398 505.815 267.854 507.083 267.854C508.352 267.854 509.5 268.398 510.346 269.365C510.467 269.485 510.648 269.606 510.829 269.606C510.95 269.606 511.131 269.546 511.192 269.485C511.433 269.244 511.433 268.821 511.252 268.579V268.579Z" fill="#BBDEFB"/>
<path d="M541.862 276.464C541.862 277.352 541.67 278.156 541.286 278.876C540.914 279.584 540.344 280.148 539.576 280.568C538.808 280.976 537.836 281.18 536.66 281.18C534.992 281.18 533.726 280.748 532.862 279.884C531.998 279.008 531.566 277.856 531.566 276.428V268.148H533.87V276.194C533.87 277.25 534.11 278.018 534.59 278.498C535.07 278.978 535.784 279.218 536.732 279.218C537.728 279.218 538.448 278.96 538.892 278.444C539.348 277.916 539.576 277.16 539.576 276.176V268.148H541.862V276.464ZM551.547 278.174C551.547 279.158 551.193 279.908 550.485 280.424C549.789 280.928 548.787 281.18 547.479 281.18C546.795 281.18 546.207 281.132 545.715 281.036C545.235 280.94 544.767 280.79 544.311 280.586V278.66C544.791 278.888 545.319 279.08 545.895 279.236C546.483 279.392 547.035 279.47 547.551 279.47C548.175 279.47 548.625 279.374 548.901 279.182C549.177 278.99 549.315 278.732 549.315 278.408C549.315 278.216 549.261 278.048 549.153 277.904C549.045 277.748 548.829 277.58 548.505 277.4C548.193 277.22 547.725 276.998 547.101 276.734C546.477 276.494 545.955 276.248 545.535 275.996C545.127 275.732 544.815 275.426 544.599 275.078C544.395 274.73 544.293 274.28 544.293 273.728C544.293 272.852 544.635 272.192 545.319 271.748C546.015 271.292 546.939 271.064 548.091 271.064C548.691 271.064 549.255 271.124 549.783 271.244C550.323 271.364 550.863 271.544 551.403 271.784L550.683 273.458C550.227 273.266 549.783 273.104 549.351 272.972C548.919 272.84 548.475 272.774 548.019 272.774C547.023 272.774 546.525 273.056 546.525 273.62C546.525 273.824 546.585 273.998 546.705 274.142C546.837 274.286 547.059 274.442 547.371 274.61C547.695 274.766 548.151 274.958 548.739 275.186C549.315 275.414 549.813 275.654 550.233 275.906C550.653 276.146 550.977 276.446 551.205 276.806C551.433 277.166 551.547 277.622 551.547 278.174ZM557.653 271.064C558.961 271.064 559.993 271.454 560.749 272.234C561.517 273.014 561.901 274.1 561.901 275.492V276.644H555.457C555.481 277.532 555.727 278.222 556.195 278.714C556.663 279.194 557.311 279.434 558.139 279.434C558.763 279.434 559.327 279.374 559.831 279.254C560.335 279.122 560.851 278.936 561.379 278.696V280.514C560.899 280.742 560.401 280.91 559.885 281.018C559.369 281.126 558.751 281.18 558.031 281.18C557.083 281.18 556.237 281 555.493 280.64C554.761 280.268 554.185 279.71 553.765 278.966C553.357 278.222 553.153 277.298 553.153 276.194C553.153 274.526 553.567 273.254 554.395 272.378C555.223 271.502 556.309 271.064 557.653 271.064ZM557.653 272.738C557.041 272.738 556.543 272.936 556.159 273.332C555.787 273.716 555.571 274.292 555.511 275.06H559.705C559.693 274.388 559.519 273.836 559.183 273.404C558.859 272.96 558.349 272.738 557.653 272.738ZM569.3 271.064C569.456 271.064 569.624 271.07 569.804 271.082C569.996 271.094 570.158 271.118 570.29 271.154L570.092 273.26C569.972 273.236 569.828 273.218 569.66 273.206C569.492 273.182 569.342 273.17 569.21 273.17C568.73 273.17 568.28 273.272 567.86 273.476C567.44 273.668 567.098 273.974 566.834 274.394C566.582 274.802 566.456 275.318 566.456 275.942V281H564.188V271.244H565.934L566.258 272.936H566.366C566.654 272.42 567.05 271.982 567.554 271.622C568.058 271.25 568.64 271.064 569.3 271.064ZM581.886 271.064C582.042 271.064 582.21 271.07 582.39 271.082C582.582 271.094 582.744 271.118 582.876 271.154L582.678 273.26C582.558 273.236 582.414 273.218 582.246 273.206C582.078 273.182 581.928 273.17 581.796 273.17C581.316 273.17 580.866 273.272 580.446 273.476C580.026 273.668 579.684 273.974 579.42 274.394C579.168 274.802 579.042 275.318 579.042 275.942V281H576.774V271.244H578.52L578.844 272.936H578.952C579.24 272.42 579.636 271.982 580.14 271.622C580.644 271.25 581.226 271.064 581.886 271.064ZM588.257 271.064C589.565 271.064 590.597 271.454 591.353 272.234C592.121 273.014 592.505 274.1 592.505 275.492V276.644H586.061C586.085 277.532 586.331 278.222 586.799 278.714C587.267 279.194 587.915 279.434 588.743 279.434C589.367 279.434 589.931 279.374 590.435 279.254C590.939 279.122 591.455 278.936 591.983 278.696V280.514C591.503 280.742 591.005 280.91 590.489 281.018C589.973 281.126 589.355 281.18 588.635 281.18C587.687 281.18 586.841 281 586.097 280.64C585.365 280.268 584.789 279.71 584.369 278.966C583.961 278.222 583.757 277.298 583.757 276.194C583.757 274.526 584.171 273.254 584.999 272.378C585.827 271.502 586.913 271.064 588.257 271.064ZM588.257 272.738C587.645 272.738 587.147 272.936 586.763 273.332C586.391 273.716 586.175 274.292 586.115 275.06H590.309C590.297 274.388 590.123 273.836 589.787 273.404C589.463 272.96 588.953 272.738 588.257 272.738ZM601.434 278.174C601.434 279.158 601.08 279.908 600.372 280.424C599.676 280.928 598.674 281.18 597.366 281.18C596.682 281.18 596.094 281.132 595.602 281.036C595.122 280.94 594.654 280.79 594.198 280.586V278.66C594.678 278.888 595.206 279.08 595.782 279.236C596.37 279.392 596.922 279.47 597.438 279.47C598.062 279.47 598.512 279.374 598.788 279.182C599.064 278.99 599.202 278.732 599.202 278.408C599.202 278.216 599.148 278.048 599.04 277.904C598.932 277.748 598.716 277.58 598.392 277.4C598.08 277.22 597.612 276.998 596.988 276.734C596.364 276.494 595.842 276.248 595.422 275.996C595.014 275.732 594.702 275.426 594.486 275.078C594.282 274.73 594.18 274.28 594.18 273.728C594.18 272.852 594.522 272.192 595.206 271.748C595.902 271.292 596.826 271.064 597.978 271.064C598.578 271.064 599.142 271.124 599.67 271.244C600.21 271.364 600.75 271.544 601.29 271.784L600.57 273.458C600.114 273.266 599.67 273.104 599.238 272.972C598.806 272.84 598.362 272.774 597.906 272.774C596.91 272.774 596.412 273.056 596.412 273.62C596.412 273.824 596.472 273.998 596.592 274.142C596.724 274.286 596.946 274.442 597.258 274.61C597.582 274.766 598.038 274.958 598.626 275.186C599.202 275.414 599.7 275.654 600.12 275.906C600.54 276.146 600.864 276.446 601.092 276.806C601.32 277.166 601.434 277.622 601.434 278.174ZM607.54 271.064C608.848 271.064 609.88 271.454 610.636 272.234C611.404 273.014 611.788 274.1 611.788 275.492V276.644H605.344C605.368 277.532 605.614 278.222 606.082 278.714C606.55 279.194 607.198 279.434 608.026 279.434C608.65 279.434 609.214 279.374 609.718 279.254C610.222 279.122 610.738 278.936 611.266 278.696V280.514C610.786 280.742 610.288 280.91 609.772 281.018C609.256 281.126 608.638 281.18 607.918 281.18C606.97 281.18 606.124 281 605.38 280.64C604.648 280.268 604.072 279.71 603.652 278.966C603.244 278.222 603.04 277.298 603.04 276.194C603.04 274.526 603.454 273.254 604.282 272.378C605.11 271.502 606.196 271.064 607.54 271.064ZM607.54 272.738C606.928 272.738 606.43 272.936 606.046 273.332C605.674 273.716 605.458 274.292 605.398 275.06H609.592C609.58 274.388 609.406 273.836 609.07 273.404C608.746 272.96 608.236 272.738 607.54 272.738ZM617.963 271.064C619.223 271.064 620.177 271.34 620.825 271.892C621.485 272.444 621.815 273.296 621.815 274.448V281H620.213L619.763 279.65H619.691C619.271 280.178 618.827 280.568 618.359 280.82C617.891 281.06 617.255 281.18 616.451 281.18C615.575 281.18 614.849 280.934 614.273 280.442C613.697 279.95 613.409 279.188 613.409 278.156C613.409 277.148 613.775 276.392 614.507 275.888C615.251 275.384 616.373 275.102 617.873 275.042L619.565 274.988V274.502C619.565 273.89 619.415 273.452 619.115 273.188C618.815 272.912 618.395 272.774 617.855 272.774C617.363 272.774 616.889 272.846 616.433 272.99C615.989 273.134 615.545 273.302 615.101 273.494L614.381 271.91C614.861 271.658 615.407 271.454 616.019 271.298C616.643 271.142 617.291 271.064 617.963 271.064ZM618.377 276.428C617.381 276.464 616.691 276.638 616.307 276.95C615.923 277.25 615.731 277.658 615.731 278.174C615.731 278.642 615.863 278.978 616.127 279.182C616.403 279.374 616.763 279.47 617.207 279.47C617.867 279.47 618.425 279.284 618.881 278.912C619.337 278.528 619.565 277.964 619.565 277.22V276.392L618.377 276.428ZM629.769 271.064C629.925 271.064 630.093 271.07 630.273 271.082C630.465 271.094 630.627 271.118 630.759 271.154L630.561 273.26C630.441 273.236 630.297 273.218 630.129 273.206C629.961 273.182 629.811 273.17 629.679 273.17C629.199 273.17 628.749 273.272 628.329 273.476C627.909 273.668 627.567 273.974 627.303 274.394C627.051 274.802 626.925 275.318 626.925 275.942V281H624.657V271.244H626.403L626.727 272.936H626.835C627.123 272.42 627.519 271.982 628.023 271.622C628.527 271.25 629.109 271.064 629.769 271.064ZM636.158 281.18C634.754 281.18 633.65 280.778 632.846 279.974C632.042 279.17 631.64 277.904 631.64 276.176C631.64 274.976 631.838 274.004 632.234 273.26C632.642 272.504 633.2 271.952 633.908 271.604C634.616 271.244 635.426 271.064 636.338 271.064C636.95 271.064 637.496 271.124 637.976 271.244C638.456 271.364 638.864 271.508 639.2 271.676L638.534 273.458C638.162 273.314 637.79 273.194 637.418 273.098C637.046 272.99 636.686 272.936 636.338 272.936C634.754 272.936 633.962 274.01 633.962 276.158C633.962 277.202 634.16 277.988 634.556 278.516C634.964 279.044 635.546 279.308 636.302 279.308C636.842 279.308 637.322 279.242 637.742 279.11C638.162 278.978 638.564 278.798 638.948 278.57V280.532C638.576 280.748 638.174 280.91 637.742 281.018C637.322 281.126 636.794 281.18 636.158 281.18ZM643.501 270.578C643.501 270.962 643.483 271.34 643.447 271.712C643.423 272.072 643.399 272.342 643.375 272.522H643.519C643.831 272.03 644.239 271.664 644.743 271.424C645.247 271.184 645.805 271.064 646.417 271.064C647.521 271.064 648.385 271.346 649.009 271.91C649.633 272.474 649.945 273.386 649.945 274.646V281H647.677V275.096C647.677 273.632 647.077 272.9 645.877 272.9C644.965 272.9 644.341 273.188 644.005 273.764C643.669 274.34 643.501 275.162 643.501 276.23V281H641.233V267.32H643.501V270.578Z" fill="#717171"/>
<g filter="url(#filter5_d_4_546)">
<rect x="391" y="500" width="131" height="163" rx="20" fill="#EBEBEB"/>
</g>
<path d="M429.292 627.148C430.888 627.148 432.064 627.454 432.82 628.066C433.588 628.666 433.972 629.578 433.972 630.802C433.972 631.486 433.846 632.056 433.594 632.512C433.342 632.968 433.018 633.334 432.622 633.61C432.238 633.874 431.83 634.084 431.398 634.24L434.926 640H433.036L429.922 634.69H427.366V640H425.746V627.148H429.292ZM429.202 628.552H427.366V633.322H429.292C430.336 633.322 431.098 633.118 431.578 632.71C432.058 632.29 432.298 631.678 432.298 630.874C432.298 630.034 432.046 629.44 431.542 629.092C431.038 628.732 430.258 628.552 429.202 628.552ZM440.453 630.172C441.281 630.172 441.989 630.352 442.577 630.712C443.177 631.072 443.633 631.582 443.945 632.242C444.269 632.89 444.431 633.652 444.431 634.528V635.482H437.825C437.849 636.574 438.125 637.408 438.653 637.984C439.193 638.548 439.943 638.83 440.903 638.83C441.515 638.83 442.055 638.776 442.523 638.668C443.003 638.548 443.495 638.38 443.999 638.164V639.55C443.507 639.766 443.021 639.922 442.541 640.018C442.061 640.126 441.491 640.18 440.831 640.18C439.919 640.18 439.109 639.994 438.401 639.622C437.705 639.25 437.159 638.698 436.763 637.966C436.379 637.222 436.187 636.316 436.187 635.248C436.187 634.192 436.361 633.286 436.709 632.53C437.069 631.774 437.567 631.192 438.203 630.784C438.851 630.376 439.601 630.172 440.453 630.172ZM440.435 631.468C439.679 631.468 439.079 631.714 438.635 632.206C438.203 632.686 437.945 633.358 437.861 634.222H442.775C442.763 633.406 442.571 632.746 442.199 632.242C441.827 631.726 441.239 631.468 440.435 631.468ZM450.541 630.19C451.717 630.19 452.587 630.448 453.151 630.964C453.715 631.48 453.997 632.302 453.997 633.43V640H452.845L452.539 638.632H452.467C452.047 639.16 451.603 639.55 451.135 639.802C450.679 640.054 450.043 640.18 449.227 640.18C448.351 640.18 447.625 639.952 447.049 639.496C446.473 639.028 446.185 638.302 446.185 637.318C446.185 636.358 446.563 635.62 447.319 635.104C448.075 634.576 449.239 634.288 450.811 634.24L452.449 634.186V633.61C452.449 632.806 452.275 632.248 451.927 631.936C451.579 631.624 451.087 631.468 450.451 631.468C449.947 631.468 449.467 631.546 449.011 631.702C448.555 631.846 448.129 632.014 447.733 632.206L447.247 631.018C447.667 630.79 448.165 630.598 448.741 630.442C449.317 630.274 449.917 630.19 450.541 630.19ZM451.009 635.338C449.809 635.386 448.975 635.578 448.507 635.914C448.051 636.25 447.823 636.724 447.823 637.336C447.823 637.876 447.985 638.272 448.309 638.524C448.645 638.776 449.071 638.902 449.587 638.902C450.403 638.902 451.081 638.68 451.621 638.236C452.161 637.78 452.431 637.084 452.431 636.148V635.284L451.009 635.338ZM460.847 640.18C459.995 640.18 459.233 640.006 458.561 639.658C457.901 639.31 457.379 638.77 456.995 638.038C456.623 637.306 456.437 636.37 456.437 635.23C456.437 634.042 456.635 633.076 457.031 632.332C457.427 631.588 457.961 631.042 458.633 630.694C459.317 630.346 460.091 630.172 460.955 630.172C461.447 630.172 461.921 630.226 462.377 630.334C462.833 630.43 463.205 630.55 463.493 630.694L463.007 632.008C462.719 631.9 462.383 631.798 461.999 631.702C461.615 631.606 461.255 631.558 460.919 631.558C459.023 631.558 458.075 632.776 458.075 635.212C458.075 636.376 458.303 637.27 458.759 637.894C459.227 638.506 459.917 638.812 460.829 638.812C461.357 638.812 461.819 638.758 462.215 638.65C462.623 638.542 462.995 638.41 463.331 638.254V639.658C463.007 639.826 462.647 639.952 462.251 640.036C461.867 640.132 461.399 640.18 460.847 640.18ZM468.848 638.884C469.088 638.884 469.334 638.866 469.586 638.83C469.838 638.782 470.042 638.734 470.198 638.686V639.892C470.03 639.976 469.79 640.042 469.478 640.09C469.166 640.15 468.866 640.18 468.578 640.18C468.074 640.18 467.606 640.096 467.174 639.928C466.754 639.748 466.412 639.442 466.148 639.01C465.884 638.578 465.752 637.972 465.752 637.192V631.576H464.384V630.82L465.77 630.19L466.4 628.138H467.336V630.352H470.126V631.576H467.336V637.156C467.336 637.744 467.474 638.182 467.75 638.47C468.038 638.746 468.404 638.884 468.848 638.884ZM471.896 639.028C471.896 638.584 472.004 638.272 472.22 638.092C472.436 637.912 472.694 637.822 472.994 637.822C473.306 637.822 473.57 637.912 473.786 638.092C474.014 638.272 474.128 638.584 474.128 639.028C474.128 639.46 474.014 639.772 473.786 639.964C473.57 640.156 473.306 640.252 472.994 640.252C472.694 640.252 472.436 640.156 472.22 639.964C472.004 639.772 471.896 639.46 471.896 639.028ZM476.82 627.742C476.82 627.394 476.91 627.142 477.09 626.986C477.27 626.818 477.492 626.734 477.756 626.734C477.996 626.734 478.206 626.818 478.386 626.986C478.578 627.142 478.674 627.394 478.674 627.742C478.674 628.078 478.578 628.33 478.386 628.498C478.206 628.666 477.996 628.75 477.756 628.75C477.492 628.75 477.27 628.666 477.09 628.498C476.91 628.33 476.82 628.078 476.82 627.742ZM475.812 644.32C475.512 644.32 475.248 644.296 475.02 644.248C474.792 644.212 474.594 644.164 474.426 644.104V642.826C474.606 642.874 474.792 642.916 474.984 642.952C475.176 642.988 475.386 643.006 475.614 643.006C475.998 643.006 476.316 642.898 476.568 642.682C476.82 642.478 476.946 642.082 476.946 641.494V630.352H478.53V641.44C478.53 642.34 478.314 643.042 477.882 643.546C477.45 644.062 476.76 644.32 475.812 644.32ZM487.869 637.336C487.869 638.272 487.521 638.98 486.825 639.46C486.129 639.94 485.193 640.18 484.017 640.18C483.345 640.18 482.763 640.126 482.271 640.018C481.791 639.91 481.365 639.76 480.993 639.568V638.128C481.377 638.32 481.839 638.5 482.379 638.668C482.931 638.824 483.489 638.902 484.053 638.902C484.857 638.902 485.439 638.776 485.799 638.524C486.159 638.26 486.339 637.912 486.339 637.48C486.339 637.24 486.273 637.024 486.141 636.832C486.009 636.64 485.769 636.448 485.421 636.256C485.085 636.064 484.599 635.848 483.963 635.608C483.339 635.368 482.805 635.128 482.361 634.888C481.917 634.648 481.575 634.36 481.335 634.024C481.095 633.688 480.975 633.256 480.975 632.728C480.975 631.912 481.305 631.282 481.965 630.838C482.637 630.394 483.513 630.172 484.593 630.172C485.181 630.172 485.727 630.232 486.231 630.352C486.747 630.46 487.227 630.616 487.671 630.82L487.131 632.08C486.723 631.912 486.297 631.768 485.853 631.648C485.409 631.528 484.953 631.468 484.485 631.468C483.837 631.468 483.339 631.576 482.991 631.792C482.655 631.996 482.487 632.278 482.487 632.638C482.487 632.902 482.565 633.13 482.721 633.322C482.877 633.502 483.135 633.682 483.495 633.862C483.867 634.03 484.359 634.234 484.971 634.474C485.583 634.702 486.105 634.936 486.537 635.176C486.969 635.416 487.299 635.71 487.527 636.058C487.755 636.394 487.869 636.82 487.869 637.336Z" fill="black"/>
<path d="M457 572.04C461.487 572.04 465.125 568.403 465.125 563.915C465.125 559.428 461.487 555.79 457 555.79C452.513 555.79 448.875 559.428 448.875 563.915C448.875 568.403 452.513 572.04 457 572.04Z" fill="#00D8FF"/>
<path d="M457 582.544C447.234 582.781 437.493 581.464 428.14 578.644C423.82 577.275 419.79 575.117 416.255 572.281C414.906 571.312 413.782 570.063 412.962 568.619C412.141 567.175 411.642 565.57 411.5 563.915C411.5 558.543 417.402 553.278 427.288 549.833C436.891 546.781 446.925 545.301 457 545.452C466.941 545.313 476.84 546.766 486.321 549.755C490.482 551.082 494.375 553.135 497.82 555.82C499.146 556.744 500.252 557.948 501.061 559.347C501.87 560.746 502.361 562.305 502.5 563.915C502.5 569.499 495.903 575.157 485.275 578.674C476.103 581.402 466.567 582.707 457 582.544V582.544ZM457 549.339C447.361 549.21 437.763 550.617 428.566 553.506C419.466 556.681 415.387 561.023 415.387 563.906C415.387 566.922 419.771 571.663 429.398 574.956C438.345 577.64 447.661 578.889 457 578.657C466.153 578.821 475.278 577.583 484.056 574.985C494.05 571.673 498.6 566.925 498.6 563.915C498.436 562.883 498.06 561.895 497.495 561.015C496.93 560.135 496.188 559.382 495.318 558.803C492.236 556.421 488.758 554.602 485.044 553.428C475.974 550.58 466.506 549.2 457 549.339V549.339Z" fill="#00D8FF"/>
<path d="M438.54 604.44C437.024 604.475 435.526 604.107 434.198 603.374C429.544 600.689 427.932 592.948 429.885 582.662C432.039 572.818 435.77 563.387 440.935 554.734C445.78 546.054 451.983 538.204 459.308 531.484C462.535 528.542 466.259 526.195 470.306 524.552C471.769 523.866 473.366 523.51 474.982 523.51C476.599 523.51 478.195 523.866 479.659 524.552C484.498 527.34 486.101 535.881 483.842 546.843C481.622 556.153 477.987 565.067 473.065 573.276C468.39 581.853 462.383 589.634 455.268 596.328C451.923 599.385 448.041 601.797 443.818 603.442C442.127 604.069 440.343 604.407 438.54 604.44V604.44ZM444.302 556.665C439.376 564.95 435.799 573.967 433.707 583.377C431.91 592.85 433.636 598.548 436.145 599.997C438.745 601.502 445.056 600.075 452.72 593.38C459.512 586.968 465.246 579.519 469.708 571.313C474.423 563.465 477.91 554.943 480.046 546.041C482.171 535.722 480.335 529.404 477.729 527.902C476.752 527.528 475.708 527.36 474.663 527.41C473.618 527.46 472.594 527.726 471.658 528.192C468.055 529.678 464.744 531.788 461.875 534.425C454.877 540.863 448.952 548.377 444.325 556.684L444.302 556.665Z" fill="#00D8FF"/>
<path d="M475.45 604.482C471.047 604.482 465.453 601.817 459.629 596.809C452.176 590.027 445.869 582.084 440.952 573.289C435.851 564.755 432.149 555.461 429.986 545.758C429.048 541.489 428.874 537.087 429.473 532.758C429.611 531.152 430.1 529.595 430.905 528.199C431.71 526.802 432.812 525.599 434.133 524.675C438.966 521.877 447.166 524.753 455.534 532.183C462.491 538.755 468.399 546.355 473.052 554.718C478.149 563.052 481.89 572.143 484.134 581.651C485.113 586.076 485.264 590.645 484.58 595.125C484.417 596.778 483.898 598.375 483.06 599.808C482.222 601.242 481.084 602.477 479.724 603.429C478.418 604.153 476.943 604.516 475.45 604.482V604.482ZM444.315 571.332C449.032 579.738 455.057 587.339 462.164 593.851C469.474 600.14 475.272 601.492 477.764 600.026C480.364 598.515 482.282 592.347 480.306 582.366C478.141 573.288 474.553 564.611 469.675 556.655C465.235 548.651 459.596 541.373 452.954 535.075C445.076 528.081 438.686 526.518 436.083 528.026C435.272 528.685 434.606 529.506 434.128 530.435C433.649 531.365 433.369 532.384 433.304 533.427C432.788 537.289 432.956 541.211 433.802 545.014C435.883 554.293 439.433 563.18 444.319 571.339L444.315 571.332Z" fill="#00D8FF"/>
<defs>
<filter id="filter0_b_4_546" x="255" y="238" width="375" height="375" filterUnits="userSpaceOnUse" color-interpolation-filters="sRGB">
<feFlood flood-opacity="0" result="BackgroundImageFix"/>
<feGaussianBlur in="BackgroundImage" stdDeviation="2"/>
<feComposite in2="SourceAlpha" operator="in" result="effect1_backgroundBlur_4_546"/>
<feBlend mode="normal" in="SourceGraphic" in2="effect1_backgroundBlur_4_546" result="shape"/>
</filter>
<filter id="filter1_b_4_546" x="159" y="46" width="375" height="375" filterUnits="userSpaceOnUse" color-interpolation-filters="sRGB">
<feFlood flood-opacity="0" result="BackgroundImageFix"/>
<feGaussianBlur in="BackgroundImage" stdDeviation="2"/>
<feComposite in2="SourceAlpha" operator="in" result="effect1_backgroundBlur_4_546"/>
<feBlend mode="normal" in="SourceGraphic" in2="effect1_backgroundBlur_4_546" result="shape"/>
</filter>
<filter id="filter2_b_4_546" x="51" y="261" width="286" height="286" filterUnits="userSpaceOnUse" color-interpolation-filters="sRGB">
<feFlood flood-opacity="0" result="BackgroundImageFix"/>
<feGaussianBlur in="BackgroundImage" stdDeviation="2"/>
<feComposite in2="SourceAlpha" operator="in" result="effect1_backgroundBlur_4_546"/>
<feBlend mode="normal" in="SourceGraphic" in2="effect1_backgroundBlur_4_546" result="shape"/>
</filter>
<filter id="filter3_d_4_546" x="27" y="120" width="271" height="130" filterUnits="userSpaceOnUse" color-interpolation-filters="sRGB">
<feFlood flood-opacity="0" result="BackgroundImageFix"/>
<feColorMatrix in="SourceAlpha" type="matrix" values="0 0 0 0 0 0 0 0 0 0 0 0 0 0 0 0 0 0 127 0" result="hardAlpha"/>
<feOffset dy="4"/>
<feGaussianBlur stdDeviation="2"/>
<feComposite in2="hardAlpha" operator="out"/>
<feColorMatrix type="matrix" values="0 0 0 0 0 0 0 0 0 0 0 0 0 0 0 0 0 0 0.25 0"/>
<feBlend mode="normal" in2="BackgroundImageFix" result="effect1_dropShadow_4_546"/>
<feBlend mode="normal" in="SourceGraphic" in2="effect1_dropShadow_4_546" result="shape"/>
</filter>
<filter id="filter4_d_4_546" x="472" y="250" width="209" height="56" filterUnits="userSpaceOnUse" color-interpolation-filters="sRGB">
<feFlood flood-opacity="0" result="BackgroundImageFix"/>
<feColorMatrix in="SourceAlpha" type="matrix" values="0 0 0 0 0 0 0 0 0 0 0 0 0 0 0 0 0 0 127 0" result="hardAlpha"/>
<feOffset dy="4"/>
<feGaussianBlur stdDeviation="2"/>
<feComposite in2="hardAlpha" operator="out"/>
<feColorMatrix type="matrix" values="0 0 0 0 0 0 0 0 0 0 0 0 0 0 0 0 0 0 0.25 0"/>
<feBlend mode="normal" in2="BackgroundImageFix" result="effect1_dropShadow_4_546"/>
<feBlend mode="normal" in="SourceGraphic" in2="effect1_dropShadow_4_546" result="shape"/>
</filter>
<filter id="filter5_d_4_546" x="387" y="500" width="139" height="171" filterUnits="userSpaceOnUse" color-interpolation-filters="sRGB">
<feFlood flood-opacity="0" result="BackgroundImageFix"/>
<feColorMatrix in="SourceAlpha" type="matrix" values="0 0 0 0 0 0 0 0 0 0 0 0 0 0 0 0 0 0 127 0" result="hardAlpha"/>
<feOffset dy="4"/>
<feGaussianBlur stdDeviation="2"/>
<feComposite in2="hardAlpha" operator="out"/>
<feColorMatrix type="matrix" values="0 0 0 0 0 0 0 0 0 0 0 0 0 0 0 0 0 0 0.25 0"/>
<feBlend mode="normal" in2="BackgroundImageFix" result="effect1_dropShadow_4_546"/>
<feBlend mode="normal" in="SourceGraphic" in2="effect1_dropShadow_4_546" result="shape"/>
</filter>
</defs>
</svg>
